<svg width="301" height="154" viewBox="0 0 301 154" fill="none" xmlns="http://www.w3.org/2000/svg">
<path d="M133.33 50.279L132.036 52.0016L131.174 52.863L129.45 53.8103L129.191 54.5856C129.191 54.5856 128.501 55.2749 128.588 55.7058C128.674 56.1368 128.674 56.9118 128.674 56.9118C128.674 56.9118 127.467 58.0316 126.949 58.376C126.432 58.7204 125.742 59.4958 125.742 59.4958C125.742 59.4958 125.311 60.0129 125.052 60.1851C124.794 60.3569 124.363 60.874 124.018 61.391C123.672 61.908 123.328 62.2521 123.155 62.5104C122.983 62.7688 122.465 63.3719 122.207 64.3195C121.948 65.2675 121.258 66.3869 121.258 66.3869L121.085 66.8175C121.172 68.2821 121.172 68.5404 121.344 69.0575C121.517 69.5741 121.689 69.4015 121.517 70.5217C121.344 71.6412 121.344 72.0721 121.172 72.5891C121 73.1054 120.482 74.053 120.31 74.4843C120.137 74.9149 120.655 75.6899 120.655 75.6899C120.655 75.6899 120.914 76.8101 120.741 77.0684C120.569 77.3271 120.827 77.8438 120.827 77.8438C120.827 77.8438 121.862 78.4465 122.207 78.7914C122.552 79.1358 123.156 79.6528 123.242 79.9112C123.328 80.1699 124.018 81.3758 124.104 81.6341C124.19 81.8925 124.88 82.8397 125.053 83.0984C125.225 83.3571 126.087 84.3047 126.087 84.3047C126.087 84.3047 127.208 85.1654 127.467 85.5103C127.726 85.8547 128.502 86.0269 128.76 86.2852C129.019 86.5436 129.623 86.4571 129.967 86.7162C130.313 86.9745 131.002 86.5436 131.347 86.7162C131.692 86.8884 132.641 86.544 132.9 86.3717C133.158 86.1995 133.762 85.5967 134.193 85.8547C134.624 86.1126 134.883 85.8547 135.228 85.9408C135.572 86.0269 136.09 85.5967 136.435 85.5967C136.78 85.5967 137.642 85.2519 137.9 85.2519C138.159 85.2519 139.022 84.7345 139.367 84.7345C139.711 84.7345 140.143 84.3908 140.574 84.5627C141.005 84.7345 140.832 84.2186 141.608 84.4765C142.384 84.7345 142.643 84.4765 142.902 84.7345C143.161 84.9932 143.506 84.7353 143.764 85.0797C144.023 85.4238 144.454 85.6821 144.54 86.0269C144.626 86.3717 145.144 86.7166 145.144 86.7166L145.661 86.8023C145.661 86.8023 146.351 86.2856 146.523 86.6304C146.696 86.9749 147.472 86.8892 147.472 86.8892L148.248 87.7503L148.507 88.0947C148.507 88.0947 149.024 89.4732 148.938 89.9899C148.852 90.5066 148.852 91.6264 148.593 91.8847C148.334 92.1434 148.162 93.2632 148.162 93.2632C148.162 93.2632 147.817 93.6077 148.593 94.2969C149.369 94.9866 149.887 95.589 150.145 95.933C150.404 96.2778 151.094 97.2258 151.18 97.8286C151.266 98.4314 151.439 98.7758 151.784 99.5512C152.129 100.327 152.56 100.413 152.646 101.275C152.732 102.136 152.904 102.136 152.818 102.738C152.732 103.342 152.473 103.428 152.732 103.858C152.991 104.289 153.335 105.065 153.25 105.323C153.163 105.581 152.991 106.701 152.991 106.701L152.818 107.218L152.042 108.683L151.525 109.458C151.352 110.06 151.008 110.664 151.094 111.525C151.18 112.387 150.663 112.386 151.352 113.247C152.042 114.109 152.387 115.057 152.818 115.832C153.25 116.607 153.508 117.382 153.594 117.899C153.681 118.416 154.025 118.589 154.198 119.278C154.37 119.967 154.456 120.311 154.456 120.742C154.456 121.172 154.37 122.293 154.543 122.551C154.715 122.809 154.801 123.585 154.888 123.93C154.974 124.274 154.629 124.36 155.146 124.964C155.664 125.566 156.009 125.911 156.353 126.342C156.698 126.773 156.612 126.6 156.871 127.203C157.13 127.806 157.474 128.151 157.561 128.667C157.647 129.184 157.733 130.476 157.992 131.079C158.251 131.682 158.595 132.286 158.595 132.286C158.595 132.286 159.544 132.888 159.889 132.802C160.233 132.716 160.924 131.942 161.441 132.2C161.959 132.458 162.39 132.2 162.821 132.2C163.252 132.2 163.683 131.682 164.115 131.682C164.546 131.682 165.149 130.993 165.495 131.166C165.839 131.338 166.27 130.993 166.701 130.562C167.133 130.132 167.391 129.788 168.167 129.098C168.943 128.409 168.857 128.409 169.374 127.978C169.892 127.547 170.409 126.6 171.013 126.427C171.616 126.255 171.788 125.653 171.961 125.222C172.134 124.791 172.219 124.533 172.478 124.188C172.737 123.844 172.565 124.275 172.996 123.155C173.427 122.034 173.945 121.604 174.376 121.345C174.807 121.087 175.066 120.57 175.324 120.484C175.583 120.397 176.014 120.742 175.842 119.967C175.67 119.192 175.842 118.072 175.67 117.814C175.497 117.555 175.238 118.416 175.325 117.124C175.412 115.832 176.36 114.54 176.36 114.54C176.36 114.54 177.653 112.903 178.084 112.645C178.516 112.387 178.601 112.128 179.206 111.783C179.809 111.439 181.102 110.578 181.102 110.147C181.102 109.716 181.62 108.596 181.62 108.337C181.62 108.079 181.62 107.821 181.448 106.356C181.275 104.892 181.62 105.236 181.103 103.858C180.586 102.48 180.499 100.757 180.154 100.327C179.809 99.8956 179.981 98.7754 179.981 98.4314C179.981 98.0869 180.586 97.2254 180.844 96.881C181.103 96.5362 182.224 95.1576 182.224 95.1576C182.224 95.1576 183.948 93.1767 184.552 92.2295C185.156 91.2815 185.759 90.4204 186.19 90.076C186.621 89.7316 187.656 88.9554 188.259 88.0943C188.863 87.2332 190.07 85.5967 190.157 85.3376C190.243 85.0797 190.932 84.2182 190.932 84.2182C190.932 84.2182 191.881 83.098 192.054 82.4952C192.226 81.8921 193.088 78.5327 192.915 78.7049C192.744 78.8775 191.708 79.0493 191.363 79.1354C191.019 79.2219 191.881 79.566 189.38 79.3941C186.88 79.2215 185.587 79.6525 185.587 79.6525C184.81 79.4799 184.207 80.3413 183.948 79.1354C183.689 77.9299 183.516 77.2406 182.999 76.3791C182.482 75.5177 182.137 75.1732 181.361 74.053C180.586 72.9336 180.671 73.4499 179.981 72.5891C179.291 71.7277 179.119 71.9856 178.688 70.8662C178.257 69.7464 177.912 70.1773 177.394 68.6266C176.877 67.0754 176.532 66.9032 176.273 66.0421C176.014 65.181 175.67 64.9219 175.497 64.1469C175.325 63.3715 173.342 59.4093 173.083 59.1506C172.824 58.8927 172.393 57.5138 172.479 57.7725C172.566 58.0308 173.773 58.8923 173.773 58.8923C173.773 58.8923 174.463 58.6336 174.721 58.6336C174.98 58.6336 176.015 59.5815 176.015 59.9256C176.015 60.2704 177.826 61.9073 178.257 63.1132C178.688 64.3191 179.206 65.1806 179.292 65.5251C179.377 65.8695 180.24 67.248 180.586 67.7651C180.93 68.2821 182.051 69.3154 182.223 69.8325C182.396 70.3495 184.035 72.0721 184.035 73.1919C184.035 74.3117 184.81 75.776 184.897 76.1204C184.983 76.4649 186.535 76.8962 186.535 76.8962L188.605 76.3791C188.605 76.3791 191.708 74.3975 192.054 74.3975C192.398 74.3975 195.158 73.1054 195.158 73.1054C195.158 73.1054 196.279 72.0721 197.055 71.4693C197.831 70.8662 198.693 69.7467 198.866 69.2293C199.038 68.7123 199.383 68.6265 200.073 67.8508C200.763 67.0754 201.711 66.3004 201.108 65.7834C200.504 65.2667 200.159 65.4389 199.297 64.5775C198.435 63.7164 198.521 63.8886 197.917 62.7684C197.313 61.649 198.003 60.3565 196.709 61.649C195.416 62.941 195.934 63.2854 194.64 63.5445C193.347 63.8025 192.829 64.664 192.226 63.8025C191.622 62.941 191.019 63.458 190.673 62.1656C190.329 60.8736 190.07 60.7871 189.984 60.2708C189.898 59.7538 189.984 59.7538 189.294 58.4613C188.604 57.1693 189.121 55.188 189.552 56.3078C189.984 57.4276 190.673 57.5999 191.795 58.3752C192.915 59.1502 193.433 59.7538 194.468 59.8399C195.502 59.9256 196.365 59.8399 196.537 60.0117C196.709 60.1843 196.882 59.926 197.313 60.0978C197.745 60.2704 197.916 59.8399 198.089 60.5284C198.261 61.2176 199.21 61.3037 199.641 61.7343C200.072 62.1648 200.072 61.993 201.194 62.1648C202.315 62.3375 203.867 62.3375 203.867 62.3375L205.505 62.251L207.402 62.4228C207.402 62.4228 208.782 63.1982 209.127 63.1982C209.472 63.1982 209.558 64.1461 210.42 64.6628C211.283 65.1799 211.455 65.2656 211.972 65.8687C212.49 66.4719 212.403 66.7302 213.093 67.333C213.783 67.9365 214.905 67.2473 215.077 66.9893C215.249 66.7306 216.111 66.3 215.939 66.9893C215.767 67.6782 216.801 67.4195 216.542 69.0567C216.284 70.6928 216.111 70.2623 216.542 71.3825C216.973 72.5023 218.871 75.9478 218.957 76.9815C219.044 78.0152 219.561 77.6708 219.647 78.6188C219.733 79.566 220.25 79.9104 220.25 80.5997C220.25 81.2889 220.854 81.4608 220.94 81.9782C221.027 82.4952 221.975 82.0639 222.234 81.9782C222.493 81.8917 223.7 80.7719 223.7 80.7719C223.7 80.7719 224.218 80.6001 224.131 79.7382C224.044 78.8775 224.131 79.0493 224.131 77.7573C224.131 76.4652 223.614 76.4652 223.872 75.1736C224.131 73.8816 224.82 73.1058 224.993 72.503C225.166 71.9003 225.856 70.8666 226.2 70.7801C226.545 70.694 228.442 69.7467 228.874 69.1432C229.305 68.5404 229.995 67.8512 230.685 67.1623C231.374 66.4734 232.581 65.6119 232.84 65.8703C233.099 66.1286 233.013 66.0425 233.444 66.0425C233.875 66.0425 234.651 66.3873 235.255 66.4734C235.858 66.5595 237.066 68.0238 237.324 68.7992C237.583 69.5745 237.411 69.4019 238.359 70.5221C239.308 71.6416 240.17 70.9523 240.17 72.3308C240.17 73.7093 240.17 73.6228 240.601 74.1399C241.032 74.6569 241.55 73.1923 242.067 73.3649C242.584 73.5375 242.67 73.1927 243.101 74.5708C243.532 75.9493 243.791 75.9494 243.878 77.3275C243.964 78.7056 243.791 77.4136 243.791 78.533C243.791 79.6532 243.705 79.7393 243.878 80.7727C244.05 81.8071 244.653 82.1516 244.567 82.3238C244.567 82.3238 245.084 80.8595 244.912 79.8255C244.74 78.7921 244.912 77.3279 245.343 76.8973C245.774 76.466 246.206 76.0358 246.55 77.1557C246.895 78.2751 247.068 77.414 247.844 78.706C248.62 79.9984 249.31 79.7393 249.396 80.3425C249.482 80.9456 249.914 81.0321 250.517 81.5484C251.121 82.0655 251.638 81.4627 252.328 80.9456C253.018 80.4286 254.914 78.5334 255.001 77.758C255.087 76.9831 255.863 77.1549 254.483 75.1744C253.104 73.1931 253.104 72.5038 251.638 71.2979C250.173 70.092 249.31 70.0058 250.431 68.4551C251.552 66.9044 252.07 65.871 252.759 66.302C253.449 66.7325 254.656 66.646 254.656 68.3694C254.656 70.092 254.311 71.9871 255.518 69.9197C256.725 67.8523 257.329 66.6464 256.984 66.9916C256.639 67.336 257.76 66.3023 257.76 66.3023C257.76 66.3023 257.847 65.527 259.313 65.1825C260.778 64.8373 261.209 64.6655 261.727 64.4072C262.244 64.1484 263.71 62.4255 263.969 61.6505C264.228 60.8751 264.917 59.497 264.745 58.8942C264.573 58.2907 263.71 55.3625 263.538 55.4483C263.366 55.5348 263.452 55.5348 262.331 54.3288C261.209 53.1229 260.434 52.2614 260.261 51.7444C260.089 51.2273 259.658 51.1412 260.175 50.4523C260.693 49.7635 260.951 49.8496 261.037 49.2464C261.123 48.6437 261.813 48.1266 260.52 48.5575C259.227 48.9881 260.175 48.7301 259.054 48.644C257.933 48.5575 255.001 49.2468 256.467 47.4381C257.933 45.629 258.363 44.5096 258.622 44.5096C258.882 44.5096 260.175 43.045 260.261 44.4231C260.348 45.8013 260.864 45.4564 260.951 46.3179C261.037 47.1794 262.762 45.3707 262.762 45.3707C262.762 45.3707 263.365 45.5429 263.796 45.9735C264.228 46.404 264.228 47.7826 264.228 47.7826C264.228 47.7826 263.883 47.3516 264.831 48.0409C265.78 48.7305 266.814 48.3853 266.814 49.85C266.814 51.3142 266.814 51.4007 267.418 51.7451C268.022 52.0896 268.625 51.9177 269.143 51.4868C269.66 51.0563 270.522 49.5055 270.522 49.5055C270.522 49.5055 270.608 48.9024 269.229 48.0409C267.849 47.1798 266.987 46.577 266.47 46.1461C265.952 45.7155 266.125 44.4235 266.642 43.9061C267.16 43.389 267.418 43.1307 267.246 42.4418C267.073 41.7522 267.505 41.2355 268.798 41.3216C270.091 41.4081 270.35 41.2359 270.35 41.2359C270.35 41.2359 270.609 41.4077 270.609 40.8911C270.609 40.3744 272.247 37.9622 271.816 37.9622C271.385 37.9622 271.903 37.3594 271.643 36.4118C271.385 35.4638 272.506 34 271.557 33.3107C270.609 32.6214 270.35 32.2766 269.746 31.2433C269.143 30.2092 269.229 30.0374 266.987 29.7787C264.745 29.5203 263.71 30.2957 263.193 29.6068C262.675 28.9176 262.417 30.6401 262.072 28.5727C261.727 26.5053 262.59 25.1268 262.59 25.1268C262.59 25.1268 263.969 24.2657 264.314 23.6625C264.659 23.0594 266.038 22.8011 267.16 23.232C268.281 23.6625 269.919 23.5764 271.299 23.8355C272.679 24.0935 272.592 24.955 273.282 23.8355C273.972 22.7149 273.282 22.1987 273.8 21.5955C274.318 20.9924 274.921 20.0448 275.352 20.6475C275.783 21.2511 276.646 21.8535 277.336 21.0781C278.026 20.3031 278.284 20.217 278.284 20.217L278.628 20.5618C278.628 20.5618 279.404 20.1305 279.404 20.9055C279.404 21.6812 280.181 22.5427 279.75 23.1455C279.318 23.749 278.715 23.6625 278.715 25.1268C278.715 26.5918 278.715 26.3331 279.663 27.5394C280.612 28.745 281.215 27.7112 281.388 29.0037C281.56 30.2957 281.732 30.0378 282.681 30.8989C283.63 31.76 283.457 31.76 284.147 32.277C284.837 32.794 285.182 33.3111 285.182 32.4496C285.182 31.5881 285.268 31.1576 285.182 30.3822C285.095 29.6072 285.872 29.0037 285.354 27.7116C284.837 26.4196 285.268 26.5057 284.233 25.5581C283.198 24.6109 282.508 25.7307 282.164 24.3522C281.819 22.974 283.802 22.3709 284.32 22.1987C284.837 22.0268 285.612 20.9927 285.785 21.682C285.958 22.3709 284.492 24.8692 286.993 22.1987C289.493 19.5285 288.372 20.6483 288.372 20.6483C288.372 20.6483 289.666 20.4761 289.924 20.6483C290.182 20.8209 290.874 19.8729 290.614 19.9594C290.355 20.0459 287.856 18.5809 287.856 18.5809L286.044 17.5476C286.044 17.5476 286.648 17.1166 287.079 17.2031C287.51 17.2892 287.597 16.3417 288.028 16.2552C288.459 16.1691 291.391 16.8587 291.995 17.2031C292.598 17.5476 294.754 17.6337 294.495 17.4615C294.236 17.2889 292.857 16.2555 292.77 15.9107C292.684 15.5663 289.666 14.877 288.718 14.9631C287.769 15.0489 286.907 15.3072 286.131 15.0489C285.355 14.7905 284.234 14.1013 283.63 14.1013C283.027 14.1013 275.439 12.637 275.094 12.7231C274.749 12.8092 274.231 14.4457 273.973 14.1874C273.714 13.929 273.283 13.9287 272.075 13.5842C270.869 13.2398 269.23 12.9811 267.074 12.8092C264.919 12.637 263.453 12.9814 262.85 12.2922C262.246 11.6033 260.953 11.8616 259.487 11.7751C258.021 11.6894 256.296 11.7751 255.52 11.7751C254.744 11.7751 252.934 11.6894 252.502 11.6029C252.071 11.5164 251.554 10.9137 251.037 10.8279C250.519 10.7414 250.605 10.5696 249.571 10.3974C248.536 10.2248 248.622 9.10534 248.277 10.0526C247.932 11.0005 248.104 10.7418 247.587 11.0863C247.07 11.4311 246.552 12.12 246.207 12.12C245.863 12.12 244.483 12.2061 244.224 12.0339C243.965 11.8616 243.534 11.6894 242.672 11.6894C241.809 11.6894 241.809 11.7751 240.688 11.6029C239.567 11.4307 238.705 11.5164 237.67 11.0001C236.636 10.4831 236.636 10.1387 235.773 10.2248C234.912 10.3113 234.912 10.0526 233.704 10.0526C232.497 10.0526 231.031 10.7418 230.255 10.8279C229.479 10.914 227.755 10.7414 227.151 10.4831C226.547 10.2248 226.375 9.622 224.132 9.87995C221.891 10.1387 220.597 10.1387 221.028 9.4494C221.46 8.76052 221.977 8.07126 222.235 7.98515C222.494 7.89904 223.097 7.46849 222.666 7.29627C222.235 7.12366 221.804 6.86572 220.77 6.77922C219.734 6.69311 219.82 7.12366 218.269 6.95144C216.717 6.77922 219.131 6.34867 215.941 6.43478C212.751 6.52128 211.974 6.77922 211.63 6.77922C211.284 6.77922 210.853 6.09034 209.991 7.12366C209.129 8.15737 207.921 8.76014 206.197 8.84625C204.473 8.93274 204.386 8.67403 202.748 9.2768C201.11 9.87957 200.075 9.10458 200.42 10.4827C200.764 11.8609 201.196 12.3779 201.196 12.6362C201.196 12.8946 200.42 14.6175 199.472 13.5838C198.522 12.5501 196.798 8.50143 197.574 11.2581C198.35 14.0144 200.074 14.9624 198.436 15.3929C196.798 15.8235 196.97 15.2207 196.711 15.0481C196.453 14.8759 196.711 13.6699 196.625 12.9807C196.539 12.2918 196.367 11.8609 196.022 11.5164C195.677 11.1716 195.763 10.6549 195.073 10.4827C194.383 10.3105 194.987 9.96568 193.866 9.96568C192.745 9.96568 191.797 9.27642 192.056 10.8272C192.314 12.3775 192.572 11.3442 193.262 12.8085C193.952 14.2727 195.245 13.239 194.297 14.2727C193.349 15.3064 190.848 14.962 190.244 14.5314C189.64 14.1005 189.813 14.7036 188.692 13.9283C187.571 13.1529 187.916 12.5497 186.623 13.1529C185.329 13.7561 184.898 14.8759 184.381 14.4449C183.863 14.014 182.656 15.0477 182.225 14.5314C181.793 14.0144 180.069 14.0144 179.724 14.5314C179.379 15.0481 178.344 14.962 176.879 15.6512C175.413 16.3401 175.844 15.737 174.033 17.2016C172.222 18.6659 171.187 19.8718 170.584 18.9242C169.98 17.977 166.703 16.3401 167.997 16.0814C169.291 15.8231 169.894 15.3064 170.584 15.9092C171.274 16.512 172.395 16.3401 172.567 15.9092C172.739 15.4783 173.516 15.0477 172.481 14.531C171.446 14.014 171.36 14.3584 169.722 13.7557C168.083 13.1525 169.722 13.3251 167.479 12.9803C165.237 12.6359 164.289 12.4636 163.685 12.2914C163.082 12.1192 162.219 12.2914 161.357 12.2053C160.495 12.1192 159.892 11.947 159.115 12.0331C158.339 12.1192 157.908 11.947 156.873 12.7224C155.838 13.4977 155.062 13.8422 154.372 14.4449C153.683 15.0477 151.872 16.254 151.355 16.6849C150.837 17.1155 149.026 18.4936 148.854 19.0107C148.681 19.5277 149.026 19.9583 148.336 20.3027C147.646 20.6472 146.957 20.6472 146.439 20.7333C145.922 20.8194 146.439 19.9579 145.922 20.8194C145.404 21.6809 145.577 24.782 146.008 24.351C146.439 23.9201 146.18 22.5423 148.077 23.8348C149.974 25.1264 151.182 24.9542 151.095 26.1601C151.009 27.366 152.389 27.2799 152.561 27.5386C152.734 27.7966 153.596 27.1938 153.596 27.1938C153.596 27.1938 155.493 25.9879 155.493 25.3851C155.493 24.782 156.7 23.4038 156.7 23.4038C156.7 23.4038 155.837 22.9733 155.837 22.1118C155.837 21.2507 156.097 20.9916 156.269 20.1301C156.441 19.269 155.32 20.1305 157.907 18.4933C160.494 16.8568 160.666 17.977 160.666 17.977C160.666 17.977 161.011 18.3214 160.58 18.8381C160.149 19.3551 159.373 20.7337 159.2 20.9055C159.027 21.0781 159.976 22.4562 160.407 22.4562C160.838 22.4562 161.701 22.1114 162.218 22.1975C162.736 22.284 163.598 21.9396 163.856 22.1118C164.115 22.284 164.719 22.8007 164.287 23.2316C163.856 23.6622 162.907 24.1788 162.218 24.007C161.528 23.8351 160.493 22.6285 161.097 24.3514C161.701 26.0744 161.011 26.5049 160.493 26.4188C159.976 26.3327 158.855 25.4716 159.027 26.7637C159.2 28.0553 157.907 28.9168 157.648 28.9168C157.389 28.9168 156.872 28.8307 156.872 28.8307C156.872 28.8307 156.096 28.7442 155.665 28.7442C155.234 28.7442 154.371 29.1747 154.113 29.5196C153.854 29.864 153.509 29.6061 153.078 29.6061C152.647 29.6061 153.078 29.089 152.216 28.9168C151.354 28.7446 150.836 28.5723 150.319 28.9168C149.801 29.2612 149.026 29.4334 148.68 29.1751C148.336 28.9168 148.853 28.3133 148.163 28.6585C147.473 29.0029 146.956 29.9505 146.697 30.037C146.438 30.1227 147.473 30.037 146.438 30.1227C145.404 30.2092 144.973 30.4679 144.455 30.6398C143.938 30.8124 144.628 31.8457 143.679 32.1901C142.73 32.5346 143.421 31.7596 142.472 32.5346C141.523 33.3103 141.351 33.9992 141.006 34.0853C140.661 34.1718 140.748 34.3436 139.971 34.4297C139.195 34.5159 139.282 34.602 138.85 34.6881C138.419 34.7742 138.937 34.9468 137.988 34.7742C137.039 34.602 136.35 34.9468 136.522 35.2912C136.694 35.6357 139.885 36.5833 137.47 36.4972C135.056 36.411 135.832 36.8416 136.35 37.186C136.867 37.5305 137.125 37.8749 137.384 37.9614C137.643 38.0475 138.074 39.0816 138.074 39.0816C138.074 39.0816 138.764 38.9951 138.333 39.5983C137.902 40.2014 138.505 40.3736 138.074 41.149C137.643 41.9244 137.643 41.4073 137.298 41.5796C136.953 41.7514 136.436 42.3549 135.487 41.8379C134.538 41.3209 133.849 41.0625 132.728 40.9768C131.607 40.8903 132.383 40.7185 131.607 41.3209C130.831 41.9244 130.658 42.6133 130.745 43.3883C130.831 44.1632 130.917 45.1973 130.658 45.7144C130.4 46.231 130.4 46.7481 130.572 47.5235C130.744 48.2984 131.262 48.6437 131.262 48.6437C131.262 48.6437 132.469 48.8155 132.728 48.902C132.986 48.9881 133.504 48.7298 134.193 49.1599C134.883 49.5909 135.573 49.7635 136.004 49.2464C136.435 48.7298 138.16 48.1266 138.678 47.6099C139.195 47.0929 139.54 46.9211 139.281 46.404C139.023 45.887 139.799 44.5949 140.23 44.3366C140.661 44.0783 141.609 43.8196 141.609 43.8196L142.644 42.2692C142.644 42.2692 143.507 41.3212 143.938 41.4077C144.369 41.4938 146.783 42.3557 146.611 41.2359C146.438 40.1157 146.783 39.7713 147.042 40.2018C147.3 40.6324 147.99 40.4601 147.99 40.4601C147.99 40.4601 148.335 40.2883 148.594 40.5466C148.852 40.8046 149.197 41.9252 149.715 42.1831C150.232 42.4418 150.663 42.7001 151.008 42.872C151.353 43.0446 151.698 42.872 152.388 43.4751C153.078 44.0783 153.768 44.4231 153.854 44.6811C153.941 44.9394 154.544 45.5425 154.544 45.5425C154.544 45.5425 155.147 45.7148 154.975 46.0596C154.803 46.404 153.941 47.4381 153.509 47.6099C153.078 47.7822 151.957 47.4373 152.388 47.7822C152.819 48.1266 153.423 48.5575 153.682 48.2988C153.941 48.0405 155.578 46.3175 155.578 46.3175C155.578 46.3175 155.492 46.4036 155.578 45.8866C155.665 45.3703 155.578 44.7672 156.01 45.0255C156.441 45.2842 156.7 45.6287 156.872 45.2842C157.045 44.9394 157.217 45.112 156.786 44.8537C156.354 44.5949 155.32 43.1307 154.802 43.0446C154.285 42.9581 152.991 42.0966 152.991 42.0966C152.991 42.0966 152.733 41.8383 152.129 41.1494C151.525 40.4601 151.353 40.6324 151.18 40.0292C151.008 39.4264 150.49 38.6511 151.439 38.8233C152.388 38.9955 152.991 39.5983 153.853 40.1153C154.716 40.6324 154.544 40.8042 155.319 41.3212C156.095 41.8383 156.182 42.3553 156.785 42.2692C157.389 42.1831 158.079 42.6137 158.079 43.389C158.079 44.1644 158.251 45.0255 158.423 45.1981C158.596 45.3707 159.113 45.7151 159.286 46.0596C159.458 46.404 159.803 47.2655 160.061 47.6099C160.32 47.9544 160.579 48.2131 160.838 48.644C161.096 49.0746 161.182 48.5575 161.441 48.7301C161.7 48.9024 162.045 48.8159 162.045 48.4714C162.045 48.127 162.131 47.5238 162.131 47.5238C162.131 47.5238 163.338 47.1794 162.994 47.0068C162.649 46.8346 161.613 45.8009 161.7 45.4564C161.786 45.112 161.7 44.4231 162.131 44.5092C162.562 44.5949 162.993 45.3703 163.942 44.6811C164.89 43.9918 166.011 43.6474 165.666 44.6811C165.322 45.7148 165.753 45.8866 165.666 47.0068C165.58 48.127 166.012 47.7822 166.615 48.3853C167.219 48.9885 167.65 49.075 168.081 49.2468C168.512 49.4194 169.202 49.3333 169.892 49.4194C170.582 49.5055 171.013 49.1607 171.617 49.3333C172.22 49.5055 173.6 49.2468 173.859 49.4194C174.118 49.5916 175.152 49.075 175.238 49.6777C175.324 50.2809 175.67 49.5916 175.411 50.9698C175.152 52.3479 174.807 53.2955 174.807 53.2955C173.859 55.1046 173.514 55.5355 173.083 55.6216C172.652 55.7077 172.393 55.9661 171.617 55.88C170.841 55.7935 169.893 55.88 168.772 55.6216C167.651 55.3629 165.581 55.88 164.719 55.3629C163.856 54.8463 162.649 55.2768 162.131 54.674C161.614 54.0709 160.752 54.157 160.407 53.8125C160.062 53.4681 159.89 52.5209 159.89 53.899C159.89 55.2776 159.114 55.3633 158.941 56.0526C158.768 56.7414 159.199 56.397 158.251 56.3109C157.302 56.2244 157.044 56.7414 155.664 55.7081C154.284 54.6744 153.595 54.6744 152.905 54.2435C152.215 53.8126 151.525 55.0185 150.836 53.6407C150.146 52.2622 149.197 53.382 149.111 52.2622C149.025 51.142 149.111 51.2289 149.197 50.5396C149.284 49.8503 150.232 49.2476 149.801 48.9892C149.37 48.7309 149.714 48.3 149.111 48.5587C148.507 48.817 147.645 48.9031 146.955 49.1615C146.265 49.4202 148.507 49.1615 145.144 49.4202C141.781 49.6785 140.833 50.0229 140.833 50.0229C140.833 50.0229 140.574 49.8507 140.143 50.1952C139.712 50.5396 139.108 51.0566 138.504 50.7983C137.901 50.5396 137.556 50.6257 137.039 50.7122C136.521 50.7983 136.177 50.2817 135.573 50.7122C134.969 51.1424 134.28 51.315 134.021 51.1424C133.761 50.9679 133.33 50.279 133.33 50.279Z" fill="#ECECEC"/>
<path d="M191.017 106.96C190.758 107.908 189.81 109.286 189.81 109.286L188.085 110.147C188.085 110.147 187.482 110.664 187.137 110.75C186.792 110.836 185.929 111.267 185.929 111.267C185.929 111.267 185.154 111.095 185.412 111.87C185.67 112.645 185.757 113.593 185.67 113.851C185.585 114.11 185.585 114.627 185.585 115.316C185.585 116.005 185.326 116.866 184.895 117.038C184.464 117.211 184.032 117.383 184.119 117.986C184.205 118.589 184.205 120.398 184.205 120.398L185.326 122.121C185.326 122.121 185.671 121.863 186.361 121.863C187.05 121.863 187.741 121.26 187.741 121.26C187.741 121.26 188.517 121.432 188.43 120.485C188.344 119.537 188.776 118.417 188.689 118.159C188.603 117.9 189.465 116.78 189.465 116.522C189.465 116.263 190.328 115.058 190.328 114.627C190.328 114.196 190.931 113.507 191.017 112.991C191.104 112.474 191.19 111.268 191.362 110.924C191.535 110.579 191.621 110.234 191.621 109.89C191.621 109.545 191.621 108.856 191.621 108.856L191.017 106.96Z" fill="#ECECEC"/>
<path d="M258.534 118.589C258.275 118.933 258.103 122.638 257.93 123.068C257.758 123.499 257.413 125.739 257.586 126.255C257.758 126.773 258.017 128.668 257.845 129.271C257.672 129.873 257.931 131.769 257.499 131.683C257.068 131.596 256.896 131.769 256.896 132.027C256.896 132.286 257.499 132.802 257.499 132.802C257.499 132.802 258.535 132.802 258.966 132.716C259.397 132.63 260.259 132.199 260.949 132.199C261.639 132.199 262.07 131.682 262.673 131.682C263.277 131.682 264.571 131.252 264.916 131.423C265.26 131.595 265.777 130.39 266.381 130.648C266.985 130.907 268.279 130.045 268.882 130.045C269.485 130.045 269.744 129.097 270.434 129.27C271.124 129.443 272.418 128.926 273.021 129.183C273.624 129.443 274.573 128.322 275.004 129.183C275.436 130.045 276.729 130.39 276.729 130.82C276.729 131.251 276.642 132.199 276.642 132.199L277.677 132.112C277.677 132.112 279.315 131.079 279.574 131.079C279.833 131.079 280.437 130.218 280.437 130.648C280.437 131.079 279.919 132.027 279.747 132.457C279.574 132.888 279.919 133.405 279.919 133.405C279.919 133.405 280.782 133.836 280.437 134.611C280.092 135.386 280.523 135.214 280.437 135.817C280.35 136.42 280.437 136.161 280.781 136.505C281.126 136.85 281.73 137.454 282.247 137.367C282.765 137.281 282.937 136.765 283.368 137.023C283.799 137.281 284.661 137.109 284.92 137.454C285.18 137.798 283.282 138.659 286.559 137.196C289.835 135.73 290.179 135.386 290.611 134.869C291.043 134.352 291.56 133.836 291.904 133.491C292.25 133.146 291.991 133.233 293.025 132.457C294.06 131.682 294.06 132.027 295.009 130.562C295.958 129.098 296.647 128.581 296.82 128.322C296.993 128.064 297.338 127.978 297.424 126.943C297.51 125.91 298.2 124.963 298.2 124.618C298.2 124.274 298.458 123.757 298.372 123.154C298.286 122.551 298.717 121.69 298.2 120.828C297.682 119.967 298.458 119.623 297.682 119.277C296.906 118.933 296.389 119.106 296.216 118.502C296.043 117.899 295.353 117.985 295.095 116.349C294.836 114.712 293.802 114.539 293.802 114.539C293.802 114.539 292.767 114.109 293.025 113.937C293.285 113.764 293.371 112.558 293.285 112.214C293.198 111.869 293.198 111.094 292.94 110.578C292.681 110.06 292.509 109.372 292.25 108.768C291.991 108.165 291.56 107.993 291.388 107.304C291.215 106.615 290.956 106.356 290.87 106.184C290.783 106.012 290.611 105.151 290.439 106.098C290.267 107.045 289.921 108.854 289.921 108.854C289.921 108.854 289.231 110.319 288.973 110.749C288.714 111.18 288.455 112.3 288.024 112.213C287.593 112.127 287.334 112.645 286.99 112.558C286.644 112.471 286.127 112.644 285.869 112.386C285.61 112.127 284.92 111.438 284.575 111.352C284.23 111.266 283.972 110.577 283.713 110.577C283.453 110.577 283.023 109.974 283.109 109.629C283.195 109.285 283.281 108.51 283.368 108.165C283.454 107.82 283.972 107.045 283.972 107.045C283.972 107.045 283.972 106.528 283.54 106.528C283.109 106.528 283.023 106.528 282.074 106.442C281.126 106.355 280.868 106.269 280.522 106.269C280.178 106.269 280.867 106.097 279.918 106.355C278.97 106.615 278.539 107.303 277.935 107.907C277.332 108.509 277.849 108.337 277.332 108.509C276.814 108.682 276.901 108.078 276.556 109.026C276.211 109.974 276.729 110.232 276.469 110.405C276.21 110.577 274.4 109.802 274.4 109.802C274.4 109.802 274.831 109.715 274.486 109.285C274.142 108.854 273.796 108.251 273.28 108.51C272.761 108.768 272.33 108.941 271.986 109.371C271.641 109.802 271.641 110.146 271.382 110.491C271.124 110.835 270.434 110.835 270.347 111.18C270.261 111.525 270.261 112.386 270.003 112.472C269.744 112.558 269.658 112.128 269.4 112.042C269.141 111.956 269.227 111.266 269.055 111.697C268.882 112.128 268.71 112.041 268.452 112.731C268.192 113.42 268.106 114.023 267.848 114.109C267.589 114.196 267.848 114.281 267.071 114.712C266.296 115.143 266.123 115.143 265.002 115.66C263.882 116.177 264.14 116.177 263.364 116.263C262.589 116.349 262.415 116.608 261.898 116.694C261.38 116.78 261.036 116.865 260.518 117.383C260.001 117.9 259.57 118.071 259.225 118.158C258.881 118.244 258.534 118.589 258.534 118.589Z" fill="#ECECEC"/>
<path d="M263.621 84.5631C263.277 85.0805 262.156 86.6305 261.725 86.717C261.293 86.8027 260.862 87.2341 260.517 87.1476C260.172 87.0611 259.396 87.1476 259.138 88.2674C258.879 89.3872 258.448 89.9903 258.188 89.9039C257.93 89.8177 258.619 91.5403 257.154 90.8518C255.689 90.1626 256.206 91.455 256.033 91.7998C255.861 92.1439 256.292 93.0918 256.378 93.4363C256.465 93.7807 256.723 94.3839 257.068 94.9002C257.413 95.4172 257.671 96.02 258.275 95.8485C258.879 95.6755 260.775 95.8485 260.775 95.8485C260.775 95.8485 261.466 96.1068 261.896 96.1068C262.327 96.1068 262.414 95.9346 262.672 95.9346C262.93 95.9346 263.448 95.0728 263.362 94.987C263.276 94.9002 263.018 94.6422 263.534 94.1252C264.052 93.6081 264.655 93.4363 264.742 92.8331C264.828 92.2304 264.57 92.2304 264.828 91.8851C265.087 91.5407 265.69 91.6276 265.518 91.2824C265.345 90.9379 265.69 91.024 265.345 90.3344C265.001 89.6455 264.569 89.3868 264.914 88.5253C265.259 87.6642 265.605 87.4916 265.518 86.975C265.432 86.4575 265.949 86.2857 265.345 85.6825C264.742 85.0802 264.483 84.9076 264.052 84.7346C263.621 84.5631 263.621 84.5631 263.621 84.5631Z" fill="#ECECEC"/>
<path d="M280.522 93.1775C280.867 93.0914 282.074 92.2299 282.161 93.7807C282.247 95.331 282.332 94.9001 282.851 95.7616C283.368 96.6231 283.712 96.8822 284.316 96.4512C284.919 96.0199 285.609 96.0199 285.781 95.2453C285.954 94.4699 285.954 94.4699 286.471 94.4699C286.99 94.4699 287.161 94.3838 287.421 94.729C287.679 95.0727 287.851 94.7283 288.973 95.3314C290.094 95.9346 291.042 95.7616 291.732 96.3651C292.422 96.9679 292.767 96.8826 293.715 97.2266C294.664 97.5711 294.233 97.0544 295.095 98.002C295.958 98.9492 295.613 99.2075 296.043 99.6385C296.474 100.069 296.82 99.2936 296.647 100.327C296.474 101.361 295.268 100.327 297.079 101.791C298.889 103.256 299.148 103.515 299.751 103.945C300.355 104.376 300.786 104.893 300.269 104.893C299.751 104.893 298.113 104.893 297.941 104.634C297.769 104.376 296.993 104.203 296.475 103.601C295.958 102.998 294.837 102.567 294.579 102.05C294.32 101.533 293.975 101.361 293.544 101.361C293.113 101.361 292.682 101.878 292.078 102.481C291.474 103.084 291.734 102.137 290.957 102.395C290.18 102.653 289.319 102.308 288.887 101.964C288.456 101.619 288.543 101.103 287.853 101.361C287.162 101.619 286.732 101.447 286.991 100.931C287.249 100.413 287.077 99.7242 287.077 99.7242C287.077 99.7242 287.336 98.8627 286.733 98.6909C286.129 98.519 286.129 97.9159 285.525 97.7429C284.921 97.5711 283.973 97.1401 283.973 97.1401C283.973 97.1401 283.887 97.1401 283.628 97.054C283.369 96.9675 283.369 96.9675 282.679 96.7957C281.99 96.6231 281.472 96.7949 281.128 96.3647C280.782 95.9342 280.955 95.331 280.955 95.331C280.955 95.331 282.334 95.5033 280.955 94.4696C279.575 93.4362 279.575 93.4362 279.575 93.4362C279.575 93.4362 279.747 93.3497 279.661 93.1775C279.574 93.0045 280.522 93.1775 280.522 93.1775Z" fill="#ECECEC"/>
<path d="M241.719 86.0273C241.719 86.0273 242.15 86.4587 242.84 86.3722C243.53 86.2857 244.047 87.7503 244.479 88.267C244.909 88.784 245.169 89.0423 246.117 89.6455C247.065 90.2483 246.979 89.1285 248.273 90.9375C249.566 92.7462 248.962 91.6268 249.566 92.7462C250.169 93.8672 250.514 94.4696 250.859 94.7287C251.204 94.987 251.463 95.6755 251.55 95.9342C251.635 96.1925 252.239 96.9675 252.239 97.2263C252.239 97.4846 252.412 98.1738 251.894 98.7766C251.377 99.3798 250.945 99.4659 250.945 99.4659C250.945 99.4659 249.911 98.9488 249.566 98.4322C249.221 97.9155 248.79 97.4846 248.186 96.4513C247.583 95.4172 246.893 94.2974 246.548 93.7807C246.203 93.2633 245.685 92.7462 245.427 92.23C245.168 91.7125 244.478 90.1625 244.134 89.9899C243.789 89.8173 243.702 89.3011 243.098 88.6979C242.495 88.0948 242.581 87.5781 242.323 87.2337C242.064 86.8892 241.461 86.1131 241.461 86.1131L241.719 86.0273Z" fill="#ECECEC"/>
<path d="M74.0044 153.219C73.4006 152.874 72.1073 152.271 71.6763 151.926C71.2453 151.582 69.9519 149.686 69.9519 149.686L69.003 147.877C69.003 147.877 67.8824 146.499 68.141 145.982C68.3996 145.465 68.9172 145.121 68.9172 144.862C68.9172 144.604 69.4344 143.914 69.003 143.656C68.572 143.398 68.572 143.312 68.313 142.537C68.0544 141.762 68.0544 141.072 67.7097 140.9C67.3645 140.728 67.1059 139.608 66.7611 139.522C66.4163 139.435 66.0711 138.832 66.0711 138.832L65.5536 131.855C65.5536 131.855 65.3808 128.668 65.2088 127.978C65.036 127.289 65.4674 125.825 65.036 124.533C64.605 123.241 65.1226 121.69 64.8636 121.173C64.605 120.656 65.036 119.192 64.7774 117.814C64.5188 116.436 65.8122 114.713 64.7774 114.196C63.7427 113.679 64.5188 112.904 63.6565 112.904C62.7945 112.904 62.1907 112.473 61.4146 111.871C60.6384 111.268 59.1723 110.147 58.7413 109.716C58.3103 109.286 56.9304 108.166 56.4994 107.822C56.0684 107.477 55.6371 106.013 55.2923 105.582C54.9475 105.151 54.7751 103.859 54.2575 103.084C53.74 102.309 53.0504 101.017 52.8776 100.758C52.7052 100.5 50.8081 98.2604 50.8081 98.2604L50.9805 96.8822C50.9805 96.8822 52.2738 96.1068 52.1014 95.8485C51.9291 95.5898 52.188 95.3311 51.5839 94.8148C50.9801 94.2974 51.0663 93.3498 51.5839 92.9196C52.1014 92.4883 52.8772 91.1102 52.8772 91.1102L54.1706 88.957C54.1706 88.957 55.2057 87.8364 55.2057 87.0615C55.2057 86.2865 56.6714 85.7698 55.8091 85.0805C54.9467 84.3909 55.3781 83.7881 55.1191 83.2711C54.8601 82.7544 55.0329 82.41 55.8091 81.8929C56.5852 81.3759 57.9648 79.4811 57.9648 79.4811C57.9648 79.4811 58.9995 79.2224 59.2581 79.2224C59.5167 79.2224 59.9481 76.4653 60.7242 78.2744C61.5004 80.0835 61.759 79.1359 61.5004 80.4279C61.2414 81.7199 61.8452 81.462 62.19 81.1176C62.5348 80.7724 62.0172 81.3759 62.7072 79.8248C63.3967 78.2744 63.1385 77.7577 63.5695 78.1887C64.0005 78.6196 64.1729 78.7057 64.949 78.964C65.7248 79.2224 65.9838 79.1359 66.242 79.6529C66.5006 80.17 66.4148 79.4807 67.8805 79.7394C69.3463 79.9981 71.4158 79.2224 71.1572 80.0835C70.8986 80.945 70.381 79.9974 71.5882 80.945C72.7953 81.8929 72.9681 82.0648 73.6576 82.2374C74.3472 82.4096 74.951 82.3235 75.9861 83.3572C77.0209 84.3905 77.2795 84.477 77.5381 84.9933C77.7966 85.5107 78.2276 85.1659 78.659 85.6825C79.09 86.2 79.6938 86.2 80.2971 86.2C80.9005 86.2 80.2971 85.6825 81.2457 86.3722C82.1946 87.0611 82.8842 87.1468 83.3152 88.5253C83.7462 89.9046 84.6085 89.8177 83.9186 91.1963C83.229 92.5748 81.8495 93.1776 82.4528 93.0915C83.0562 93.005 84.1775 92.4879 84.5223 92.5744C84.8671 92.6601 85.0395 92.3161 85.5571 92.5744C86.0746 92.8327 86.1608 92.23 86.0746 92.8327C85.9881 93.4359 85.9881 92.8327 85.9881 93.4359C85.9881 94.0387 85.8157 92.8327 86.8504 93.0915C87.8852 93.3498 87.2814 92.574 88.4886 93.6942C89.6961 94.8144 89.6961 94.47 90.1267 95.0728C90.5581 95.6751 90.989 94.7287 91.248 94.9866C91.507 95.2446 92.2828 95.0724 93.0589 95.245C93.8351 95.4168 93.3175 94.7283 94.525 95.5033C95.7318 96.2783 96.9393 96.02 97.1979 96.7092C97.4565 97.3981 98.1469 97.1398 98.4913 97.5707C98.8357 98.0016 99.0084 97.3981 99.3536 98.0016C99.6984 98.604 100.734 98.4318 100.561 99.0346C100.388 99.6381 100.819 99.2933 100.647 100.154C100.475 101.017 99.8704 102.395 99.3536 102.739C98.836 103.084 98.8364 103.514 98.4913 103.945C98.1465 104.376 98.2327 103.514 97.8013 104.72C97.3703 105.926 97.4565 106.099 97.1117 107.218C96.7669 108.338 97.0255 107.218 96.7669 108.338C96.5083 109.458 96.6807 110.147 96.4221 111.439C96.1636 112.731 96.2498 112.731 96.0774 113.679C95.905 114.627 96.5083 113.249 95.7322 115.229C94.9564 117.211 94.8702 117.124 94.6116 117.986C94.3526 118.848 94.6978 118.158 93.7493 118.675C92.8007 119.193 93.3183 119.02 92.197 119.365C91.0764 119.709 89.6965 120.054 89.2655 120.14C88.8345 120.226 87.1098 120.743 87.6273 121.776C88.1449 122.81 88.1449 122.982 87.6273 124.275C87.1098 125.566 86.334 125.998 86.334 126.6C86.334 127.203 85.9888 127.806 85.903 128.237C85.8164 128.668 86.6788 127.806 85.6444 129.098C84.6097 130.39 84.5235 130.046 84.1783 130.821C83.8335 131.596 84.1783 130.993 83.8335 131.596C83.4887 132.199 82.6264 132.457 82.6264 132.457C82.6264 132.457 82.7122 132.888 82.3674 132.716C82.0222 132.544 82.1088 132.802 80.8151 132.457C79.5217 132.113 79.3493 131.252 79.177 131.854C79.0046 132.457 79.2632 132.802 80.0393 133.405C80.8151 134.008 82.1088 134.18 81.7636 134.784C81.4188 135.387 81.4188 135.387 81.1603 135.731C80.9013 136.076 81.505 135.817 80.9013 136.076C80.2979 136.334 79.9527 137.455 79.6941 137.455C79.4355 137.455 79.2628 137.885 78.918 137.713C78.5732 137.54 77.7112 136.938 77.5384 137.282C77.366 137.626 77.0209 136.851 77.1071 138.057C77.1937 139.263 77.366 139.952 76.9347 140.211C76.5037 140.469 75.4686 140.211 75.4686 140.211L75.2962 139.78L74.6928 139.952C74.6928 139.952 74.4342 140.986 74.8652 141.158C75.2962 141.33 75.21 141.502 75.641 142.019C76.0723 142.536 75.8137 143.484 75.8137 143.484C75.8137 143.484 75.8137 143.743 75.3827 144.173C74.9518 144.604 74.779 144.948 74.6928 145.207C74.6062 145.465 74.089 146.585 74.8652 146.499C75.641 146.412 76.2451 145.982 76.2451 147.36C76.2451 148.738 76.5899 148.394 76.1589 149.342C75.7275 150.289 75.3827 150.375 75.2965 151.236C75.2107 152.098 75.3831 152.184 75.5555 152.701C75.7279 153.218 76.1593 152.959 75.7279 153.218C75.2977 153.476 74.0044 153.219 74.0044 153.219Z" fill="#ECECEC"/>
<path d="M51.7572 83.0988L51.1538 82.2377C51.1538 82.2377 50.8952 81.7203 50.4638 81.6346C50.0324 81.5489 49.0839 80.4286 49.0839 80.4286C49.0839 80.4286 48.6529 80.0842 48.6529 79.4814C48.6529 78.8783 48.3077 77.9311 48.5663 76.8974C48.8253 75.8641 48.9115 74.5716 48.8253 74.2268C48.7387 73.8824 49.2563 73.7963 48.6529 73.4514C48.0491 73.107 46.842 73.0209 46.0658 73.0209C45.2901 73.0209 44.3411 73.2796 44.1687 73.3653C43.9963 73.4514 45.1173 70.7813 45.2897 70.3507C45.4621 69.9202 46.2382 68.0246 46.2382 67.7666C46.2382 67.5079 46.4968 67.4218 45.9796 67.0778C45.4625 66.7329 44.6001 66.5607 44.0825 66.819C43.5654 67.0778 43.6516 66.4746 43.2206 67.5079C42.7896 68.542 42.3582 69.6618 41.8406 69.8341C41.3235 70.0067 40.2887 70.5233 40.2887 70.5233C40.2887 70.5233 38.9954 70.4372 38.564 70.3511C38.133 70.265 36.3221 69.3174 35.9773 68.7146C35.6325 68.1115 35.4601 66.8191 35.4601 66.2167C35.4601 65.6135 36.4083 63.8048 36.3221 63.3739C36.2359 62.9433 37.271 61.2204 37.1845 60.9617C37.0979 60.7033 37.3569 59.8418 37.6155 59.4974C37.874 59.153 39.1678 58.722 39.5126 58.3776C39.8573 58.0328 40.4611 57.6026 41.0645 57.43C41.6679 57.2574 42.1858 57.0855 42.6168 57.0855C43.0478 57.0855 44.1687 56.138 44.3411 57.0855C44.5139 58.0328 45.2901 57.6883 45.7211 57.7744C46.152 57.8609 46.2386 58.2915 46.9282 57.1717C47.6182 56.0515 48.3077 55.707 48.3077 55.9653C48.3077 56.2241 49.4287 55.8796 49.6011 56.138C49.7735 56.3963 50.1186 55.9654 50.722 56.4824C51.3258 56.9994 52.1878 57.0855 52.1016 57.3435C52.0154 57.6018 52.4464 57.6018 52.4464 57.8605C52.4464 58.1189 52.7915 57.2574 52.7915 58.8077C52.7915 60.3585 53.2225 61.3061 53.2225 61.3061C53.2225 61.3061 53.8259 62.5985 54.0845 62.3398C54.3431 62.0815 54.8603 61.3926 54.8603 61.3926C54.8603 61.3926 55.7226 60.8755 55.1192 59.0665C54.5155 57.2578 54.9468 56.7407 54.7744 56.1376C54.6017 55.5344 54.6017 55.1896 55.6364 54.4146C56.6712 53.6396 59.1717 51.9166 59.7754 51.5722C60.3788 51.2278 61.7583 50.2802 61.7583 50.2802C61.7583 50.2802 62.2755 50.0218 62.3621 49.3326C62.4483 48.6437 64.0864 47.4374 64.173 47.093C64.2596 46.7485 65.3805 45.8874 65.3805 45.8874C65.3805 45.8874 66.5873 45.1978 66.5011 44.7676C66.4149 44.337 68.0534 43.5621 68.312 43.5621C68.5706 43.5621 69.9505 43.9922 69.9505 43.2168C69.9505 42.4419 69.9505 42.2693 70.8129 41.5804C71.6749 40.8915 72.7958 39.8574 73.2272 39.8574C73.6581 39.8574 75.1243 39.0828 75.7277 38.9102C76.3314 38.7376 78.2285 37.8761 76.5038 38.9102C74.7791 39.9435 75.9 39.3407 75.5553 40.2022C75.2109 41.0633 74.9515 42.1835 76.59 40.8911C78.2285 39.5991 78.1419 39.3404 78.7457 39.2546C79.3495 39.1685 78.9181 39.513 80.2114 39.082C81.5052 38.6515 81.5914 38.4793 81.5914 38.4793C81.5914 38.4793 82.1951 37.9622 81.85 37.7043C81.5052 37.4456 82.1951 37.1011 80.9014 37.6178C79.6081 38.1348 79.6943 38.2209 78.8319 37.9622C77.9699 37.7039 76.6762 37.7896 77.6248 36.9281C78.5733 36.067 79.7805 35.8083 79.0043 35.4639C78.2285 35.1194 76.2452 35.5504 75.9866 35.6361C75.7277 35.7222 75.1243 35.55 74.6067 35.6361C74.0895 35.7222 74.2619 34.9476 74.6067 34.775C74.9519 34.6024 76.0728 34.0854 77.4524 33.7409C78.8319 33.3965 82.1951 33.3104 82.9709 33.3104C83.7467 33.3104 84.7814 33.483 85.3852 33.052C85.9886 32.6215 87.1961 31.9326 87.3685 31.5874C87.5413 31.243 88.2309 30.7263 88.2309 30.7263C88.2309 30.7263 89.0066 29.9509 88.5756 29.6065C88.1447 29.262 87.7133 28.4867 87.3685 28.6589C87.0237 28.8311 87.2827 29.8652 86.5927 28.745C85.9028 27.6256 85.989 27.453 85.6442 27.1946C85.2994 26.9363 84.9542 27.1081 85.2132 25.9026C85.4718 24.6967 85.3856 24.1796 85.3856 24.1796C85.3856 24.1796 85.6442 23.1463 85.3856 23.0602C85.1266 22.9737 84.9546 22.7158 84.5236 22.9737C84.0922 23.232 81.6779 24.4383 81.1608 24.6967C80.6432 24.955 79.9532 23.663 80.2118 23.0602C80.4708 22.4567 80.298 22.8015 79.9532 21.9404C79.6084 21.0789 78.2289 20.9063 77.7113 20.9063C77.1938 20.9063 75.987 20.1309 75.6418 20.648C75.2971 21.1646 73.4865 22.8011 73.141 22.9737C72.7962 23.1463 72.279 21.5095 72.0204 24.1796C71.7614 26.8506 72.969 27.6256 71.5894 27.7978C70.2099 27.97 69.0023 28.745 69.0023 28.745C69.0023 28.745 67.8818 28.8315 67.8818 29.5204C67.8818 30.21 67.4508 31.8461 66.9329 32.0183C66.4157 32.1909 65.1219 31.9326 64.691 31.4156C64.26 30.8985 64.7772 29.0037 64.7772 29.0037L65.5533 28.2283C65.5533 28.2283 60.0348 27.3672 60.1206 27.0224C60.2072 26.678 58.4825 26.0752 58.3101 25.5582C58.1377 25.0411 58.0511 23.9213 58.2239 23.4908C58.3963 23.0602 60.7244 20.9928 61.9315 20.5622C63.1386 20.1313 65.2081 19.1841 65.8119 19.0115C66.4157 18.8393 67.45 18.9254 67.7952 18.4948C68.14 18.0639 68.2262 17.2889 68.2262 17.2889C68.2262 17.2889 68.0538 16.0826 68.3986 16.2548C68.7434 16.4274 69.3471 16.6858 69.4333 16.9441C69.5199 17.2024 69.5199 17.8056 70.1233 17.1159C70.7271 16.427 71.5032 16.1683 72.1928 15.8243C72.8828 15.4795 73.9171 15.5659 74.5213 15.2215C75.1246 14.8771 76.1594 14.5322 76.2456 13.6708C76.3318 12.8097 75.987 13.068 75.5556 12.9815C75.1247 12.8958 75.728 13.068 74.2623 13.7569C72.7962 14.4457 73.2276 13.9291 72.1928 14.4457C71.1581 14.9628 71.0715 15.0489 70.9857 14.6184C70.8991 14.1874 71.1581 13.4985 71.1581 13.4985C71.1581 13.4985 71.2446 13.412 70.6409 13.2402C70.0371 13.068 70.0371 13.3263 69.9509 12.5513C69.8647 11.776 70.3819 10.6561 69.5199 11.0006C68.6576 11.345 67.8818 10.7423 67.278 12.4648C66.6743 14.1874 64.6048 15.9969 64.0872 15.5659C63.57 15.1354 63.4838 15.0489 63.0524 15.0489C62.6211 15.0489 62.0177 14.5322 61.2415 14.4461C60.4654 14.36 58.1369 14.36 57.5339 14.4461C56.9301 14.5326 56.2406 14.1017 55.7226 14.6187C55.2054 15.1354 54.4297 15.8247 54.4297 16.0834C54.4297 16.3417 53.6535 15.1354 53.3949 15.2219C53.1363 15.308 52.446 14.8774 51.6706 14.8774C50.8944 14.8774 50.3769 14.4465 50.1186 14.4465C49.8601 14.4465 50.3769 13.7573 50.1186 13.6711C49.8601 13.5854 44.2546 13.4128 44.2546 13.4128C44.2546 13.4128 42.444 12.7239 41.7544 12.81C41.0645 12.8962 39.1678 12.9819 37.7013 13.2406C36.2351 13.4989 34.0794 14.3604 33.3899 14.4465C32.6999 14.533 31.148 14.533 30.8894 14.1021C30.6304 13.6715 30.9756 13.7576 30.6304 13.6715C30.2856 13.5858 30.5446 13.4132 29.7684 12.8104C28.9923 12.2073 30.1136 11.6906 28.5613 11.6906C27.0094 11.6906 26.0608 11.6041 24.6813 11.6906C23.3013 11.7767 20.4561 12.4656 20.1113 12.3795C19.7665 12.2934 17.007 12.8104 16.5757 12.5521C16.1447 12.2934 13.9886 13.4993 13.558 13.4132C13.127 13.3271 11.4885 13.4997 11.0575 13.758C10.6261 14.0167 8.55664 14.533 9.2466 14.9639C9.93618 15.3945 9.84998 15.825 9.93618 16.0838C10.0228 16.3421 9.2466 16.9449 9.2466 16.9449C9.2466 16.9449 9.07382 16.9449 8.12565 16.6004C7.1771 16.2556 6.14235 16.0838 5.71098 16.3421C5.27999 16.6004 4.50384 17.1178 4.67623 17.4623C4.84901 17.8067 6.05577 18.5821 6.22855 18.3234C6.40094 18.0651 6.83231 17.5484 7.34949 17.6345C7.86706 17.721 8.64322 17.2901 7.95326 18.1515C7.2633 19.0126 6.65953 19.4436 6.22855 19.5301C5.79756 19.6158 4.76281 19.7019 3.81426 19.7884C2.86532 19.8749 2.95152 19.444 2.08955 20.3054C1.22758 21.1665 0.882403 20.6499 0.710009 21.5975C0.537615 22.5447 0.36522 22.5447 0.710009 22.8034C1.0548 23.0617 0.020048 23.1478 0.796206 23.4062C1.57198 23.6649 2.52053 23.9232 2.43434 24.1812C2.34776 24.4399 3.29669 23.8371 2.77913 24.5256C2.26156 25.2153 1.91715 25.8176 2.95152 25.1288C3.98627 24.4399 4.58965 24.9562 5.45201 24.5256C6.31436 24.0951 7.17672 24.0089 7.6939 23.6645C8.21147 23.3197 8.47006 22.8034 9.24622 22.5443C10.0224 22.286 9.50481 22.6308 9.59101 23.0613C9.6772 23.4919 9.59101 23.578 10.1086 23.2332C10.6258 22.8887 10.6258 23.1475 11.3157 22.7165C12.0053 22.286 12.7815 21.855 13.299 22.1134C13.8162 22.3721 13.9886 22.3721 14.3338 22.3721C14.6786 22.3721 13.9028 22.2856 14.6786 22.3721C15.4547 22.4578 14.3338 22.1134 16.9205 22.7165C19.5075 23.3193 20.1975 22.8887 20.3695 23.8363C20.5423 24.7839 20.8871 23.7498 21.318 24.353C21.749 24.9558 22.008 24.4395 22.2666 25.4728C22.5252 26.5069 22.2666 29.3493 22.0942 29.6937C21.9218 30.0382 21.8356 30.0382 21.9218 30.8136C22.008 31.5885 23.0428 35.2932 22.698 35.5511C22.3532 35.8091 21.577 35.8956 21.577 35.8956L21.146 37.4459C21.146 37.4459 20.4565 38.738 19.8527 39.4272C19.2489 40.1161 18.4732 40.978 18.0418 41.5804C17.6108 42.1835 17.2656 43.2176 16.6622 43.8204C16.0589 44.4232 15.5413 44.1648 15.7137 45.4569C15.8861 46.7489 15.7137 48.127 15.8861 49.075C16.0589 50.0226 16.4898 51.3146 16.8346 51.8317C17.1794 52.3483 17.4384 52.3483 18.0418 52.7789C18.6455 53.2094 19.4217 53.7269 19.3351 54.1574C19.2489 54.588 19.4213 57.2589 19.4213 57.2589C19.4213 57.2589 19.9389 58.12 20.0247 59.0676C20.1113 60.0156 20.7147 60.9628 20.7147 60.9628L21.2322 62.083C21.2322 62.083 21.4908 62.1695 21.836 62.858C22.1808 63.5473 22.1808 63.5472 22.267 63.8913C22.3536 64.2365 22.3536 64.15 22.3536 64.2365C22.3536 64.3222 22.267 62.7719 22.0946 62.3409C21.9222 61.9104 21.9222 61.3937 21.7498 60.8767C21.5774 60.3596 21.836 59.7565 21.3188 58.9815C20.8016 58.2065 20.8016 58.12 20.543 57.3446C20.2844 56.5696 19.9393 55.7082 20.2844 55.5356C20.6292 55.3637 20.8878 54.2439 21.5778 55.5356C22.2674 56.8276 22.3539 56.4835 22.4401 57.5172C22.526 58.5509 22.7849 58.8958 23.0435 59.3259C23.3021 59.7565 23.9055 61.2215 24.2507 61.8239C24.5955 62.4271 24.2507 61.4795 25.0264 62.6854C25.8026 63.8913 25.8892 64.1496 26.3202 65.0972C26.7512 66.0448 27.0101 66.0448 27.2687 66.7337C27.5273 67.4234 27.3549 67.2507 27.1821 68.0257C27.0097 68.8007 27.3545 69.6626 27.3545 69.6626C27.3545 69.6626 28.5617 70.0931 28.6479 70.3515C28.7341 70.6098 29.9412 71.0404 30.114 71.3852C30.2864 71.73 31.4073 72.1602 31.4073 72.1602C31.4073 72.1602 32.3559 72.7633 32.7003 72.9355C33.0455 73.1078 34.0806 73.2804 34.0806 73.2804C34.0806 73.2804 34.7702 73.453 35.0288 73.5387C35.2874 73.6248 36.0635 73.6248 36.0635 73.6248C36.0635 73.6248 36.7535 73.1082 37.0121 73.2804C37.2707 73.4522 37.8744 72.9355 38.133 73.3661C38.3916 73.797 38.9092 73.797 39.1678 74.1418C39.4264 74.4863 39.685 74.4863 40.1163 74.9168C40.5477 75.3474 40.9787 75.2613 41.4097 75.6057C41.8406 75.9502 42.1854 75.9502 42.703 75.9502C43.2202 75.9502 43.2202 75.9502 43.5654 76.0367C43.9098 76.1228 44.0825 75.7779 44.4273 76.2093C44.7721 76.6398 45.0307 76.8981 45.2893 77.3287C45.5479 77.7592 46.1517 77.7592 46.2379 78.4485C46.3241 79.1374 46.4964 79.052 46.4964 79.6544C46.4964 80.2576 46.8412 80.5159 47.1002 80.6885C47.3584 80.8604 48.307 81.7215 48.307 81.7215L49.6003 81.9802L50.6351 82.7555L51.7572 83.0988Z" fill="#ECECEC"/>
<path d="M79.3935 3.07309L84.5673 2.42707C84.5673 2.42707 86.3778 2.42707 87.2834 1.78106C88.1887 1.13504 87.2834 1.13504 89.9996 0.61838C92.7158 0.101337 91.94 -0.156993 93.3628 0.101337C94.7853 0.36005 95.1733 0.36005 96.7257 0.61838C98.2776 0.87671 98.6657 0.489406 100.088 0.87671C101.511 1.2644 102.158 1.13504 103.322 1.13504C104.486 1.13504 105.133 1.13504 106.943 1.13504C108.754 1.13504 110.436 0.101337 111.082 0.747354C111.729 1.39337 112.117 1.13504 114.316 1.39337C116.515 1.6517 117.42 1.13466 118.326 1.39337C119.231 1.6517 120.783 1.2644 122.594 1.39337C124.405 1.52234 125.31 1.2644 125.957 1.2644C126.604 1.2644 127.25 0.359667 128.155 1.13504C129.061 1.91041 130.225 0.87671 130.354 1.91041C130.484 2.94412 132.165 2.16874 130.484 2.94412C128.802 3.71949 129.061 3.59014 127.896 4.62384C126.733 5.65754 128.673 6.56189 126.215 7.46662C123.758 8.37097 123.369 6.94958 122.723 8.50032C122.076 10.0507 122.723 10.4384 122.594 11.2137C122.464 11.9887 122.206 12.1181 121.429 12.7641C120.654 13.4101 120.654 12.7641 118.843 13.1518C117.032 13.5395 115.738 13.9272 114.963 13.9272C114.187 13.9272 112.505 14.5732 111.988 14.8315C111.47 15.0902 112.893 15.4775 110.177 16.2529C107.46 17.0283 106.813 16.8993 106.038 17.9326C105.261 18.9667 105.52 19.0961 105.003 19.7421C104.485 20.3881 102.933 22.9726 102.157 22.3265C101.381 21.6805 100.993 21.8095 100.346 21.1635C99.6997 20.5175 99.3116 19.6131 98.9235 19.0961C98.5354 18.579 98.4059 17.287 98.2768 16.5116C98.1477 15.7363 96.9831 13.9276 98.2768 14.1859C99.5702 14.4442 100.346 14.3152 100.734 14.0569C101.122 13.7982 101.511 12.8939 101.511 12.8939C101.511 12.8939 101.381 11.4725 100.993 10.6971C100.605 9.92171 100.864 9.2757 100.217 8.50071C99.5705 7.72533 99.5706 7.85469 98.6649 7.07932C97.7596 6.30394 98.0182 5.91626 96.5954 5.78728C95.1726 5.65831 94.7845 5.27024 94.2669 5.3996C93.7498 5.52857 92.0683 4.49486 93.8789 4.36589C95.6898 4.23654 97.3712 4.49486 97.3712 4.49486C97.3712 4.49486 99.6993 3.46116 98.9235 3.33219C98.1477 3.20283 100.087 2.03977 98.2768 2.42746C96.4659 2.81514 94.3968 3.33219 93.8792 3.46116C93.3621 3.59014 92.0683 3.71949 90.775 4.10718C89.482 4.49487 87.9293 4.36589 87.1536 5.27024C86.3774 6.17459 87.1536 6.30394 86.3774 6.17459C85.6016 6.04561 87.0241 5.27024 85.2135 6.17459C83.4026 7.07932 83.9202 6.94996 83.0149 6.69163C82.1093 6.4333 81.4626 6.04561 81.4626 6.04561C81.4626 6.04561 82.6272 5.91626 80.9454 5.78728C79.264 5.65831 79.264 5.65831 78.6173 4.88255C77.9707 4.10718 78.3588 4.10718 78.7465 3.84885C79.1349 3.59014 79.3935 3.07309 79.3935 3.07309Z" fill="#ECECEC"/>
<path d="M76.5478 8.88763C75.9012 9.53365 74.3489 10.4384 74.7373 10.8261C75.1254 11.2138 75.384 12.6351 76.1601 12.2475C76.9359 11.8598 76.0307 10.5677 79.0054 11.6014C81.9806 12.6351 81.7216 11.4725 82.3683 13.0228C83.0149 14.5732 83.5321 15.7359 83.144 16.1239C82.7563 16.5116 82.6269 16.8993 81.3331 17.287C80.0398 17.6747 79.5222 18.1917 80.4279 18.8374C81.3331 19.4834 83.0149 20.1294 83.7907 20.5175C84.5669 20.9048 86.895 21.0345 85.7307 19.7425C84.5665 18.4504 85.9893 18.0624 85.9893 18.0624C85.9893 18.0624 88.1883 19.7425 87.4125 17.804C86.6364 15.866 86.1188 15.866 86.6364 15.866C87.1539 15.866 88.1883 16.512 88.1883 16.512L88.7059 15.4783L88.1883 13.7986L86.5069 12.1189C86.5069 12.1189 87.9293 10.8268 85.9893 10.5685C84.0493 10.3102 84.1784 10.3102 83.1437 9.66377C82.1089 9.01776 81.9798 8.75943 80.0394 9.14711C78.0994 9.5348 77.4527 9.79313 77.4527 9.79313L76.5478 8.88763Z" fill="#ECECEC"/>
<path d="M47.7048 10.4384C48.481 9.663 50.5505 7.85431 51.3266 8.37097C52.1024 8.88763 53.2663 7.98328 54.1719 8.75865C55.0772 9.53403 56.1119 10.4384 56.8881 10.6967C57.6642 10.955 58.5695 10.0507 59.3457 10.4384C60.1214 10.8261 62.8376 8.50032 62.3204 10.3094C61.8029 12.1185 62.9671 12.6351 61.5443 12.7645C60.1214 12.8939 58.5695 13.9276 57.9225 13.5399C57.2758 13.1522 56.7582 12.7645 55.7235 13.2815C54.6887 13.7982 55.2063 13.7982 54.0421 13.5399C52.8782 13.2815 52.6196 13.7982 52.361 13.4105C52.102 13.0232 51.3263 13.1522 51.4554 11.9891C51.5845 10.8264 51.9726 10.9554 51.1964 10.9554C50.4206 10.9554 49.7739 11.0848 49.2564 10.6971C48.7392 10.3094 47.7048 10.4384 47.7048 10.4384Z" fill="#ECECEC"/>
<ellipse cx="214.218" cy="32.1795" rx="8.33333" ry="8.33333" fill="#6A53AA"/>
<path d="M213.958 34.3641C213.958 34.3641 214.343 32.7003 212.558 32.484C212.558 32.4808 212.132 34.3418 213.958 34.3641Z" fill="white"/>
<path d="M214.693 34.364C214.693 34.364 214.308 32.7002 216.092 32.4839C216.089 32.4807 216.519 34.3417 214.693 34.364Z" fill="white"/>
<path d="M214.2 27.1809C211.422 27.2477 209.186 29.57 209.218 32.3472C209.243 34.6281 210.767 36.5496 212.848 37.1763C213.026 36.5782 212.784 35.9388 212.262 35.5984C211.903 35.3661 211.597 35.1148 211.352 34.8731L211.391 35.1816C211.407 35.3121 211.314 35.4266 211.184 35.4425C211.053 35.4584 210.939 35.3661 210.923 35.2357L210.793 34.1827C210.723 34.0618 210.672 33.9505 210.646 33.8551C210.599 33.6865 210.64 33.5751 210.71 33.5019L210.649 33.0152L210.465 30.747C210.459 30.6707 210.548 30.6198 210.608 30.6675C210.818 30.8265 210.987 31.0333 211.085 31.2783C211.352 31.9431 211.378 32.7035 211.378 32.7035L211.114 32.958L211.197 33.6292C211.254 33.6197 211.305 33.6387 211.337 33.7215C211.356 33.7692 211.349 33.8328 211.333 33.8901C211.814 34.6313 212.669 35.0798 213.252 35.3152C213.325 35.3439 213.404 35.3057 213.427 35.2325C213.446 35.1721 213.417 35.1085 213.363 35.0798C212.472 34.6186 211.842 33.5306 211.842 32.2645C211.842 30.5784 212.949 29.2137 214.314 29.2137C215.679 29.2137 216.786 30.5784 216.786 32.2645C216.786 33.5338 216.159 34.6186 215.265 35.0798C215.211 35.1085 215.183 35.1721 215.202 35.2325C215.224 35.3057 215.304 35.3471 215.377 35.3184C215.946 35.0894 216.786 34.6536 217.273 33.9346C217.25 33.8614 217.235 33.7819 217.257 33.7215C217.285 33.6419 217.333 33.6197 217.387 33.626L217.476 32.9611L217.454 32.9389C217.241 32.7098 217.142 32.3949 217.184 32.0863L217.416 31.0333C217.429 30.9729 217.483 30.9252 217.546 30.9315C217.619 30.9379 217.67 31.0015 217.658 31.0747L217.489 32.0863C217.483 32.1404 217.518 32.1881 217.572 32.1945C217.626 32.2008 217.674 32.1658 217.68 32.1118L217.829 31.0938C217.839 31.027 217.899 30.9824 217.966 30.992H217.976H217.985C218.052 31.0015 218.097 31.0619 218.09 31.1256L217.969 32.1467C217.963 32.2008 217.998 32.2485 218.052 32.2549C218.106 32.2613 218.154 32.2263 218.16 32.1722L218.262 31.1574C218.268 31.0969 218.313 31.046 218.373 31.0429C218.45 31.0365 218.51 31.0969 218.507 31.1701L218.456 32.2549C218.415 32.5667 218.237 32.8403 217.973 33.0089L217.947 33.0248L217.887 33.467C217.979 33.5369 218.049 33.6546 217.995 33.8551C217.96 33.9823 217.887 34.1318 217.775 34.2973L217.648 35.2421C217.629 35.3757 217.505 35.4679 217.371 35.4425C217.247 35.4202 217.168 35.293 217.184 35.1657L217.212 34.9462C216.977 35.1689 216.691 35.398 216.36 35.6111C215.841 35.9483 215.612 36.5877 215.787 37.1794C217.89 36.5464 219.423 34.5963 219.423 32.2899C219.433 29.4268 217.079 27.114 214.2 27.1809Z" fill="white"/>
<ellipse cx="267.551" cy="38.3334" rx="8.33333" ry="8.33333" fill="#6A53AA"/>
<path d="M267.291 40.518C267.291 40.518 267.676 38.8542 265.891 38.6379C265.891 38.6347 265.465 40.4957 267.291 40.518Z" fill="white"/>
<path d="M268.026 40.5179C268.026 40.5179 267.641 38.8541 269.426 38.6378C269.422 38.6346 269.852 40.4956 268.026 40.5179Z" fill="white"/>
<path d="M267.533 33.3348C264.756 33.4016 262.519 35.7239 262.551 38.5011C262.577 40.782 264.1 42.7035 266.181 43.3302C266.359 42.7321 266.117 42.0927 265.596 41.7523C265.236 41.52 264.931 41.2687 264.686 41.027L264.724 41.3355C264.74 41.466 264.648 41.5805 264.517 41.5964C264.387 41.6123 264.272 41.52 264.256 41.3896L264.126 40.3366C264.056 40.2157 264.005 40.1044 263.979 40.009C263.932 39.8404 263.973 39.729 264.043 39.6558L263.983 39.1691L263.798 36.9009C263.792 36.8246 263.881 36.7737 263.941 36.8214C264.151 36.9804 264.32 37.1872 264.418 37.4322C264.686 38.097 264.711 38.8574 264.711 38.8574L264.447 39.1119L264.53 39.7831C264.587 39.7736 264.638 39.7926 264.67 39.8754C264.689 39.9231 264.683 39.9867 264.667 40.044C265.147 40.7852 266.003 41.2337 266.585 41.4691C266.658 41.4978 266.738 41.4596 266.76 41.3864C266.779 41.326 266.75 41.2624 266.696 41.2337C265.806 40.7725 265.176 39.6845 265.176 38.4184C265.176 36.7323 266.283 35.3676 267.647 35.3676C269.012 35.3676 270.119 36.7323 270.119 38.4184C270.119 39.6877 269.493 40.7725 268.599 41.2337C268.545 41.2624 268.516 41.326 268.535 41.3864C268.557 41.4596 268.637 41.501 268.71 41.4723C269.279 41.2433 270.119 40.8075 270.606 40.0885C270.584 40.0153 270.568 39.9358 270.59 39.8754C270.619 39.7958 270.666 39.7736 270.72 39.7799L270.81 39.115L270.787 39.0928C270.574 38.8637 270.476 38.5488 270.517 38.2402L270.749 37.1872C270.762 37.1268 270.816 37.0791 270.88 37.0854C270.953 37.0918 271.004 37.1554 270.991 37.2286L270.822 38.2402C270.816 38.2943 270.851 38.342 270.905 38.3484C270.959 38.3547 271.007 38.3197 271.013 38.2657L271.163 37.2477C271.172 37.1809 271.233 37.1363 271.299 37.1459H271.309H271.319C271.385 37.1554 271.43 37.2158 271.424 37.2795L271.303 38.3006C271.296 38.3547 271.331 38.4024 271.385 38.4088C271.439 38.4152 271.487 38.3802 271.494 38.3261L271.595 37.3113C271.602 37.2508 271.646 37.1999 271.707 37.1968C271.783 37.1904 271.843 37.2508 271.84 37.324L271.789 38.4088C271.748 38.7206 271.57 38.9942 271.306 39.1628L271.28 39.1787L271.22 39.6209C271.312 39.6908 271.382 39.8085 271.328 40.009C271.293 40.1362 271.22 40.2857 271.109 40.4512L270.981 41.396C270.962 41.5296 270.838 41.6218 270.705 41.5964C270.581 41.5741 270.501 41.4469 270.517 41.3196L270.546 41.1001C270.31 41.3228 270.024 41.5519 269.693 41.765C269.174 42.1022 268.945 42.7416 269.12 43.3333C271.223 42.7003 272.756 40.7502 272.756 38.4438C272.766 35.5807 270.412 33.2679 267.533 33.3348Z" fill="white"/>
<ellipse cx="230.884" cy="70.641" rx="8.33333" ry="8.33333" fill="#6A53AA"/>
<path d="M230.625 72.8256C230.625 72.8256 231.009 71.1618 229.225 70.9455C229.225 70.9423 228.799 72.8033 230.625 72.8256Z" fill="white"/>
<path d="M231.359 72.8255C231.359 72.8255 230.974 71.1617 232.759 70.9454C232.756 70.9422 233.185 72.8032 231.359 72.8255Z" fill="white"/>
<path d="M230.866 65.6424C228.089 65.7092 225.853 68.0315 225.885 70.8087C225.91 73.0896 227.434 75.0111 229.514 75.6378C229.693 75.0397 229.451 74.4003 228.929 74.0599C228.57 73.8277 228.264 73.5763 228.019 73.3346L228.057 73.6432C228.073 73.7736 227.981 73.8881 227.851 73.904C227.72 73.9199 227.606 73.8277 227.59 73.6972L227.459 72.6442C227.389 72.5234 227.338 72.412 227.313 72.3166C227.265 72.148 227.307 72.0366 227.377 71.9635L227.316 71.4767L227.132 69.2085C227.125 69.1322 227.214 69.0813 227.275 69.129C227.485 69.2881 227.653 69.4948 227.752 69.7398C228.019 70.4047 228.045 71.165 228.045 71.165L227.781 71.4195L227.863 72.0907C227.921 72.0812 227.971 72.1003 228.003 72.183C228.022 72.2307 228.016 72.2943 228 72.3516C228.48 73.0928 229.336 73.5414 229.918 73.7768C229.992 73.8054 230.071 73.7672 230.093 73.6941C230.112 73.6336 230.084 73.57 230.03 73.5414C229.139 73.0801 228.509 71.9921 228.509 70.726C228.509 69.0399 229.616 67.6752 230.981 67.6752C232.346 67.6752 233.453 69.0399 233.453 70.726C233.453 71.9953 232.826 73.0801 231.932 73.5414C231.878 73.57 231.849 73.6336 231.868 73.6941C231.891 73.7672 231.97 73.8086 232.043 73.7799C232.613 73.5509 233.453 73.1151 233.939 72.3961C233.917 72.3229 233.901 72.2434 233.924 72.183C233.952 72.1034 234 72.0812 234.054 72.0875L234.143 71.4227L234.121 71.4004C233.908 71.1713 233.809 70.8564 233.85 70.5478L234.083 69.4948C234.095 69.4344 234.149 69.3867 234.213 69.393C234.286 69.3994 234.337 69.463 234.324 69.5362L234.156 70.5478C234.149 70.6019 234.184 70.6496 234.239 70.656C234.293 70.6623 234.34 70.6274 234.347 70.5733L234.496 69.5553C234.506 69.4885 234.566 69.4439 234.633 69.4535H234.643H234.652C234.719 69.463 234.763 69.5235 234.757 69.5871L234.636 70.6083C234.63 70.6623 234.665 70.7101 234.719 70.7164C234.773 70.7228 234.821 70.6878 234.827 70.6337L234.929 69.6189C234.935 69.5585 234.98 69.5076 235.04 69.5044C235.117 69.498 235.177 69.5585 235.174 69.6316L235.123 70.7164C235.082 71.0282 234.903 71.3018 234.639 71.4704L234.614 71.4863L234.553 71.9285C234.646 71.9985 234.716 72.1162 234.662 72.3166C234.627 72.4438 234.553 72.5933 234.442 72.7588L234.315 73.7036C234.296 73.8372 234.172 73.9295 234.038 73.904C233.914 73.8817 233.834 73.7545 233.85 73.6272L233.879 73.4077C233.644 73.6304 233.357 73.8595 233.026 74.0726C232.508 74.4098 232.279 75.0493 232.454 75.641C234.557 75.0079 236.09 73.0578 236.09 70.7514C236.1 67.8883 233.745 65.5756 230.866 65.6424Z" fill="white"/>
<ellipse cx="169.346" cy="74.7436" rx="8.33333" ry="8.33333" fill="#6A53AA"/>
<path d="M169.086 76.9282C169.086 76.9282 169.471 75.2644 167.686 75.0481C167.686 75.0449 167.26 76.9059 169.086 76.9282Z" fill="white"/>
<path d="M169.821 76.9281C169.821 76.9281 169.436 75.2643 171.221 75.0479C171.218 75.0448 171.647 76.9058 169.821 76.9281Z" fill="white"/>
<path d="M169.328 69.7449C166.551 69.8117 164.314 72.134 164.346 74.9113C164.372 77.1922 165.896 79.1136 167.976 79.7403C168.154 79.1423 167.912 78.5029 167.391 78.1625C167.031 77.9302 166.726 77.6789 166.481 77.4371L166.519 77.7457C166.535 77.8762 166.443 77.9907 166.312 78.0066C166.182 78.0225 166.067 77.9302 166.051 77.7998L165.921 76.7468C165.851 76.6259 165.8 76.5146 165.775 76.4192C165.727 76.2505 165.768 76.1392 165.838 76.066L165.778 75.5793L165.593 73.3111C165.587 73.2347 165.676 73.1838 165.736 73.2316C165.946 73.3906 166.115 73.5974 166.214 73.8424C166.481 74.5072 166.506 75.2675 166.506 75.2675L166.242 75.522L166.325 76.1933C166.382 76.1837 166.433 76.2028 166.465 76.2855C166.484 76.3333 166.478 76.3969 166.462 76.4541C166.942 77.1954 167.798 77.6439 168.38 77.8793C168.453 77.908 168.533 77.8698 168.555 77.7966C168.574 77.7362 168.545 77.6726 168.491 77.6439C167.601 77.1826 166.971 76.0947 166.971 74.8285C166.971 73.1425 168.078 71.7777 169.443 71.7777C170.807 71.7777 171.914 73.1425 171.914 74.8285C171.914 76.0978 171.288 77.1826 170.394 77.6439C170.34 77.6726 170.311 77.7362 170.33 77.7966C170.352 77.8698 170.432 77.9111 170.505 77.8825C171.075 77.6535 171.914 77.2176 172.401 76.4987C172.379 76.4255 172.363 76.346 172.385 76.2855C172.414 76.206 172.462 76.1837 172.516 76.1901L172.605 75.5252L172.582 75.503C172.369 75.2739 172.271 74.959 172.312 74.6504L172.544 73.5974C172.557 73.537 172.611 73.4892 172.675 73.4956C172.748 73.502 172.799 73.5656 172.786 73.6388L172.617 74.6504C172.611 74.7045 172.646 74.7522 172.7 74.7586C172.754 74.7649 172.802 74.7299 172.808 74.6758L172.958 73.6578C172.967 73.591 173.028 73.5465 173.095 73.556H173.104H173.114C173.181 73.5656 173.225 73.626 173.219 73.6897L173.098 74.7108C173.091 74.7649 173.126 74.8126 173.181 74.819C173.235 74.8254 173.282 74.7904 173.289 74.7363L173.391 73.7215C173.397 73.661 173.441 73.6101 173.502 73.6069C173.578 73.6006 173.639 73.661 173.635 73.7342L173.585 74.819C173.543 75.1308 173.365 75.4043 173.101 75.5729L173.076 75.5889L173.015 76.031C173.107 76.101 173.177 76.2187 173.123 76.4192C173.088 76.5464 173.015 76.6959 172.904 76.8613L172.777 77.8062C172.757 77.9398 172.633 78.032 172.5 78.0066C172.376 77.9843 172.296 77.8571 172.312 77.7298L172.341 77.5103C172.105 77.733 171.819 77.962 171.488 78.1752C170.97 78.5124 170.741 79.1518 170.916 79.7435C173.018 79.1105 174.552 77.1604 174.552 74.854C174.561 71.9909 172.207 69.6781 169.328 69.7449Z" fill="white"/>
<ellipse cx="170.372" cy="37.3077" rx="8.33333" ry="8.33333" fill="#6A53AA"/>
<path d="M170.112 39.4924C170.112 39.4924 170.497 37.8286 168.712 37.6122C168.712 37.6091 168.286 39.4701 170.112 39.4924Z" fill="white"/>
<path d="M170.847 39.4922C170.847 39.4922 170.462 37.8284 172.246 37.6121C172.243 37.6089 172.673 39.47 170.847 39.4922Z" fill="white"/>
<path d="M170.354 32.3091C167.577 32.3759 165.34 34.6982 165.372 37.4754C165.397 39.7564 166.921 41.6778 169.002 42.3045C169.18 41.7065 168.938 41.067 168.416 40.7266C168.057 40.4944 167.751 40.2431 167.507 40.0013L167.545 40.3099C167.561 40.4403 167.468 40.5549 167.338 40.5708C167.207 40.5867 167.093 40.4944 167.077 40.364L166.947 39.311C166.877 39.1901 166.826 39.0788 166.8 38.9833C166.753 38.8147 166.794 38.7034 166.864 38.6302L166.803 38.1435L166.619 35.8753C166.613 35.7989 166.702 35.748 166.762 35.7957C166.972 35.9548 167.141 36.1616 167.239 36.4065C167.507 37.0714 167.532 37.8317 167.532 37.8317L167.268 38.0862L167.351 38.7575C167.408 38.7479 167.459 38.767 167.491 38.8497C167.51 38.8974 167.503 38.9611 167.487 39.0183C167.968 39.7595 168.824 40.2081 169.406 40.4435C169.479 40.4721 169.558 40.434 169.581 40.3608C169.6 40.3004 169.571 40.2367 169.517 40.2081C168.626 39.7468 167.996 38.6588 167.996 37.3927C167.996 35.7067 169.103 34.3419 170.468 34.3419C171.833 34.3419 172.94 35.7067 172.94 37.3927C172.94 38.662 172.313 39.7468 171.419 40.2081C171.365 40.2367 171.337 40.3004 171.356 40.3608C171.378 40.434 171.458 40.4753 171.531 40.4467C172.1 40.2176 172.94 39.7818 173.427 39.0629C173.405 38.9897 173.389 38.9102 173.411 38.8497C173.44 38.7702 173.487 38.7479 173.541 38.7543L173.63 38.0894L173.608 38.0671C173.395 37.8381 173.296 37.5231 173.338 37.2146L173.57 36.1616C173.583 36.1011 173.637 36.0534 173.7 36.0598C173.774 36.0661 173.824 36.1298 173.812 36.2029L173.643 37.2146C173.637 37.2686 173.672 37.3164 173.726 37.3227C173.78 37.3291 173.828 37.2941 173.834 37.24L173.983 36.222C173.993 36.1552 174.053 36.1107 174.12 36.1202H174.13H174.139C174.206 36.1298 174.251 36.1902 174.244 36.2538L174.123 37.275C174.117 37.3291 174.152 37.3768 174.206 37.3832C174.26 37.3895 174.308 37.3545 174.314 37.3005L174.416 36.2857C174.422 36.2252 174.467 36.1743 174.527 36.1711C174.604 36.1648 174.664 36.2252 174.661 36.2984L174.61 37.3832C174.569 37.6949 174.391 37.9685 174.127 38.1371L174.101 38.153L174.041 38.5952C174.133 38.6652 174.203 38.7829 174.149 38.9833C174.114 39.1106 174.041 39.2601 173.929 39.4255L173.802 40.3703C173.783 40.504 173.659 40.5962 173.525 40.5708C173.401 40.5485 173.322 40.4212 173.338 40.294L173.366 40.0745C173.131 40.2972 172.845 40.5262 172.514 40.7394C171.995 41.0766 171.766 41.716 171.941 42.3077C174.044 41.6746 175.577 39.7246 175.577 37.4182C175.587 34.5551 173.233 32.2423 170.354 32.3091Z" fill="white"/>
<ellipse cx="136.269" cy="72.6923" rx="8.33333" ry="8.33333" fill="#6A53AA"/>
<path d="M136.009 74.8769C136.009 74.8769 136.394 73.2131 134.61 72.9968C134.61 72.9936 134.183 74.8546 136.009 74.8769Z" fill="white"/>
<path d="M136.744 74.8768C136.744 74.8768 136.359 73.213 138.144 72.9966C138.141 72.9935 138.57 74.8545 136.744 74.8768Z" fill="white"/>
<path d="M136.251 67.6936C133.474 67.7604 131.238 70.0827 131.269 72.86C131.295 75.1409 132.819 77.0623 134.899 77.689C135.077 77.091 134.836 76.4516 134.314 76.1112C133.954 75.8789 133.649 75.6276 133.404 75.3858L133.442 75.6944C133.458 75.8249 133.366 75.9394 133.235 75.9553C133.105 75.9712 132.99 75.8789 132.975 75.7485L132.844 74.6955C132.774 74.5746 132.723 74.4633 132.698 74.3679C132.65 74.1992 132.691 74.0879 132.761 74.0147L132.701 73.528L132.516 71.2598C132.51 71.1834 132.599 71.1325 132.66 71.1803C132.87 71.3393 133.038 71.5461 133.137 71.7911C133.404 72.4559 133.429 73.2162 133.429 73.2162L133.165 73.4707L133.248 74.142C133.305 74.1324 133.356 74.1515 133.388 74.2342C133.407 74.282 133.401 74.3456 133.385 74.4028C133.865 75.1441 134.721 75.5926 135.303 75.828C135.376 75.8567 135.456 75.8185 135.478 75.7453C135.497 75.6849 135.469 75.6213 135.415 75.5926C134.524 75.1313 133.894 74.0434 133.894 72.7772C133.894 71.0912 135.001 69.7264 136.366 69.7264C137.73 69.7264 138.838 71.0912 138.838 72.7772C138.838 74.0465 138.211 75.1313 137.317 75.5926C137.263 75.6213 137.234 75.6849 137.253 75.7453C137.276 75.8185 137.355 75.8598 137.428 75.8312C137.998 75.6022 138.838 75.1663 139.324 74.4474C139.302 74.3742 139.286 74.2947 139.308 74.2342C139.337 74.1547 139.385 74.1324 139.439 74.1388L139.528 73.4739L139.506 73.4517C139.292 73.2226 139.194 72.9077 139.235 72.5991L139.467 71.5461C139.48 71.4857 139.534 71.4379 139.598 71.4443C139.671 71.4507 139.722 71.5143 139.709 71.5875L139.541 72.5991C139.534 72.6532 139.569 72.7009 139.623 72.7073C139.677 72.7136 139.725 72.6786 139.731 72.6245L139.881 71.6065C139.89 71.5397 139.951 71.4952 140.018 71.5047H140.027H140.037C140.104 71.5143 140.148 71.5747 140.142 71.6384L140.021 72.6595C140.015 72.7136 140.05 72.7613 140.104 72.7677C140.158 72.7741 140.205 72.7391 140.212 72.685L140.314 71.6702C140.32 71.6097 140.364 71.5588 140.425 71.5556C140.501 71.5493 140.562 71.6097 140.559 71.6829L140.508 72.7677C140.466 73.0795 140.288 73.353 140.024 73.5216L139.999 73.5376L139.938 73.9797C140.03 74.0497 140.1 74.1674 140.046 74.3679C140.011 74.4951 139.938 74.6446 139.827 74.81L139.7 75.7549C139.681 75.8885 139.556 75.9807 139.423 75.9553C139.299 75.933 139.219 75.8058 139.235 75.6785L139.264 75.459C139.028 75.6817 138.742 75.9107 138.411 76.1239C137.893 76.4611 137.664 77.1005 137.839 77.6922C139.941 77.0592 141.475 75.1091 141.475 72.8027C141.484 69.9396 139.13 67.6268 136.251 67.6936Z" fill="white"/>
<ellipse cx="39.0899" cy="51.9231" rx="8.33333" ry="8.33333" fill="#6A53AA"/>
<path d="M38.8301 54.1077C38.8301 54.1077 39.2151 52.4439 37.4304 52.2276C37.4304 52.2244 37.0041 54.0854 38.8301 54.1077Z" fill="white"/>
<path d="M39.565 54.1076C39.565 54.1076 39.1801 52.4438 40.9647 52.2275C40.9615 52.2243 41.391 54.0853 39.565 54.1076Z" fill="white"/>
<path d="M39.072 46.9245C36.2948 46.9913 34.0584 49.3136 34.0902 52.0908C34.1156 54.3717 35.6394 56.2932 37.72 56.9199C37.8981 56.3218 37.6563 55.6824 37.1346 55.342C36.7751 55.1098 36.4697 54.8585 36.2248 54.6167L36.263 54.9253C36.2789 55.0557 36.1866 55.1702 36.0562 55.1861C35.9257 55.202 35.8112 55.1098 35.7953 54.9793L35.6649 53.9264C35.5949 53.8055 35.544 53.6941 35.5185 53.5987C35.4708 53.4301 35.5122 53.3187 35.5822 53.2456L35.5217 52.7588L35.3372 50.4906C35.3309 50.4143 35.4199 50.3634 35.4804 50.4111C35.6903 50.5702 35.8589 50.7769 35.9576 51.0219C36.2248 51.6868 36.2502 52.4471 36.2502 52.4471L35.9862 52.7016L36.0689 53.3728C36.1262 53.3633 36.1771 53.3824 36.2089 53.4651C36.228 53.5128 36.2216 53.5764 36.2057 53.6337C36.6861 54.3749 37.5418 54.8235 38.124 55.0589C38.1971 55.0875 38.2767 55.0493 38.2989 54.9762C38.318 54.9157 38.2894 54.8521 38.2353 54.8235C37.3446 54.3622 36.7147 53.2742 36.7147 52.0081C36.7147 50.322 37.8218 48.9573 39.1865 48.9573C40.5512 48.9573 41.6583 50.322 41.6583 52.0081C41.6583 53.2774 41.0316 54.3622 40.1377 54.8235C40.0836 54.8521 40.055 54.9157 40.0741 54.9762C40.0963 55.0493 40.1759 55.0907 40.249 55.062C40.8185 54.833 41.6583 54.3972 42.145 53.6782C42.1228 53.605 42.1069 53.5255 42.1291 53.4651C42.1578 53.3855 42.2055 53.3633 42.2596 53.3696L42.3486 52.7048L42.3264 52.6825C42.1132 52.4534 42.0146 52.1385 42.056 51.8299L42.2882 50.7769C42.3009 50.7165 42.355 50.6688 42.4186 50.6751C42.4918 50.6815 42.5427 50.7451 42.53 50.8183L42.3614 51.8299C42.355 51.884 42.39 51.9317 42.4441 51.9381C42.4982 51.9444 42.5459 51.9095 42.5522 51.8554L42.7018 50.8374C42.7113 50.7706 42.7717 50.726 42.8385 50.7356H42.8481H42.8576C42.9244 50.7451 42.969 50.8056 42.9626 50.8692L42.8417 51.8904C42.8354 51.9444 42.8704 51.9922 42.9244 51.9985C42.9785 52.0049 43.0262 51.9699 43.0326 51.9158L43.1344 50.901C43.1408 50.8406 43.1853 50.7897 43.2457 50.7865C43.3221 50.7801 43.3825 50.8406 43.3794 50.9137L43.3285 51.9985C43.2871 52.3103 43.1089 52.5839 42.8449 52.7525L42.8195 52.7684L42.759 53.2106C42.8513 53.2806 42.9213 53.3983 42.8672 53.5987C42.8322 53.7259 42.759 53.8755 42.6477 54.0409L42.5204 54.9857C42.5013 55.1193 42.3773 55.2116 42.2437 55.1861C42.1196 55.1638 42.0401 55.0366 42.056 54.9093L42.0846 54.6898C41.8492 54.9125 41.5629 55.1416 41.232 55.3547C40.7135 55.6919 40.4844 56.3314 40.6594 56.9231C42.7622 56.29 44.2955 54.3399 44.2955 52.0335C44.3051 49.1704 41.951 46.8577 39.072 46.9245Z" fill="white"/>
<ellipse cx="31.1412" cy="22.6924" rx="8.33333" ry="8.33333" fill="#6A53AA"/>
<path d="M30.8814 24.877C30.8814 24.877 31.2663 23.2132 29.4817 22.9969C29.4817 22.9937 29.0554 24.8547 30.8814 24.877Z" fill="white"/>
<path d="M31.6163 24.8769C31.6163 24.8769 31.2313 23.2131 33.016 22.9968C33.0128 22.9936 33.4423 24.8546 31.6163 24.8769Z" fill="white"/>
<path d="M31.1232 17.6938C28.346 17.7606 26.1096 20.0829 26.1414 22.8601C26.1669 25.141 27.6907 27.0625 29.7712 27.6892C29.9494 27.0911 29.7076 26.4517 29.1859 26.1113C28.8264 25.8791 28.521 25.6277 28.276 25.386L28.3142 25.6945C28.3301 25.825 28.2379 25.9395 28.1074 25.9554C27.977 25.9713 27.8625 25.8791 27.8466 25.7486L27.7162 24.6956C27.6462 24.5748 27.5953 24.4634 27.5698 24.368C27.5221 24.1994 27.5635 24.088 27.6334 24.0149L27.573 23.5281L27.3885 21.2599C27.3821 21.1836 27.4712 21.1327 27.5316 21.1804C27.7416 21.3394 27.9102 21.5462 28.0088 21.7912C28.2761 22.4561 28.3015 23.2164 28.3015 23.2164L28.0375 23.4709L28.1202 24.1421C28.1774 24.1326 28.2283 24.1516 28.2601 24.2344C28.2792 24.2821 28.2729 24.3457 28.257 24.403C28.7373 25.1442 29.5931 25.5927 30.1752 25.8282C30.2484 25.8568 30.3279 25.8186 30.3502 25.7454C30.3693 25.685 30.3407 25.6214 30.2866 25.5927C29.3958 25.1315 28.766 24.0435 28.766 22.7774C28.766 21.0913 29.873 19.7266 31.2378 19.7266C32.6025 19.7266 33.7096 21.0913 33.7096 22.7774C33.7096 24.0467 33.0829 25.1315 32.189 25.5927C32.1349 25.6214 32.1062 25.685 32.1253 25.7454C32.1476 25.8186 32.2271 25.86 32.3003 25.8313C32.8697 25.6023 33.7096 25.1665 34.1963 24.4475C34.174 24.3743 34.1581 24.2948 34.1804 24.2344C34.209 24.1548 34.2568 24.1326 34.3108 24.1389L34.3999 23.474L34.3776 23.4518C34.1645 23.2227 34.0659 22.9078 34.1072 22.5992L34.3395 21.5462C34.3522 21.4858 34.4063 21.4381 34.4699 21.4444C34.5431 21.4508 34.594 21.5144 34.5812 21.5876L34.4126 22.5992C34.4063 22.6533 34.4413 22.701 34.4953 22.7074C34.5494 22.7137 34.5971 22.6787 34.6035 22.6247L34.753 21.6067C34.7626 21.5399 34.823 21.4953 34.8898 21.5049H34.8994H34.9089C34.9757 21.5144 35.0202 21.5749 35.0139 21.6385L34.893 22.6597C34.8866 22.7137 34.9216 22.7615 34.9757 22.7678C35.0298 22.7742 35.0775 22.7392 35.0839 22.6851L35.1857 21.6703C35.192 21.6099 35.2366 21.559 35.297 21.5558C35.3734 21.5494 35.4338 21.6099 35.4306 21.683L35.3797 22.7678C35.3384 23.0796 35.1602 23.3532 34.8962 23.5218L34.8707 23.5377L34.8103 23.9799C34.9025 24.0499 34.9725 24.1676 34.9184 24.368C34.8835 24.4952 34.8103 24.6447 34.6989 24.8102L34.5717 25.755C34.5526 25.8886 34.4285 25.9809 34.2949 25.9554C34.1709 25.9331 34.0913 25.8059 34.1072 25.6786L34.1359 25.4591C33.9005 25.6818 33.6141 25.9109 33.2833 26.124C32.7648 26.4612 32.5357 27.1006 32.7107 27.6924C34.8135 27.0593 36.3468 25.1092 36.3468 22.8028C36.3564 19.9397 34.0023 17.627 31.1232 17.6938Z" fill="white"/>
<ellipse cx="79.6026" cy="39.359" rx="8.33333" ry="8.33333" fill="#6A53AA"/>
<path d="M79.3428 41.5436C79.3428 41.5436 79.7278 39.8798 77.9431 39.6635C77.9431 39.6603 77.5168 41.5214 79.3428 41.5436Z" fill="white"/>
<path d="M80.0777 41.5435C80.0777 41.5435 79.6928 39.8797 81.4774 39.6634C81.4742 39.6602 81.9037 41.5212 80.0777 41.5435Z" fill="white"/>
<path d="M79.5847 34.3604C76.8075 34.4272 74.5711 36.7495 74.6029 39.5267C74.6283 41.8076 76.1521 43.7291 78.2327 44.3558C78.4108 43.7577 78.169 43.1183 77.6473 42.7779C77.2878 42.5457 76.9824 42.2944 76.7375 42.0526L76.7757 42.3612C76.7916 42.4916 76.6993 42.6061 76.5689 42.622C76.4384 42.6379 76.3239 42.5457 76.308 42.4152L76.1776 41.3623C76.1076 41.2414 76.0567 41.13 76.0312 41.0346C75.9835 40.866 76.0249 40.7547 76.0949 40.6815L76.0344 40.1948L75.8499 37.9265C75.8436 37.8502 75.9326 37.7993 75.9931 37.847C76.203 38.0061 76.3716 38.2129 76.4703 38.4578C76.7375 39.1227 76.7629 39.883 76.7629 39.883L76.4989 40.1375L76.5816 40.8087C76.6389 40.7992 76.6898 40.8183 76.7216 40.901C76.7407 40.9487 76.7343 41.0123 76.7184 41.0696C77.1988 41.8108 78.0545 42.2594 78.6367 42.4948C78.7098 42.5234 78.7894 42.4852 78.8116 42.4121C78.8307 42.3516 78.8021 42.288 78.748 42.2594C77.8573 41.7981 77.2274 40.7101 77.2274 39.444C77.2274 37.7579 78.3345 36.3932 79.6992 36.3932C81.0639 36.3932 82.171 37.7579 82.171 39.444C82.171 40.7133 81.5443 41.7981 80.6504 42.2594C80.5963 42.288 80.5677 42.3516 80.5868 42.4121C80.609 42.4852 80.6886 42.5266 80.7617 42.498C81.3312 42.2689 82.171 41.8331 82.6577 41.1141C82.6355 41.041 82.6196 40.9614 82.6418 40.901C82.6705 40.8215 82.7182 40.7992 82.7723 40.8056L82.8613 40.1407L82.8391 40.1184C82.6259 39.8894 82.5273 39.5744 82.5687 39.2658L82.8009 38.2129C82.8136 38.1524 82.8677 38.1047 82.9313 38.1111C83.0045 38.1174 83.0554 38.181 83.0427 38.2542L82.8741 39.2658C82.8677 39.3199 82.9027 39.3676 82.9568 39.374C83.0108 39.3804 83.0586 39.3454 83.0649 39.2913L83.2144 38.2733C83.224 38.2065 83.2844 38.162 83.3512 38.1715H83.3608H83.3703C83.4371 38.181 83.4817 38.2415 83.4753 38.3051L83.3544 39.3263C83.3481 39.3804 83.3831 39.4281 83.4371 39.4344C83.4912 39.4408 83.5389 39.4058 83.5453 39.3517L83.6471 38.3369C83.6535 38.2765 83.698 38.2256 83.7584 38.2224C83.8348 38.216 83.8952 38.2765 83.892 38.3496L83.8411 39.4344C83.7998 39.7462 83.6216 40.0198 83.3576 40.1884L83.3322 40.2043L83.2717 40.6465C83.364 40.7165 83.434 40.8342 83.3799 41.0346C83.3449 41.1618 83.2717 41.3114 83.1604 41.4768L83.0331 42.4216C83.014 42.5552 82.89 42.6475 82.7564 42.622C82.6323 42.5998 82.5528 42.4725 82.5687 42.3453L82.5973 42.1258C82.3619 42.3484 82.0756 42.5775 81.7447 42.7906C81.2262 43.1278 80.9971 43.7673 81.1721 44.359C83.2749 43.7259 84.8082 41.7758 84.8082 39.4694C84.8178 36.6063 82.4637 34.2936 79.5847 34.3604Z" fill="white"/>
<ellipse cx="73.4488" cy="92.1794" rx="8.33333" ry="8.33333" fill="#6A53AA"/>
<path d="M73.189 94.3641C73.189 94.3641 73.5739 92.7003 71.7893 92.484C71.7893 92.4808 71.363 94.3418 73.189 94.3641Z" fill="white"/>
<path d="M73.9239 94.364C73.9239 94.364 73.5389 92.7002 75.3236 92.4839C75.3204 92.4807 75.7499 94.3417 73.9239 94.364Z" fill="white"/>
<path d="M73.4309 87.1809C70.6537 87.2477 68.4173 89.57 68.4491 92.3472C68.4745 94.6281 69.9983 96.5496 72.0788 97.1763C72.257 96.5782 72.0152 95.9388 71.4935 95.5984C71.134 95.3661 70.8286 95.1148 70.5837 94.8731L70.6218 95.1816C70.6377 95.3121 70.5455 95.4266 70.4151 95.4425C70.2846 95.4584 70.1701 95.3661 70.1542 95.2357L70.0238 94.1827C69.9538 94.0618 69.9029 93.9505 69.8774 93.8551C69.8297 93.6865 69.8711 93.5751 69.9411 93.5019L69.8806 93.0152L69.6961 90.747C69.6897 90.6707 69.7788 90.6198 69.8393 90.6675C70.0492 90.8265 70.2178 91.0333 70.3164 91.2783C70.5837 91.9431 70.6091 92.7035 70.6091 92.7035L70.3451 92.958L70.4278 93.6292C70.485 93.6197 70.5359 93.6387 70.5678 93.7215C70.5868 93.7692 70.5805 93.8328 70.5646 93.8901C71.0449 94.6313 71.9007 95.0798 72.4829 95.3152C72.556 95.3439 72.6356 95.3057 72.6578 95.2325C72.6769 95.1721 72.6483 95.1085 72.5942 95.0798C71.7035 94.6186 71.0736 93.5306 71.0736 92.2645C71.0736 90.5784 72.1806 89.2137 73.5454 89.2137C74.9101 89.2137 76.0172 90.5784 76.0172 92.2645C76.0172 93.5338 75.3905 94.6186 74.4966 95.0798C74.4425 95.1085 74.4139 95.1721 74.4329 95.2325C74.4552 95.3057 74.5347 95.3471 74.6079 95.3184C75.1774 95.0894 76.0172 94.6536 76.5039 93.9346C76.4817 93.8614 76.4658 93.7819 76.488 93.7215C76.5167 93.6419 76.5644 93.6197 76.6184 93.626L76.7075 92.9611L76.6853 92.9389C76.4721 92.7098 76.3735 92.3949 76.4149 92.0863L76.6471 91.0333C76.6598 90.9729 76.7139 90.9252 76.7775 90.9315C76.8507 90.9379 76.9016 91.0015 76.8889 91.0747L76.7202 92.0863C76.7139 92.1404 76.7489 92.1881 76.803 92.1945C76.857 92.2008 76.9048 92.1658 76.9111 92.1118L77.0606 91.0938C77.0702 91.027 77.1306 90.9824 77.1974 90.992H77.207H77.2165C77.2833 91.0015 77.3279 91.0619 77.3215 91.1256L77.2006 92.1467C77.1943 92.2008 77.2292 92.2485 77.2833 92.2549C77.3374 92.2613 77.3851 92.2263 77.3915 92.1722L77.4933 91.1574C77.4996 91.0969 77.5442 91.046 77.6046 91.0429C77.681 91.0365 77.7414 91.0969 77.7382 91.1701L77.6873 92.2549C77.646 92.5667 77.4678 92.8403 77.2038 93.0089L77.1783 93.0248L77.1179 93.467C77.2102 93.5369 77.2801 93.6546 77.2261 93.8551C77.1911 93.9823 77.1179 94.1318 77.0066 94.2973L76.8793 95.2421C76.8602 95.3757 76.7362 95.4679 76.6025 95.4425C76.4785 95.4202 76.3989 95.293 76.4149 95.1657L76.4435 94.9462C76.2081 95.1689 75.9218 95.398 75.5909 95.6111C75.0724 95.9483 74.8433 96.5877 75.0183 97.1794C77.1211 96.5464 78.6544 94.5963 78.6544 92.2899C78.664 89.4268 76.3099 87.114 73.4309 87.1809Z" fill="white"/>
<ellipse cx="87.5514" cy="108.846" rx="8.33333" ry="8.33333" fill="#6A53AA"/>
<path d="M87.2916 111.031C87.2916 111.031 87.6765 109.367 85.8918 109.151C85.8918 109.147 85.4655 111.008 87.2916 111.031Z" fill="white"/>
<path d="M88.0264 111.031C88.0264 111.031 87.6415 109.367 89.4262 109.151C89.423 109.147 89.8524 111.008 88.0264 111.031Z" fill="white"/>
<path d="M87.5334 103.847C84.7562 103.914 82.5198 106.237 82.5516 109.014C82.5771 111.295 84.1009 113.216 86.1814 113.843C86.3595 113.245 86.1178 112.605 85.596 112.265C85.2366 112.033 84.9312 111.781 84.6862 111.54L84.7244 111.848C84.7403 111.979 84.648 112.093 84.5176 112.109C84.3872 112.125 84.2726 112.033 84.2567 111.902L84.1263 110.849C84.0563 110.728 84.0054 110.617 83.98 110.522C83.9323 110.353 83.9736 110.242 84.0436 110.169L83.9832 109.682L83.7986 107.414C83.7923 107.337 83.8814 107.286 83.9418 107.334C84.1518 107.493 84.3204 107.7 84.419 107.945C84.6862 108.61 84.7117 109.37 84.7117 109.37L84.4476 109.625L84.5303 110.296C84.5876 110.286 84.6385 110.305 84.6703 110.388C84.6894 110.436 84.683 110.499 84.6671 110.557C85.1475 111.298 86.0032 111.746 86.5854 111.982C86.6586 112.011 86.7381 111.972 86.7604 111.899C86.7795 111.839 86.7508 111.775 86.6967 111.746C85.806 111.285 85.1761 110.197 85.1761 108.931C85.1761 107.245 86.2832 105.88 87.6479 105.88C89.0127 105.88 90.1197 107.245 90.1197 108.931C90.1197 110.2 89.493 111.285 88.5991 111.746C88.545 111.775 88.5164 111.839 88.5355 111.899C88.5578 111.972 88.6373 112.014 88.7105 111.985C89.2799 111.756 90.1197 111.32 90.6065 110.601C90.5842 110.528 90.5683 110.449 90.5906 110.388C90.6192 110.309 90.6669 110.286 90.721 110.293L90.8101 109.628L90.7878 109.605C90.5747 109.376 90.476 109.062 90.5174 108.753L90.7496 107.7C90.7623 107.64 90.8164 107.592 90.88 107.598C90.9532 107.605 91.0041 107.668 90.9914 107.741L90.8228 108.753C90.8164 108.807 90.8514 108.855 90.9055 108.861C90.9596 108.867 91.0073 108.832 91.0137 108.778L91.1632 107.76C91.1727 107.694 91.2332 107.649 91.3 107.659H91.3095H91.3191C91.3859 107.668 91.4304 107.729 91.424 107.792L91.3032 108.813C91.2968 108.867 91.3318 108.915 91.3859 108.922C91.4399 108.928 91.4877 108.893 91.494 108.839L91.5958 107.824C91.6022 107.764 91.6467 107.713 91.7072 107.709C91.7835 107.703 91.844 107.764 91.8408 107.837L91.7899 108.922C91.7485 109.233 91.5704 109.507 91.3063 109.675L91.2809 109.691L91.2204 110.134C91.3127 110.204 91.3827 110.321 91.3286 110.522C91.2936 110.649 91.2204 110.798 91.1091 110.964L90.9818 111.909C90.9628 112.042 90.8387 112.135 90.7051 112.109C90.581 112.087 90.5015 111.96 90.5174 111.832L90.546 111.613C90.3106 111.836 90.0243 112.065 89.6935 112.278C89.1749 112.615 88.9459 113.254 89.1208 113.846C91.2236 113.213 92.757 111.263 92.757 108.957C92.7665 106.093 90.4124 103.781 87.5334 103.847Z" fill="white"/>
<ellipse cx="68.3204" cy="139.102" rx="8.33333" ry="8.33333" fill="#6A53AA"/>
<path d="M68.0606 141.287C68.0606 141.287 68.4455 139.623 66.6609 139.407C66.6609 139.404 66.2346 141.265 68.0606 141.287Z" fill="white"/>
<path d="M68.7955 141.287C68.7955 141.287 68.4105 139.623 70.1952 139.407C70.192 139.404 70.6215 141.265 68.7955 141.287Z" fill="white"/>
<path d="M68.3024 134.104C65.5252 134.171 63.2888 136.493 63.3206 139.27C63.3461 141.551 64.8699 143.472 66.9504 144.099C67.1286 143.501 66.8868 142.862 66.3651 142.521C66.0056 142.289 65.7002 142.038 65.4552 141.796L65.4934 142.105C65.5093 142.235 65.4171 142.35 65.2866 142.365C65.1562 142.381 65.0417 142.289 65.0258 142.159L64.8954 141.106C64.8254 140.985 64.7745 140.873 64.749 140.778C64.7013 140.609 64.7427 140.498 64.8126 140.425L64.7522 139.938L64.5677 137.67C64.5613 137.594 64.6504 137.543 64.7108 137.59C64.9208 137.749 65.0894 137.956 65.188 138.201C65.4552 138.866 65.4807 139.626 65.4807 139.626L65.2167 139.881L65.2994 140.552C65.3566 140.543 65.4075 140.562 65.4393 140.644C65.4584 140.692 65.4521 140.756 65.4362 140.813C65.9165 141.554 66.7723 142.003 67.3544 142.238C67.4276 142.267 67.5071 142.229 67.5294 142.155C67.5485 142.095 67.5199 142.031 67.4658 142.003C66.575 141.541 65.9452 140.453 65.9452 139.187C65.9452 137.501 67.0522 136.137 68.417 136.137C69.7817 136.137 70.8888 137.501 70.8888 139.187C70.8888 140.457 70.2621 141.541 69.3682 142.003C69.3141 142.031 69.2854 142.095 69.3045 142.155C69.3268 142.229 69.4063 142.27 69.4795 142.241C70.0489 142.012 70.8888 141.576 71.3755 140.858C71.3532 140.784 71.3373 140.705 71.3596 140.644C71.3882 140.565 71.436 140.543 71.49 140.549L71.5791 139.884L71.5568 139.862C71.3437 139.633 71.2451 139.318 71.2864 139.009L71.5187 137.956C71.5314 137.896 71.5855 137.848 71.6491 137.854C71.7223 137.861 71.7732 137.924 71.7604 137.998L71.5918 139.009C71.5855 139.063 71.6205 139.111 71.6745 139.117C71.7286 139.124 71.7763 139.089 71.7827 139.035L71.9322 138.017C71.9418 137.95 72.0022 137.905 72.069 137.915H72.0786H72.0881C72.1549 137.924 72.1994 137.985 72.1931 138.048L72.0722 139.07C72.0658 139.124 72.1008 139.171 72.1549 139.178C72.209 139.184 72.2567 139.149 72.2631 139.095L72.3649 138.08C72.3712 138.02 72.4158 137.969 72.4762 137.966C72.5526 137.959 72.613 138.02 72.6098 138.093L72.5589 139.178C72.5176 139.49 72.3394 139.763 72.0754 139.932L72.0499 139.948L71.9895 140.39C72.0817 140.46 72.1517 140.578 72.0976 140.778C72.0627 140.905 71.9895 141.055 71.8781 141.22L71.7509 142.165C71.7318 142.299 71.6077 142.391 71.4741 142.365C71.3501 142.343 71.2705 142.216 71.2864 142.089L71.3151 141.869C71.0797 142.092 70.7933 142.321 70.4625 142.534C69.944 142.871 69.7149 143.511 69.8899 144.102C71.9927 143.469 73.526 141.519 73.526 139.213C73.5356 136.35 71.1815 134.037 68.3024 134.104Z" fill="white"/>
</svg>
