<svg width="507" height="307" viewBox="0 0 507 307" fill="none" xmlns="http://www.w3.org/2000/svg">
<path d="M0 4.00001C0 1.79087 1.79086 0 4 0H507V307H0V4.00001Z" fill="white"/>
<path d="M0 4C0 1.79086 1.79086 0 4 0H507V30H0V4Z" fill="#2B146C"/>
<circle opacity="0.21" cx="12" cy="15" r="4" fill="white"/>
<circle opacity="0.21" cx="24" cy="15" r="4" fill="white"/>
<circle opacity="0.21" cx="36" cy="15" r="4" fill="white"/>
<rect x="20" y="50" width="120" height="257" fill="black"/>
<rect x="36" y="66" width="72" height="16" rx="8" fill="#555560"/>
<rect opacity="0.4" x="36" y="105" width="88" height="8" rx="4" fill="#555560"/>
<rect opacity="0.4" x="36" y="125" width="88" height="8" rx="4" fill="#555560"/>
<rect opacity="0.4" x="36" y="145" width="88" height="8" rx="4" fill="#555560"/>
<rect opacity="0.4" x="36" y="165" width="88" height="8" rx="4" fill="#555560"/>
<rect opacity="0.4" x="36" y="185" width="88" height="8" rx="4" fill="#555560"/>
<rect x="160" y="50" width="114" height="140" fill="#ECECEC"/>
<rect x="205" y="154" width="53" height="20" rx="10" fill="#F2CF7E"/>
<rect x="176" y="66" width="82" height="33" fill="#D4D4D7"/>
<rect opacity="0.4" x="176" y="112" width="82" height="6" rx="3" fill="#AAAAAF"/>
<rect opacity="0.4" x="176" y="122" width="67" height="6" rx="3" fill="#AAAAAF"/>
<rect opacity="0.4" x="176" y="132" width="75" height="6" rx="3" fill="#AAAAAF"/>
<rect x="176" y="154" width="20" height="20" rx="10" fill="#3B2186"/>
<rect x="294" y="50" width="114" height="140" fill="#ECECEC"/>
<rect x="339" y="154" width="53" height="20" rx="10" fill="#F2CF7E"/>
<rect x="310" y="66" width="82" height="33" fill="#D4D4D7"/>
<rect opacity="0.4" x="310" y="112" width="82" height="6" rx="3" fill="#AAAAAF"/>
<rect opacity="0.4" x="310" y="122" width="67" height="6" rx="3" fill="#AAAAAF"/>
<rect opacity="0.4" x="310" y="132" width="75" height="6" rx="3" fill="#AAAAAF"/>
<rect x="310" y="154" width="20" height="20" rx="10" fill="#3B2186"/>
<rect x="428" y="50" width="114" height="140" fill="#ECECEC"/>
<rect x="473" y="154" width="53" height="20" rx="10" fill="#F2CF7E"/>
<rect x="444" y="66" width="82" height="33" fill="#D4D4D7"/>
<rect opacity="0.4" x="444" y="112" width="82" height="6" rx="3" fill="#AAAAAF"/>
<rect opacity="0.4" x="444" y="122" width="67" height="6" rx="3" fill="#AAAAAF"/>
<rect opacity="0.4" x="444" y="132" width="75" height="6" rx="3" fill="#AAAAAF"/>
<rect x="444" y="154" width="20" height="20" rx="10" fill="#3B2186"/>
<rect x="160" y="210" width="114" height="140" fill="#ECECEC"/>
<rect x="176" y="226" width="82" height="33" fill="#D4D4D7"/>
<rect opacity="0.4" x="176" y="272" width="82" height="6" rx="3" fill="#AAAAAF"/>
<rect opacity="0.4" x="176" y="282" width="67" height="6" rx="3" fill="#AAAAAF"/>
<rect opacity="0.4" x="176" y="292" width="75" height="6" rx="3" fill="#AAAAAF"/>
<rect x="294" y="210" width="114" height="140" fill="#ECECEC"/>
<rect x="310" y="226" width="82" height="33" fill="#D4D4D7"/>
<rect opacity="0.4" x="310" y="272" width="82" height="6" rx="3" fill="#AAAAAF"/>
<rect opacity="0.4" x="310" y="282" width="67" height="6" rx="3" fill="#AAAAAF"/>
<rect opacity="0.4" x="310" y="292" width="75" height="6" rx="3" fill="#AAAAAF"/>
<rect x="428" y="210" width="114" height="140" fill="#ECECEC"/>
<rect x="444" y="226" width="82" height="33" fill="#D4D4D7"/>
<rect opacity="0.4" x="444" y="272" width="82" height="6" rx="3" fill="#AAAAAF"/>
<rect opacity="0.4" x="444" y="282" width="67" height="6" rx="3" fill="#AAAAAF"/>
<rect opacity="0.4" x="444" y="292" width="75" height="6" rx="3" fill="#AAAAAF"/>
</svg>
