<svg width="14" height="16" viewBox="0 0 14 16" fill="none" xmlns="http://www.w3.org/2000/svg">
<path d="M2.66667 12C2.66667 12.3667 2.96667 12.6667 3.33333 12.6667H4V15C4 15.5533 4.44667 16 5 16C5.55333 16 6 15.5533 6 15V12.6667H7.33333V15C7.33333 15.5533 7.78 16 8.33333 16C8.88667 16 9.33333 15.5533 9.33333 15V12.6667H10C10.3667 12.6667 10.6667 12.3667 10.6667 12V5.33333H2.66667V12ZM1 5.33333C0.446667 5.33333 0 5.78 0 6.33333V11C0 11.5533 0.446667 12 1 12C1.55333 12 2 11.5533 2 11V6.33333C2 5.78 1.55333 5.33333 1 5.33333ZM12.3333 5.33333C11.78 5.33333 11.3333 5.78 11.3333 6.33333V11C11.3333 11.5533 11.78 12 12.3333 12C12.8867 12 13.3333 11.5533 13.3333 11V6.33333C13.3333 5.78 12.8867 5.33333 12.3333 5.33333ZM9.02 1.44L9.88667 0.573333C10.02 0.44 10.02 0.233333 9.88667 0.1C9.75333 -0.0333333 9.54667 -0.0333333 9.41333 0.1L8.42667 1.08667C7.88112 0.810392 7.27818 0.666506 6.66667 0.666667C6.02667 0.666667 5.42667 0.82 4.89333 1.08667L3.9 0.1C3.76667 -0.0333333 3.56 -0.0333333 3.42667 0.1C3.29333 0.233333 3.29333 0.44 3.42667 0.573333L4.3 1.44667C3.7937 1.81712 3.38193 2.30178 3.09813 2.86127C2.81433 3.42077 2.66651 4.03931 2.66667 4.66667H10.6667C10.6667 3.34 10.02 2.16667 9.02 1.44V1.44ZM5.33333 3.33333H4.66667V2.66667H5.33333V3.33333ZM8.66667 3.33333H8V2.66667H8.66667V3.33333Z" fill="#D9D9D9"/>
</svg>
