<svg width="119" height="20" viewBox="0 0 119 20" fill="none" xmlns="http://www.w3.org/2000/svg">
<path d="M0.798279 9.97895C0.798279 4.50342 5.24818 0.0700684 10.7237 0.0700684C13.5524 0.0700684 16.0834 1.26112 17.9031 3.13041L13.4201 7.67956C12.7584 6.90207 11.799 6.43888 10.7237 6.43888C8.7717 6.43888 7.16709 8.02695 7.16709 9.99549C7.16709 11.9806 8.75516 13.5686 10.7237 13.5686C11.7659 13.5686 12.7253 13.1055 13.3705 12.361L17.9031 16.8771C16.0834 18.7464 13.5359 19.9375 10.7237 19.9375C5.24818 19.9209 0.798279 15.4876 0.798279 9.97895Z" fill="#D9D9D9"/>
<path d="M40.1691 0.384277V19.6396H33.7341V12.5429H26.0088V19.6396H19.5739V0.384277H26.0088V7.44787H33.7341V0.384277H40.1691Z" fill="#D9D9D9"/>
<path d="M42.2369 9.97895C42.2369 4.50342 46.6868 0.0700684 52.1624 0.0700684C57.6379 0.0700684 62.0878 4.50342 62.0878 9.97895C62.0878 15.4876 57.6379 19.9044 52.1624 19.9044C46.6868 19.9044 42.2369 15.4876 42.2369 9.97895ZM55.719 9.97895C55.719 8.02695 54.1309 6.42234 52.1624 6.42234C50.1938 6.42234 48.6058 8.01041 48.6058 9.97895C48.6058 11.964 50.1938 13.5521 52.1624 13.5521C54.1309 13.5521 55.719 11.964 55.719 9.97895Z" fill="#D9D9D9"/>
<path d="M64.3044 0.384277H70.7394V19.6396H64.3044V0.384277Z" fill="#D9D9D9"/>
<path d="M72.9396 9.97895C72.9396 4.50342 77.3895 0.0700684 82.865 0.0700684C85.6937 0.0700684 88.2247 1.26112 90.0444 3.13041L85.5614 7.66302C84.8997 6.88552 83.9402 6.42234 82.865 6.42234C80.913 6.42234 79.3084 8.01041 79.3084 9.97895C79.3084 11.964 80.8965 13.5521 82.865 13.5521C83.9072 13.5521 84.8666 13.0889 85.5118 12.3445L90.0444 16.8606C88.2247 18.7299 85.6772 19.9209 82.865 19.9209C77.406 19.9209 72.9396 15.4876 72.9396 9.97895Z" fill="#D9D9D9"/>
<path d="M91.8474 0.384277H98.2824V19.6396H91.8474V0.384277Z" fill="#D9D9D9"/>
<path d="M107.612 5.44624V7.44787H118.183V12.5429H107.612V14.5776H118.183V19.6396H101.177V0.384277H118.183V5.44624H107.612Z" fill="#D9D9D9"/>
</svg>
