<svg width="34" height="44" viewBox="0 0 34 44" fill="none" xmlns="http://www.w3.org/2000/svg">
<path d="M6.98722 31.9C6.90818 31.9 6.83124 31.8745 6.76788 31.8272C6.70452 31.78 6.65813 31.7135 6.63562 31.6377C6.61311 31.5619 6.61569 31.4809 6.64297 31.4067C6.67026 31.3325 6.72078 31.2692 6.78702 31.226L17.446 24.3078L4.73882 31.6411C4.65617 31.6853 4.55971 31.6963 4.46926 31.6716C4.37881 31.6469 4.30126 31.5885 4.25252 31.5084C4.20379 31.4283 4.18759 31.3326 4.20725 31.241C4.22691 31.1493 4.28093 31.0686 4.35822 31.0156L15.9361 23.5957L4.73882 30.06C4.65617 30.1043 4.55971 30.1152 4.46926 30.0905C4.37881 30.0658 4.30126 30.0075 4.25252 29.9274C4.20379 29.8473 4.18759 29.7516 4.20725 29.6599C4.22691 29.5682 4.28093 29.4876 4.35822 29.4345L15.7396 22.1503L4.73956 28.501C4.65651 28.5453 4.55959 28.556 4.46886 28.5309C4.37813 28.5057 4.30056 28.4466 4.2522 28.3659C4.20385 28.2851 4.18842 28.1888 4.20911 28.097C4.2298 28.0051 4.28503 27.9247 4.36336 27.8725L10.1369 24.2836L4.73956 27.3988C4.6569 27.443 4.56044 27.4539 4.46999 27.4292C4.37955 27.4046 4.30199 27.3462 4.25326 27.2661C4.20453 27.186 4.18832 27.0903 4.20798 26.9986C4.22764 26.907 4.28167 26.8263 4.35896 26.7732L15.4477 19.6907L4.74102 25.8727C4.65783 25.9178 4.56042 25.929 4.46916 25.904C4.37791 25.8789 4.29987 25.8195 4.25138 25.7383C4.20288 25.657 4.18768 25.5601 4.20897 25.4679C4.23025 25.3757 4.28635 25.2953 4.36556 25.2435L7.46022 23.3368L4.73882 24.9062C4.65547 24.9523 4.55746 24.9641 4.46554 24.9392C4.37361 24.9143 4.29498 24.8546 4.24629 24.7727C4.1976 24.6909 4.18266 24.5933 4.20465 24.5006C4.22664 24.408 4.28382 24.3275 4.36409 24.2762L6.47902 22.976L4.73882 23.98C4.65572 24.0238 4.55897 24.034 4.46855 24.0086C4.37812 23.9831 4.30091 23.9239 4.25284 23.8432C4.20478 23.7625 4.18952 23.6664 4.21022 23.5748C4.23092 23.4832 4.286 23.403 4.36409 23.3508L5.82636 22.4532L4.73882 23.0809C4.6561 23.1264 4.55901 23.1382 4.46777 23.1139C4.37654 23.0896 4.29819 23.0311 4.24905 22.9505C4.1999 22.8699 4.18375 22.7734 4.20395 22.6812C4.22415 22.5889 4.27915 22.5081 4.35749 22.4554L16.5697 14.5933L4.73882 21.4199C4.65585 21.4685 4.55709 21.4826 4.46383 21.4591C4.37057 21.4356 4.29028 21.3764 4.24026 21.2942C4.19024 21.2121 4.1745 21.1136 4.19643 21.02C4.21836 20.9263 4.2762 20.845 4.35749 20.7936L16.3299 13.0973L4.73882 19.789C4.65578 19.8333 4.55885 19.844 4.46813 19.8189C4.3774 19.7937 4.29983 19.7346 4.25147 19.6539C4.20311 19.5731 4.18768 19.4768 4.20838 19.385C4.22907 19.2931 4.2843 19.2127 4.36262 19.1605L9.67636 15.8605L4.73882 18.7132C4.65574 18.7597 4.55782 18.7721 4.46576 18.7477C4.3737 18.7234 4.29473 18.6641 4.24557 18.5826C4.1964 18.501 4.1809 18.4035 4.20234 18.3108C4.22377 18.218 4.28047 18.1372 4.36042 18.0854L13.0006 12.6463L4.73882 17.413C4.65572 17.4568 4.55897 17.467 4.46855 17.4416C4.37812 17.4161 4.30091 17.3569 4.25284 17.2762C4.20478 17.1955 4.18952 17.0994 4.21022 17.0078C4.23092 16.9162 4.286 16.836 4.36409 16.7838L6.91902 15.21L4.73882 16.4714C4.65569 16.5172 4.55804 16.5289 4.46641 16.5042C4.37478 16.4795 4.2963 16.4202 4.24748 16.3388C4.19867 16.2574 4.18331 16.1602 4.20465 16.0678C4.22599 15.9753 4.28235 15.8947 4.36189 15.8429L10.5043 12.0054L4.73882 15.3332C4.65598 15.3775 4.5593 15.3883 4.46873 15.3634C4.37816 15.3385 4.3006 15.2797 4.25207 15.1993C4.20353 15.1189 4.18771 15.0229 4.20787 14.9312C4.22803 14.8394 4.28264 14.7589 4.36042 14.7062L11.289 10.3312L4.73882 14.1122C4.65635 14.1584 4.55925 14.1709 4.46778 14.1472C4.37631 14.1234 4.29753 14.0653 4.24787 13.9849C4.19821 13.9045 4.18151 13.808 4.20125 13.7156C4.22099 13.6232 4.27565 13.542 4.35382 13.4889L13.7354 7.31131L4.73882 12.5048C4.65615 12.551 4.55882 12.5634 4.46721 12.5394C4.37559 12.5155 4.2968 12.457 4.24732 12.3762C4.19785 12.2955 4.18154 12.1987 4.2018 12.1062C4.22206 12.0137 4.27733 11.9326 4.35602 11.88L10.4566 7.90677L4.73662 11.2068C4.6537 11.2524 4.55635 11.2641 4.46494 11.2396C4.37353 11.2151 4.29515 11.1562 4.24618 11.0752C4.19721 10.9942 4.18145 10.8974 4.20219 10.8051C4.22294 10.7128 4.27858 10.632 4.35749 10.5798L5.19276 10.051L4.73662 10.3136C4.65441 10.3585 4.55812 10.3702 4.46754 10.3463C4.37695 10.3225 4.29893 10.2648 4.24949 10.1853C4.20004 10.1057 4.18293 10.0103 4.20164 9.91847C4.22036 9.82669 4.2735 9.74555 4.35016 9.69171L8.60349 6.86324L4.73882 9.09331C4.65679 9.13828 4.56066 9.15019 4.47013 9.12661C4.3796 9.10302 4.30151 9.04573 4.25184 8.96644C4.20217 8.88716 4.18469 8.7919 4.20296 8.70015C4.22124 8.6084 4.2739 8.5271 4.35016 8.47291L7.64062 6.24797L4.73882 7.92584C4.65685 7.97354 4.55959 7.98762 4.46746 7.96513C4.37533 7.94265 4.29549 7.88533 4.24471 7.80523C4.19394 7.72513 4.17618 7.62847 4.19515 7.53556C4.21413 7.44264 4.26837 7.36068 4.34649 7.30691L6.95349 5.49997L4.73882 6.77744C4.6583 6.82275 4.56365 6.836 4.47378 6.81453C4.38392 6.79306 4.30547 6.73845 4.25413 6.66163C4.2028 6.58481 4.18235 6.49144 4.19689 6.4002C4.21143 6.30896 4.25989 6.22656 4.33256 6.16951L7.37002 3.83017L4.73882 5.34817C4.66069 5.39569 4.56762 5.41229 4.47788 5.39473C4.38814 5.37716 4.3082 5.3267 4.25374 5.25323C4.19929 5.17977 4.17425 5.08861 4.18354 4.99764C4.19283 4.90667 4.23578 4.82245 4.30396 4.76151L6.55162 2.64731L4.73882 3.69377C4.66587 3.73541 4.58084 3.75074 4.49794 3.73719C4.41505 3.72365 4.33931 3.68206 4.28341 3.61937C4.22751 3.55668 4.19482 3.4767 4.19082 3.3928C4.18681 3.3089 4.21174 3.22617 4.26142 3.15844L5.14142 1.96971C5.05612 2.0098 4.95865 2.0155 4.86926 1.98562C4.77987 1.95575 4.70541 1.8926 4.66134 1.80928C4.61728 1.72597 4.60699 1.62888 4.63261 1.53817C4.65824 1.44747 4.71781 1.37012 4.79896 1.32217L6.30156 0.454641C6.37458 0.412677 6.45982 0.397132 6.54296 0.410619C6.6261 0.424105 6.70206 0.465801 6.75807 0.528698C6.81408 0.591595 6.84674 0.671858 6.85054 0.755995C6.85434 0.840132 6.82907 0.923014 6.77896 0.990708L5.89896 2.17724L8.91296 0.439975C8.99108 0.393222 9.08381 0.377208 9.17309 0.395049C9.26237 0.41289 9.34182 0.46331 9.39598 0.536498C9.45014 0.609685 9.47513 0.700405 9.4661 0.791002C9.45706 0.8816 9.41464 0.965594 9.34709 1.02664L7.10016 3.13864L11.7781 0.439975C11.8586 0.393737 11.9537 0.379792 12.0442 0.400955C12.1346 0.422119 12.2136 0.476813 12.2653 0.553993C12.317 0.631172 12.3374 0.725085 12.3225 0.816762C12.3077 0.90844 12.2585 0.99105 12.1851 1.04791L9.14762 3.38724L14.2538 0.439975C14.3356 0.39427 14.4318 0.381612 14.5226 0.404599C14.6135 0.427587 14.6921 0.484475 14.7423 0.563586C14.7925 0.642696 14.8105 0.738025 14.7926 0.830002C14.7747 0.921979 14.7223 1.00362 14.6462 1.05817L12.0443 2.85997L16.2412 0.439975C16.3232 0.395003 16.4193 0.38309 16.5098 0.406674C16.6004 0.430258 16.6785 0.487555 16.7281 0.566836C16.7778 0.646116 16.7953 0.741383 16.777 0.833134C16.7587 0.924885 16.7061 1.00618 16.6298 1.06037L13.3335 3.28531L18.2681 0.439975C18.3504 0.393849 18.4473 0.381209 18.5386 0.404682C18.63 0.428155 18.7088 0.485935 18.7586 0.56601C18.8085 0.646085 18.8256 0.742295 18.8063 0.834639C18.7871 0.926983 18.733 1.00836 18.6553 1.06184L14.4027 3.88664L20.3794 0.439975C20.4624 0.392527 20.5607 0.379392 20.6532 0.40337C20.7458 0.427347 20.8253 0.48654 20.8749 0.568327C20.9244 0.650114 20.9401 0.748023 20.9185 0.841175C20.8969 0.934328 20.8397 1.01535 20.7592 1.06697L19.9225 1.59644L21.9267 0.439975C22.0092 0.395713 22.1054 0.384661 22.1958 0.409083C22.2861 0.433504 22.3637 0.49155 22.4126 0.571328C22.4616 0.651107 22.4782 0.746579 22.459 0.838184C22.4398 0.929789 22.3863 1.01059 22.3095 1.06404L16.2082 5.03651L24.1729 0.439975C24.2554 0.392111 24.3534 0.378315 24.446 0.401517C24.5385 0.424719 24.6184 0.483091 24.6686 0.564234C24.7188 0.645377 24.7354 0.742899 24.7149 0.836087C24.6943 0.929275 24.6383 1.01079 24.5586 1.06331L15.1764 7.24017L26.9581 0.439975C27.041 0.394372 27.1384 0.382599 27.2298 0.407119C27.3212 0.43164 27.3996 0.490553 27.4485 0.571538C27.4975 0.652523 27.5133 0.749306 27.4925 0.841644C27.4718 0.933981 27.4161 1.01472 27.3372 1.06697L20.4124 5.43764L28.3566 0.851375C28.4397 0.805588 28.5373 0.793819 28.629 0.818545C28.7206 0.843271 28.7991 0.902563 28.8479 0.983956C28.8967 1.06535 28.9121 1.1625 28.8907 1.25498C28.8694 1.34746 28.813 1.42806 28.7335 1.47984L22.5999 5.31224L29.0122 1.61331C29.0957 1.56352 29.1956 1.54895 29.2899 1.57281C29.3841 1.59667 29.4651 1.65701 29.5149 1.74054C29.5646 1.82408 29.5792 1.92397 29.5553 2.01824C29.5315 2.11252 29.4712 2.19345 29.3876 2.24324L26.8268 3.81917L29.2468 2.41997C29.3297 2.37437 29.4271 2.3626 29.5185 2.38712C29.6099 2.41164 29.6883 2.47055 29.7373 2.55154C29.7862 2.63252 29.802 2.72931 29.7813 2.82164C29.7605 2.91398 29.7049 2.99472 29.626 3.04697L20.9873 8.48537L29.2622 3.70844C29.3453 3.66409 29.4422 3.65337 29.5329 3.67852C29.6236 3.70367 29.7012 3.76276 29.7496 3.84354C29.7979 3.92432 29.8134 4.02061 29.7927 4.11245C29.772 4.2043 29.7167 4.28467 29.6384 4.33691L24.3225 7.63691L29.2637 4.78424C29.3467 4.73561 29.4454 4.72153 29.5387 4.74504C29.6319 4.76854 29.7122 4.82775 29.7623 4.90989C29.8123 4.99204 29.828 5.09055 29.8061 5.18419C29.7842 5.27783 29.7263 5.35911 29.645 5.41051L17.6748 13.1046L29.2615 6.41371C29.3442 6.36821 29.4413 6.35638 29.5325 6.38067C29.6238 6.40497 29.7021 6.46352 29.7513 6.54413C29.8004 6.62475 29.8166 6.72121 29.7964 6.81344C29.7762 6.90567 29.7212 6.98655 29.6428 7.03924L17.4328 14.9064L29.2659 8.07471C29.349 8.03091 29.4457 8.02068 29.5362 8.04612C29.6266 8.07157 29.7038 8.13075 29.7519 8.21146C29.7999 8.29217 29.8152 8.38825 29.7945 8.47988C29.7738 8.57151 29.7187 8.6517 29.6406 8.70391L28.1864 9.59637L29.2666 8.97304C29.35 8.92696 29.448 8.91511 29.5399 8.94002C29.6318 8.96492 29.7105 9.02462 29.7592 9.10647C29.8078 9.18832 29.8228 9.28591 29.8008 9.37857C29.7788 9.47124 29.7216 9.55172 29.6414 9.60297L27.5147 10.9098L29.2674 9.89997C29.3505 9.85486 29.448 9.84366 29.5392 9.86872C29.6305 9.89377 29.7085 9.95314 29.757 10.0344C29.8055 10.1157 29.8207 10.2125 29.7994 10.3048C29.7781 10.397 29.722 10.4774 29.6428 10.5292L26.5548 12.4358L29.2681 10.8694C29.3512 10.819 29.451 10.8036 29.5455 10.8267C29.64 10.8498 29.7214 10.9095 29.7719 10.9926C29.8224 11.0758 29.8377 11.1756 29.8146 11.2701C29.7915 11.3645 29.7318 11.446 29.6487 11.4964L18.5585 18.5731L29.2688 12.3933C29.352 12.3475 29.4496 12.3357 29.5412 12.3605C29.6329 12.3852 29.7113 12.4445 29.7602 12.5259C29.809 12.6073 29.8243 12.7044 29.803 12.7969C29.7817 12.8894 29.7253 12.97 29.6458 13.0218L23.8649 16.6151L29.2696 13.4948C29.3525 13.4461 29.4513 13.4321 29.5446 13.4556C29.6378 13.4791 29.7181 13.5383 29.7681 13.6204C29.8181 13.7026 29.8339 13.8011 29.812 13.8947C29.79 13.9884 29.7322 14.0696 29.6509 14.121L18.274 21.3986L29.274 15.0494C29.3569 15.0008 29.4557 14.9867 29.549 15.0102C29.6422 15.0337 29.7225 15.0929 29.7725 15.1751C29.8225 15.2572 29.8383 15.3557 29.8164 15.4494C29.7944 15.543 29.7366 15.6243 29.6553 15.6757L18.0767 23.0948L29.2718 16.6312C29.3543 16.5858 29.4511 16.5738 29.5422 16.5979C29.6333 16.622 29.7117 16.6802 29.761 16.7604C29.8104 16.8407 29.8269 16.9369 29.8072 17.029C29.7875 17.1212 29.7331 17.2022 29.6553 17.2553L18.9904 24.178L29.2732 18.238C29.3563 18.1873 29.456 18.1717 29.5506 18.1946C29.6451 18.2175 29.7267 18.277 29.7774 18.3601C29.8281 18.4431 29.8437 18.5429 29.8208 18.6374C29.7979 18.732 29.7383 18.8136 29.6553 18.8642L22.352 23.5576L29.274 19.5616C29.3563 19.5162 29.453 19.5041 29.544 19.5279C29.635 19.5517 29.7133 19.6096 29.7629 19.6895C29.8124 19.7695 29.8293 19.8654 29.8101 19.9575C29.7909 20.0496 29.7371 20.1307 29.6597 20.1842L22.3176 25.0242L29.2754 21.007C29.358 20.9601 29.4556 20.947 29.5477 20.9706C29.6397 20.9942 29.719 21.0526 29.7689 21.1335C29.8187 21.2145 29.8351 21.3116 29.8148 21.4044C29.7944 21.4972 29.7388 21.5785 29.6597 21.6311L25.091 24.6194L29.2762 22.2038C29.3579 22.1561 29.455 22.1418 29.5471 22.164C29.6392 22.1862 29.7191 22.2432 29.7701 22.323C29.8211 22.4028 29.8392 22.4993 29.8207 22.5922C29.8021 22.685 29.7484 22.7672 29.6707 22.8213L23.5444 27.1384L29.2776 23.8333C29.3591 23.7861 29.4557 23.772 29.5472 23.794C29.6388 23.816 29.7184 23.8724 29.7695 23.9515C29.8206 24.0307 29.8393 24.1264 29.8218 24.219C29.8042 24.3115 29.7517 24.3937 29.6751 24.4486L25.4218 27.5036L29.282 25.2758C29.3622 25.2298 29.4568 25.2159 29.5469 25.2367C29.6369 25.2575 29.7158 25.3115 29.7677 25.388C29.8196 25.4645 29.8407 25.5577 29.8268 25.6491C29.8129 25.7405 29.765 25.8232 29.6927 25.8808L26.1815 28.6447L29.2798 26.8554C29.3611 26.8091 29.4569 26.7957 29.5478 26.8178C29.6386 26.8399 29.7176 26.8959 29.7686 26.9743C29.8195 27.0527 29.8386 27.1475 29.8219 27.2395C29.8052 27.3315 29.754 27.4137 29.6788 27.4692L29.3275 27.7251C29.4078 27.6932 29.4967 27.6906 29.5787 27.7179C29.6607 27.7452 29.7304 27.8005 29.7755 27.8742C29.8207 27.9478 29.8384 28.0351 29.8255 28.1205C29.8126 28.2059 29.77 28.284 29.7052 28.3411L28.5868 29.3157L29.2791 28.916C29.35 28.876 29.4323 28.8607 29.5129 28.8726C29.5935 28.8846 29.6678 28.923 29.7242 28.9818C29.7805 29.0407 29.8156 29.1166 29.824 29.1977C29.8324 29.2787 29.8135 29.3602 29.7704 29.4294L29.1251 30.4333L29.2828 30.3424C29.3245 30.3158 29.3712 30.298 29.42 30.29C29.4687 30.282 29.5187 30.2839 29.5667 30.2957C29.6147 30.3074 29.6599 30.3288 29.6994 30.3585C29.739 30.3881 29.7722 30.4255 29.7969 30.4683C29.8217 30.5111 29.8375 30.5585 29.8435 30.6076C29.8494 30.6567 29.8454 30.7065 29.8316 30.754C29.8178 30.8015 29.7946 30.8457 29.7633 30.884C29.732 30.9222 29.6932 30.9538 29.6494 30.9767L28.1754 31.8274C28.1042 31.8685 28.0212 31.8845 27.9398 31.8728C27.8585 31.8611 27.7834 31.8224 27.7266 31.7628C27.6699 31.7032 27.6348 31.6263 27.6271 31.5443C27.6194 31.4624 27.6395 31.3802 27.6841 31.3111L28.3324 30.3079L25.6924 31.8296C25.6135 31.8747 25.5208 31.8889 25.4321 31.8695C25.3433 31.8502 25.265 31.7985 25.2121 31.7247C25.1593 31.6509 25.1357 31.56 25.146 31.4698C25.1563 31.3796 25.1996 31.2964 25.2678 31.2363L26.3868 30.2654L23.6691 31.834C23.5878 31.8802 23.492 31.8936 23.4011 31.8715C23.3103 31.8494 23.2313 31.7935 23.1804 31.7151C23.1294 31.6367 23.1103 31.5418 23.127 31.4498C23.1437 31.3578 23.1949 31.2757 23.2702 31.2202L23.5921 30.9862L22.1203 31.8354C22.0401 31.8805 21.9459 31.8938 21.8564 31.8727C21.7669 31.8516 21.6886 31.7977 21.637 31.7215C21.5854 31.6454 21.5643 31.5526 21.5779 31.4617C21.5915 31.3707 21.6388 31.2882 21.7104 31.2304L25.2208 28.4672L19.382 31.8406C19.3005 31.8878 19.204 31.9019 19.1124 31.8799C19.0208 31.8579 18.9412 31.8014 18.8901 31.7223C18.839 31.6432 18.8203 31.5475 18.8379 31.4549C18.8555 31.3624 18.908 31.2802 18.9846 31.2253L23.2379 28.171L16.8777 31.8428C16.7959 31.8905 16.6988 31.9048 16.6067 31.8826C16.5147 31.8604 16.4348 31.8034 16.3838 31.7236C16.3328 31.6438 16.3146 31.5473 16.3332 31.4544C16.3517 31.3616 16.4054 31.2794 16.4832 31.2253L22.6102 26.906L14.061 31.842C13.9784 31.8875 13.8816 31.8994 13.7905 31.8754C13.6994 31.8513 13.621 31.7931 13.5717 31.7128C13.5224 31.6326 13.5058 31.5364 13.5255 31.4442C13.5452 31.3521 13.5996 31.2711 13.6774 31.218L18.2468 28.2282L11.9834 31.8442C11.901 31.8904 11.8039 31.9029 11.7124 31.8791C11.6209 31.8554 11.5421 31.7973 11.4925 31.7169C11.4428 31.6365 11.4261 31.54 11.4459 31.4476C11.4656 31.3552 11.5203 31.274 11.5984 31.2209L18.9384 26.3809L9.47176 31.8464C9.38878 31.8951 9.29002 31.9091 9.19676 31.8856C9.1035 31.8621 9.02321 31.8029 8.97319 31.7208C8.92317 31.6386 8.90743 31.5401 8.92936 31.4465C8.95129 31.3528 9.00913 31.2716 9.09042 31.2202L16.3937 26.5268L7.17349 31.8486C7.11719 31.8823 7.05281 31.9 6.98722 31.9V31.9Z" fill="#3B2186"/>
<path d="M20.1578 20.1542C20.0897 20.1542 20.023 20.1353 19.9651 20.0995C19.9071 20.0637 19.8603 20.0124 19.8299 19.9515C19.7994 19.8906 19.7865 19.8225 19.7927 19.7546C19.7988 19.6868 19.8236 19.622 19.8645 19.5676L20.6932 18.4962L17.9358 20.0882C17.8568 20.1336 17.7638 20.148 17.6748 20.1285C17.5858 20.109 17.5072 20.0571 17.4544 19.9829C17.4016 19.9086 17.3783 19.8174 17.3891 19.7269C17.3999 19.6365 17.4439 19.5532 17.5127 19.4935L18.9794 18.2263L17.9395 18.8262C17.8614 18.8737 17.7683 18.8903 17.6786 18.8727C17.5888 18.8552 17.5089 18.8047 17.4544 18.7312C17.4 18.6578 17.3749 18.5666 17.3842 18.4756C17.3935 18.3847 17.4365 18.3004 17.5046 18.2395L19.5814 16.28L17.9388 17.2282C17.86 17.2732 17.7674 17.2874 17.6788 17.2681C17.5903 17.2487 17.512 17.1973 17.4591 17.1236C17.4062 17.05 17.3825 16.9593 17.3926 16.8692C17.4026 16.7791 17.4457 16.6959 17.5134 16.6357L19.0835 15.2578L17.9388 15.9178C17.8592 15.9622 17.766 15.9754 17.6773 15.9548C17.5885 15.9342 17.5106 15.8813 17.4587 15.8065C17.4068 15.7316 17.3847 15.6401 17.3965 15.5498C17.4084 15.4595 17.4535 15.3768 17.523 15.3179L18.4587 14.5464L17.9388 14.8464C17.8653 14.8884 17.7796 14.9037 17.6962 14.8897C17.6128 14.8758 17.5367 14.8334 17.481 14.7698C17.4252 14.7062 17.3932 14.6252 17.3903 14.5407C17.3874 14.4561 17.4138 14.3732 17.465 14.3059L18.4785 12.9859L17.9388 13.2968C17.8752 13.3334 17.802 13.35 17.7289 13.3445C17.6557 13.3391 17.5859 13.3118 17.5284 13.2662C17.4709 13.2207 17.4284 13.1589 17.4064 13.0889C17.3844 13.0189 17.3839 12.944 17.4049 12.8737L17.5809 12.287C17.5237 12.2559 17.4758 12.2102 17.4421 12.1544C17.4084 12.0987 17.3902 12.035 17.3893 11.9699C17.3884 11.9048 17.4049 11.8406 17.437 11.7839C17.4691 11.7273 17.5158 11.6802 17.5721 11.6476L17.9388 11.4342C18.0024 11.3974 18.0756 11.3806 18.1489 11.3859C18.2222 11.3913 18.2922 11.4185 18.3498 11.4641C18.4075 11.5097 18.45 11.5716 18.4721 11.6417C18.4941 11.7118 18.4946 11.7869 18.4734 11.8573L18.3714 12.1954L19.7046 11.4254C19.7781 11.383 19.8639 11.3673 19.9476 11.3811C20.0313 11.3949 20.1076 11.4373 20.1635 11.501C20.2195 11.5647 20.2516 11.6459 20.2545 11.7306C20.2573 11.8154 20.2307 11.8985 20.1791 11.9658L19.1656 13.2858L21.9259 11.6923C22.0056 11.647 22.0993 11.6331 22.1887 11.6535C22.278 11.6738 22.3566 11.7269 22.4087 11.8023C22.4609 11.8776 22.483 11.9698 22.4705 12.0606C22.4581 12.1514 22.4122 12.2343 22.3417 12.2929L21.4074 13.0622L21.9288 12.7615C22.0077 12.7157 22.1008 12.7009 22.1899 12.72C22.2791 12.7391 22.3579 12.7908 22.411 12.8649C22.4642 12.939 22.4878 13.0302 22.4773 13.1208C22.4667 13.2114 22.4229 13.2948 22.3542 13.3548L20.787 14.74L21.9347 14.08C22.0128 14.0325 22.1059 14.0159 22.1956 14.0335C22.2854 14.051 22.3653 14.1015 22.4198 14.175C22.4742 14.2484 22.4993 14.3396 22.49 14.4306C22.4807 14.5215 22.4377 14.6058 22.3696 14.6667L20.2913 16.6276L21.9398 15.6743C22.0188 15.6289 22.1119 15.6145 22.2009 15.634C22.2899 15.6535 22.3685 15.7054 22.4213 15.7797C22.4741 15.8539 22.4974 15.9451 22.4866 16.0356C22.4758 16.1261 22.4317 16.2093 22.363 16.269L20.9014 17.5267L21.9428 16.9261C22.0163 16.8837 22.1022 16.8682 22.1859 16.8821C22.2696 16.896 22.3458 16.9385 22.4017 17.0023C22.4576 17.0661 22.4896 17.1474 22.4923 17.2322C22.495 17.3169 22.4682 17.4 22.4165 17.4673L21.5871 18.5394L21.9472 18.3334C22.0114 18.2962 22.0853 18.2794 22.1592 18.2852C22.2332 18.2909 22.3036 18.319 22.3613 18.3656C22.419 18.4122 22.4611 18.4753 22.4823 18.5464C22.5034 18.6175 22.5024 18.6933 22.4796 18.7638L22.3204 19.253C22.3746 19.2848 22.4193 19.3303 22.4502 19.385C22.4986 19.4691 22.5117 19.569 22.4865 19.6628C22.4613 19.7565 22.4 19.8365 22.316 19.8851L21.9494 20.0985C21.8854 20.1361 21.8115 20.1532 21.7375 20.1474C21.6635 20.1417 21.5931 20.1133 21.5358 20.0662C21.4781 20.0196 21.436 19.9565 21.4149 19.8855C21.3938 19.8144 21.3948 19.7386 21.4177 19.668L21.491 19.448L20.3448 20.108C20.2879 20.1402 20.2232 20.1562 20.1578 20.1542V20.1542Z" fill="#D3B571"/>
<path d="M13.8671 20.1563C13.7979 20.1563 13.7301 20.1367 13.6716 20.0998C13.6131 20.0629 13.5662 20.0102 13.5364 19.9478C13.5065 19.8853 13.495 19.8157 13.503 19.747C13.5111 19.6783 13.5384 19.6133 13.5818 19.5594L14.7266 18.1477L12.0807 19.6745C12.0001 19.7293 11.901 19.7498 11.8053 19.7315C11.7096 19.7132 11.6251 19.6576 11.5703 19.577C11.5156 19.4964 11.4951 19.3973 11.5134 19.3016C11.5317 19.2059 11.5872 19.1214 11.6678 19.0666L12.0059 18.8019C11.9272 18.8253 11.8428 18.8217 11.7664 18.7915C11.69 18.7613 11.626 18.7064 11.5845 18.6354C11.5431 18.5645 11.5267 18.4817 11.5379 18.4003C11.5492 18.3189 11.5875 18.2436 11.6466 18.1866L13.5532 16.4266L12.0719 17.2809C11.9943 17.3276 11.9022 17.344 11.8133 17.3268C11.7244 17.3097 11.645 17.2603 11.5904 17.1881C11.5358 17.1158 11.5098 17.026 11.5174 16.9358C11.5251 16.8455 11.5659 16.7614 11.6319 16.6994L13.8128 14.5969L12.0646 15.606C11.9856 15.6514 11.8925 15.6658 11.8035 15.6463C11.7145 15.6268 11.636 15.5749 11.5831 15.5007C11.5303 15.4264 11.507 15.3352 11.5178 15.2447C11.5286 15.1542 11.5727 15.071 11.6414 15.0113L12.828 13.9846L12.0616 14.4246C11.9872 14.4676 11.9001 14.4832 11.8154 14.4684C11.7307 14.4537 11.6539 14.4097 11.5983 14.3441C11.5427 14.2786 11.512 14.1955 11.5115 14.1096C11.5109 14.0236 11.5406 13.9402 11.5952 13.8739L12.2552 13.0709L12.0565 13.1853C11.9923 13.2225 11.9182 13.2394 11.8442 13.2336C11.7701 13.2279 11.6996 13.1997 11.6418 13.153C11.5841 13.1063 11.542 13.0431 11.5209 12.9718C11.4999 12.9006 11.501 12.8247 11.5241 12.7541L11.6818 12.2737C11.628 12.242 11.5836 12.1967 11.5527 12.1425C11.5043 12.0583 11.4913 11.9584 11.5164 11.8647C11.5416 11.7709 11.6029 11.691 11.6869 11.6423L12.0536 11.4289C12.1178 11.3919 12.1918 11.3753 12.2657 11.3812C12.3396 11.3871 12.41 11.4152 12.4675 11.4619C12.5251 11.5086 12.5672 11.5717 12.5882 11.6428C12.6092 11.7139 12.6082 11.7896 12.5852 11.8601L12.5163 12.0721L13.6442 11.4209C13.7186 11.3783 13.8056 11.3631 13.89 11.378C13.9744 11.3929 14.051 11.4369 14.1063 11.5024C14.1617 11.5678 14.1923 11.6506 14.193 11.7363C14.1936 11.8221 14.1642 11.9053 14.1098 11.9716L13.4498 12.7783L15.8156 11.4128C15.8947 11.3665 15.9883 11.3515 16.0779 11.3707C16.1675 11.39 16.2467 11.4421 16.2998 11.5168C16.3529 11.5915 16.376 11.6835 16.3647 11.7744C16.3534 11.8654 16.3085 11.9488 16.2387 12.0083L15.0544 13.0298L16.0466 12.4666C16.1241 12.4199 16.2163 12.4036 16.3052 12.4207C16.3941 12.4379 16.4735 12.4873 16.5281 12.5595C16.5827 12.6317 16.6087 12.7216 16.601 12.8118C16.5934 12.902 16.5526 12.9862 16.4866 13.0481L14.2998 15.1506L16.0546 14.1379C16.1327 14.0932 16.2245 14.0787 16.3126 14.0973C16.4006 14.1159 16.4788 14.1662 16.5321 14.2387C16.5855 14.3111 16.6103 14.4007 16.6019 14.4903C16.5935 14.5799 16.5525 14.6633 16.4866 14.7245L14.5799 16.4794L16.0634 15.6236C16.1437 15.5783 16.2381 15.5648 16.3278 15.5859C16.4176 15.6071 16.496 15.6612 16.5476 15.7376C16.5993 15.814 16.6202 15.907 16.6063 15.9981C16.5924 16.0893 16.5447 16.1718 16.4726 16.2293L16.1346 16.4948C16.2098 16.4696 16.2911 16.4695 16.3664 16.4944C16.4416 16.5194 16.5068 16.568 16.5521 16.6331C16.5973 16.6982 16.6203 16.7763 16.6175 16.8555C16.6147 16.9348 16.5862 17.011 16.5364 17.0727L15.3954 18.4836L16.0766 18.0905C16.1394 18.0542 16.2115 18.0372 16.2839 18.0418C16.3562 18.0464 16.4256 18.0724 16.4832 18.1164C16.5408 18.1605 16.5841 18.2206 16.6075 18.2892C16.631 18.3578 16.6335 18.4319 16.6149 18.5019L16.4198 19.2353C16.4882 19.266 16.5454 19.3173 16.5834 19.3819C16.6318 19.4661 16.6448 19.566 16.6197 19.6597C16.5945 19.7535 16.5332 19.8335 16.4492 19.8821L16.0781 20.0962C16.0154 20.1323 15.9434 20.1491 15.8711 20.1444C15.7989 20.1397 15.7297 20.1137 15.6722 20.0697C15.6147 20.0257 15.5716 19.9657 15.5481 19.8972C15.5247 19.8287 15.5221 19.7548 15.5406 19.6848L15.6784 19.1671L14.0512 20.1065C13.9954 20.1392 13.9318 20.1565 13.8671 20.1563V20.1563Z" fill="#D3B571"/>
<path d="M17.6741 20.1513C17.6146 20.1514 17.556 20.137 17.5034 20.1094C17.4507 20.0818 17.4056 20.0418 17.3718 19.9929C17.338 19.944 17.3166 19.8876 17.3095 19.8285C17.3024 19.7695 17.3097 19.7096 17.3309 19.6541L17.7526 18.5453L15.7388 19.7076C15.6607 19.7551 15.5676 19.7717 15.4779 19.7542C15.3881 19.7366 15.3082 19.6861 15.2537 19.6127C15.1993 19.5392 15.1742 19.4481 15.1835 19.3571C15.1928 19.2661 15.2358 19.1819 15.304 19.121L15.9134 18.5482L15.7388 18.6487C15.6611 18.693 15.5699 18.7074 15.4824 18.6891C15.3948 18.6709 15.317 18.6213 15.2634 18.5497C15.2099 18.478 15.1844 18.3893 15.1917 18.3001C15.1991 18.211 15.2387 18.1276 15.3032 18.0657L15.9823 17.4174L15.7388 17.5575C15.6607 17.6028 15.5686 17.6178 15.4802 17.5994C15.3917 17.5811 15.3132 17.5307 15.2596 17.458C15.206 17.3854 15.1811 17.2954 15.1897 17.2055C15.1983 17.1156 15.2397 17.032 15.3062 16.9708L15.8078 16.5066L15.7388 16.5455C15.6616 16.5894 15.5711 16.6039 15.484 16.5861C15.397 16.5683 15.3193 16.5195 15.2655 16.4488C15.2118 16.3781 15.1855 16.2902 15.1916 16.2016C15.1977 16.113 15.2358 16.0296 15.2988 15.9669L16.1517 15.1265L15.7388 15.3641C15.6634 15.4072 15.5751 15.4222 15.4897 15.4063C15.4043 15.3904 15.3273 15.3447 15.2725 15.2773C15.2176 15.21 15.1885 15.1253 15.1902 15.0385C15.1919 14.9516 15.2245 14.8682 15.282 14.8031L16.6592 13.2565L15.7388 13.7874C15.6628 13.8315 15.5735 13.8468 15.4871 13.8306C15.4008 13.8144 15.3231 13.7676 15.2683 13.699C15.2135 13.6303 15.1852 13.5442 15.1885 13.4564C15.1918 13.3686 15.2265 13.2849 15.2864 13.2206L16.533 11.8756L15.741 12.3325C15.6629 12.3785 15.5705 12.394 15.4817 12.3759C15.3928 12.3578 15.3138 12.3074 15.2599 12.2345C15.2061 12.1615 15.1811 12.0712 15.1899 11.981C15.1987 11.8907 15.2407 11.807 15.3076 11.7458L15.8041 11.2853L15.741 11.3205C15.6749 11.3586 15.5985 11.3751 15.5225 11.3677C15.4465 11.3603 15.3747 11.3294 15.3172 11.2793C15.2596 11.2291 15.2191 11.1623 15.2014 11.088C15.1836 11.0138 15.1895 10.9358 15.2182 10.8651L15.7102 9.65876C15.6239 9.68743 15.5299 9.68296 15.4467 9.64623C15.3634 9.60949 15.2968 9.54311 15.2598 9.45999C15.2227 9.37687 15.2179 9.28295 15.2463 9.19649C15.2747 9.11003 15.3342 9.0372 15.4132 8.99216L16.2668 8.5067C16.333 8.46844 16.4095 8.45185 16.4857 8.45923C16.5618 8.46662 16.6337 8.49761 16.6913 8.54788C16.7489 8.59815 16.7894 8.66517 16.807 8.73958C16.8247 8.81398 16.8186 8.89204 16.7897 8.96283L16.3035 10.1567L18.241 9.03763C18.3191 8.99227 18.4112 8.97733 18.4996 8.99568C18.588 9.01403 18.6666 9.06438 18.7202 9.13707C18.7738 9.20976 18.7987 9.29968 18.7901 9.38959C18.7815 9.4795 18.74 9.56308 18.6736 9.62429L18.1786 10.0848L18.2652 10.0357C18.3411 9.99213 18.4301 9.97716 18.5161 9.9935C18.6021 10.0098 18.6794 10.0564 18.7341 10.1248C18.7887 10.1932 18.8171 10.2789 18.8141 10.3664C18.8111 10.4538 18.7769 10.5374 18.7176 10.6018L17.471 11.9475L18.2644 11.4899C18.3398 11.4468 18.4281 11.4318 18.5135 11.4477C18.5989 11.4636 18.6759 11.5093 18.7308 11.5767C18.7856 11.644 18.8148 11.7287 18.813 11.8155C18.8113 11.9024 18.7788 11.9858 18.7213 12.0509L17.3441 13.5982L18.2688 13.0651C18.346 13.0211 18.4366 13.0067 18.5236 13.0245C18.6107 13.0423 18.6883 13.0911 18.7421 13.1618C18.7959 13.2325 18.8222 13.3204 18.816 13.409C18.8099 13.4976 18.7718 13.581 18.7088 13.6437L17.8567 14.4834L18.271 14.2443C18.3491 14.1989 18.4412 14.184 18.5297 14.2023C18.6181 14.2207 18.6967 14.271 18.7503 14.3437C18.8039 14.4164 18.8288 14.5063 18.8202 14.5963C18.8116 14.6862 18.7701 14.7697 18.7037 14.831L18.2021 15.2959L18.2754 15.2541C18.3531 15.2092 18.4446 15.1943 18.5325 15.2123C18.6204 15.2304 18.6987 15.28 18.7525 15.3518C18.8062 15.4237 18.8318 15.5128 18.8243 15.6022C18.8168 15.6916 18.7768 15.7752 18.7118 15.8371L18.0312 16.4861L18.2784 16.3394C18.3565 16.2919 18.4496 16.2753 18.5393 16.2929C18.629 16.3104 18.709 16.3609 18.7634 16.4344C18.8179 16.5078 18.8429 16.599 18.8336 16.69C18.8244 16.7809 18.7814 16.8651 18.7132 16.9261L18.1046 17.4988L18.2813 17.3976C18.3468 17.3597 18.4225 17.343 18.4978 17.3498C18.5732 17.3566 18.6447 17.3865 18.7024 17.4355C18.7601 17.4845 18.8012 17.5502 18.8201 17.6235C18.8389 17.6968 18.8347 17.7742 18.8078 17.845L18.3788 18.9728C18.4645 18.9515 18.5549 18.9617 18.6336 19.0017C18.7123 19.0416 18.774 19.1087 18.8072 19.1904C18.8405 19.2722 18.8431 19.3632 18.8147 19.4468C18.7862 19.5303 18.7286 19.6008 18.6524 19.6453L17.8611 20.1029C17.8042 20.1354 17.7396 20.1522 17.6741 20.1513V20.1513Z" fill="#F2CF7E"/>
<path d="M21.4071 16.4068C21.3349 16.407 21.2642 16.3858 21.2039 16.3458C21.1437 16.3059 21.0966 16.2491 21.0685 16.1825C21.0405 16.1159 21.0327 16.0425 21.0463 15.9715C21.0598 15.9005 21.094 15.8351 21.1446 15.7835L22.1713 14.7363L21.5912 15.0707C21.5132 15.1136 21.4222 15.1267 21.3352 15.1075C21.2483 15.0882 21.1713 15.038 21.1187 14.9661C21.066 14.8943 21.0413 14.8057 21.0492 14.717C21.0571 14.6283 21.097 14.5455 21.1615 14.484L21.5281 14.1489C21.451 14.1766 21.3667 14.1776 21.2889 14.1518C21.2111 14.126 21.1441 14.0749 21.0988 14.0066C21.0534 13.9383 21.0323 13.8567 21.0387 13.775C21.0452 13.6932 21.0788 13.616 21.1343 13.5556L22.4265 12.1469L21.5934 12.628C21.5158 12.6747 21.4237 12.691 21.3348 12.6739C21.2459 12.6567 21.1665 12.6073 21.1119 12.5351C21.0572 12.4629 21.0313 12.373 21.0389 12.2828C21.0466 12.1926 21.0874 12.1084 21.1534 12.0464L21.6557 11.5632L21.5912 11.5991C21.5229 11.6397 21.4431 11.6566 21.3642 11.6472C21.2853 11.6377 21.2117 11.6025 21.1549 11.547C21.0975 11.4924 21.0593 11.4207 21.0461 11.3425C21.0328 11.2644 21.0453 11.1841 21.0815 11.1136L21.4438 10.4133C21.3636 10.4124 21.2859 10.3852 21.2226 10.3359C21.1593 10.2865 21.1139 10.2178 21.0935 10.1402C21.073 10.0627 21.0785 9.9805 21.1092 9.90637C21.1399 9.83224 21.1941 9.77022 21.2634 9.72983L22.1155 9.2385C22.1837 9.19798 22.2634 9.18112 22.3422 9.19053C22.4209 9.19995 22.4944 9.23511 22.5511 9.29057C22.6085 9.34518 22.6467 9.41693 22.6599 9.49506C22.6732 9.57319 22.6607 9.6535 22.6245 9.72397L22.3062 10.3407L23.8836 9.4299C23.9612 9.3832 24.0533 9.36685 24.1422 9.384C24.2311 9.40115 24.3105 9.45059 24.3651 9.52279C24.4198 9.595 24.4457 9.68486 24.4381 9.77508C24.4304 9.86529 24.3896 9.94948 24.3236 10.0114L23.8235 10.4947L24.1168 10.3246C24.1927 10.2805 24.2818 10.2651 24.3681 10.2811C24.4543 10.2972 24.532 10.3437 24.5869 10.4121C24.6418 10.4805 24.6704 10.5663 24.6674 10.654C24.6645 10.7417 24.6302 10.8254 24.5707 10.89L23.2837 12.2965L24.1205 11.8132C24.1985 11.7703 24.2895 11.7572 24.3764 11.7765C24.4634 11.7957 24.5404 11.846 24.593 11.9178C24.6456 11.9897 24.6703 12.0782 24.6624 12.1669C24.6546 12.2556 24.6147 12.3385 24.5502 12.3999L24.1835 12.7336C24.2617 12.7054 24.3471 12.7046 24.4258 12.7313C24.5045 12.7581 24.5718 12.8107 24.6166 12.8807C24.6614 12.9507 24.6812 13.0338 24.6726 13.1165C24.664 13.1991 24.6275 13.2764 24.5693 13.3356L23.5426 14.3836L24.1293 14.047C24.171 14.0204 24.2177 14.0026 24.2665 13.9946C24.3153 13.9866 24.3652 13.9885 24.4132 14.0003C24.4612 14.012 24.5064 14.0334 24.546 14.0631C24.5855 14.0927 24.6187 14.1301 24.6434 14.1729C24.6682 14.2157 24.684 14.2631 24.69 14.3122C24.6959 14.3613 24.6919 14.4111 24.6781 14.4586C24.6643 14.5061 24.6411 14.5503 24.6098 14.5886C24.5785 14.6268 24.5397 14.6584 24.4959 14.6813L21.5905 16.3577C21.5349 16.3903 21.4715 16.4072 21.4071 16.4068V16.4068Z" fill="#F2CF7E"/>
<path d="M11.802 16.4143C11.7403 16.4143 11.6796 16.3988 11.6255 16.3691C11.5714 16.3394 11.5256 16.2965 11.4925 16.2445C11.4594 16.1924 11.4399 16.1328 11.4359 16.0712C11.432 16.0097 11.4436 15.9481 11.4698 15.8922L11.7528 15.2879L11.0004 15.7213C10.9273 15.7632 10.842 15.7785 10.7588 15.7648C10.6756 15.7511 10.5998 15.7092 10.5439 15.6461C10.488 15.583 10.4556 15.5026 10.4521 15.4184C10.4485 15.3342 10.4741 15.2513 10.5245 15.1838L11.2036 14.2811L9.92538 15.0188C9.84731 15.0629 9.75578 15.0768 9.66812 15.058C9.58045 15.0392 9.50271 14.9889 9.44961 14.9167C9.39651 14.8444 9.37172 14.7552 9.37993 14.6659C9.38814 14.5767 9.42879 14.4935 9.49418 14.4321L9.87991 14.0765L9.87185 14.0809C9.79372 14.1276 9.70099 14.1436 9.61171 14.1258C9.52243 14.1079 9.44298 14.0575 9.38882 13.9843C9.33466 13.9111 9.30967 13.8204 9.31871 13.7298C9.32774 13.6392 9.37016 13.5552 9.43771 13.4942L9.98845 12.9809L9.87185 13.0483C9.7954 13.092 9.7058 13.1066 9.61942 13.0897C9.53305 13.0727 9.45565 13.0252 9.40138 12.9559C9.34711 12.8866 9.31959 12.8001 9.32383 12.7122C9.32808 12.6243 9.36382 12.5408 9.42451 12.4771L10.3896 11.4731L9.87185 11.7716C9.8043 11.8098 9.72639 11.8256 9.6493 11.8167C9.57222 11.8078 9.49995 11.7747 9.44288 11.7221C9.38582 11.6695 9.34691 11.6002 9.33175 11.5241C9.31659 11.448 9.32596 11.369 9.35851 11.2986L9.77578 10.4105C9.70358 10.4212 9.62986 10.4096 9.56438 10.3774C9.49889 10.3452 9.44475 10.2938 9.40911 10.2301C9.36072 10.146 9.34768 10.0461 9.37283 9.95231C9.39799 9.85856 9.4593 9.77861 9.54331 9.72999L10.3947 9.23865C10.4622 9.20062 10.54 9.18493 10.6169 9.19384C10.6939 9.20275 10.766 9.23579 10.823 9.28823C10.88 9.34067 10.9189 9.40982 10.9342 9.48576C10.9495 9.56169 10.9403 9.64051 10.908 9.71092L10.5128 10.5535L12.261 9.54519C12.3375 9.50155 12.4271 9.48687 12.5135 9.50383C12.5998 9.52079 12.6772 9.56826 12.7315 9.63757C12.7858 9.70687 12.8133 9.79339 12.8091 9.88131C12.8048 9.96924 12.7691 10.0527 12.7084 10.1165L11.7484 11.1175L12.3945 10.7449C12.4726 10.6982 12.5654 10.6822 12.6546 10.7C12.7439 10.7178 12.8234 10.7683 12.8775 10.8414C12.9317 10.9146 12.9567 11.0054 12.9477 11.0959C12.9386 11.1865 12.8962 11.2705 12.8286 11.3316L12.2779 11.8449L12.3945 11.7782C12.4726 11.7341 12.5641 11.7201 12.6518 11.7389C12.7394 11.7578 12.8172 11.808 12.8703 11.8803C12.9234 11.9525 12.9482 12.0417 12.94 12.131C12.9318 12.2203 12.8911 12.3035 12.8257 12.3649L12.4312 12.7315C12.5055 12.6989 12.5884 12.6919 12.6671 12.7115C12.7458 12.7311 12.8158 12.7763 12.8661 12.8399C12.9164 12.9035 12.9442 12.9821 12.9451 13.0632C12.946 13.1443 12.92 13.2234 12.8712 13.2881L12.1921 14.1909L12.3952 14.0743C12.4627 14.0362 12.5405 14.0205 12.6175 14.0294C12.6944 14.0383 12.7665 14.0714 12.8235 14.1238C12.8805 14.1763 12.9195 14.2454 12.9348 14.3214C12.95 14.3973 12.9409 14.4761 12.9086 14.5465L12.5859 15.2359C12.6658 15.2379 12.7429 15.266 12.8053 15.3159C12.8678 15.3657 12.9123 15.4347 12.932 15.5121C12.9516 15.5896 12.9455 15.6714 12.9144 15.745C12.8833 15.8187 12.829 15.8801 12.7597 15.9201L11.9838 16.3681C11.9283 16.399 11.8656 16.415 11.802 16.4143V16.4143Z" fill="#F2CF7E"/>
<path d="M15.2964 4.74462C15.2194 4.74462 15.1444 4.7204 15.082 4.67541C15.0196 4.63041 14.9729 4.56691 14.9485 4.4939C14.9242 4.42089 14.9234 4.34208 14.9464 4.26862C14.9693 4.19517 15.0148 4.13079 15.0764 4.08462L15.1974 3.99295L13.9808 4.69328C13.9019 4.73852 13.809 4.75282 13.7201 4.73339C13.6313 4.71396 13.5528 4.6622 13.5 4.58816C13.4471 4.51412 13.4237 4.42309 13.4342 4.33275C13.4447 4.2424 13.4885 4.15919 13.5569 4.09928L14.8571 2.97142L11.8945 4.68155C11.8155 4.72694 11.7224 4.7413 11.6334 4.72182C11.5444 4.70234 11.4658 4.65043 11.413 4.57619C11.3602 4.50196 11.3369 4.41072 11.3477 4.32025C11.3585 4.22978 11.4025 4.14656 11.4713 4.08682L12.74 2.98682L10.8649 4.07288C10.7867 4.11892 10.6943 4.13438 10.6055 4.11628C10.5166 4.09818 10.4376 4.04779 10.3838 3.97486C10.3299 3.90193 10.3049 3.81163 10.3138 3.72138C10.3226 3.63114 10.3645 3.54736 10.4315 3.48622L11.3005 2.67955L10.6053 3.07995C10.5287 3.12361 10.439 3.13825 10.3526 3.12121C10.2662 3.10416 10.1888 3.05656 10.1345 2.98712C10.0803 2.91768 10.0529 2.83103 10.0574 2.74304C10.0618 2.65505 10.0977 2.5716 10.1587 2.50795L10.4153 2.24322C10.3579 2.2421 10.3015 2.22752 10.2508 2.20064C10.2 2.17375 10.1563 2.13532 10.1231 2.08844C10.09 2.04157 10.0682 1.98755 10.0598 1.93074C10.0513 1.87394 10.0563 1.81594 10.0743 1.76142L10.2313 1.28182C10.1786 1.25031 10.1351 1.20556 10.1051 1.15202C10.0808 1.1103 10.0649 1.06418 10.0585 1.01632C10.052 0.96846 10.0551 0.919793 10.0675 0.873116C10.0799 0.826439 10.1014 0.782672 10.1307 0.744328C10.1601 0.705985 10.1968 0.673821 10.2386 0.649683L10.6053 0.437749C10.6696 0.400634 10.7436 0.383915 10.8176 0.389804C10.8916 0.395693 10.9621 0.423912 11.0197 0.470728C11.0774 0.517545 11.1194 0.580753 11.1404 0.651991C11.1613 0.723229 11.1601 0.79914 11.1369 0.869683L11.0687 1.07722L12.1827 0.434816C12.2592 0.391158 12.3489 0.376512 12.4353 0.393558C12.5217 0.410605 12.5991 0.458204 12.6534 0.527646C12.7076 0.597089 12.735 0.683731 12.7306 0.771722C12.7261 0.859712 12.6902 0.943167 12.6293 1.00682L12.5061 1.13442L13.7219 0.432616C13.8 0.386578 13.8924 0.371118 13.9813 0.389221C14.0701 0.407323 14.1491 0.457704 14.203 0.530635C14.2569 0.603566 14.2818 0.693873 14.273 0.784118C14.2642 0.874363 14.2223 0.958144 14.1553 1.01928L13.287 1.82595L15.707 0.427483C15.786 0.382092 15.8791 0.367736 15.9681 0.387213C16.0571 0.40669 16.1357 0.458604 16.1885 0.53284C16.2413 0.607077 16.2646 0.698318 16.2538 0.788786C16.243 0.879254 16.199 0.962468 16.1302 1.02222L14.8615 2.12222L17.8066 0.425283C17.8856 0.379141 17.979 0.364209 18.0685 0.383419C18.1579 0.40263 18.237 0.454594 18.2901 0.529107C18.3432 0.603619 18.3665 0.695294 18.3555 0.786127C18.3444 0.876959 18.2998 0.960384 18.2304 1.02002L16.9266 2.14862L19.9171 0.421616C19.9978 0.376589 20.0925 0.363683 20.1823 0.385479C20.2721 0.407275 20.3503 0.462166 20.4014 0.539172C20.4524 0.616179 20.4726 0.709623 20.4577 0.800815C20.4428 0.892007 20.3941 0.974222 20.3212 1.03102L20.1987 1.12415L21.4197 0.419416C21.4986 0.374178 21.5915 0.359885 21.6804 0.379311C21.7692 0.398737 21.8477 0.450497 21.9005 0.524536C21.9534 0.598575 21.9768 0.689609 21.9663 0.779954C21.9557 0.8703 21.912 0.953508 21.8436 1.01342L20.5199 2.16842L23.3946 0.508149C23.4751 0.462835 23.5698 0.449589 23.6596 0.471061C23.7495 0.492533 23.8279 0.54714 23.8793 0.623959C23.9306 0.700779 23.951 0.794148 23.9365 0.885391C23.922 0.976634 23.8735 1.05902 23.8008 1.11608L23.484 1.36028C23.5545 1.34233 23.6286 1.3454 23.6973 1.36912C23.766 1.39284 23.8262 1.43617 23.8705 1.49375C23.9245 1.56526 23.9504 1.65404 23.9433 1.74335C23.9363 1.83265 23.8968 1.91629 23.8324 1.97848L23.2134 2.57982L23.3946 2.47495C23.4784 2.43111 23.5759 2.42135 23.6667 2.4477C23.7575 2.47405 23.8347 2.53447 23.882 2.61635C23.9293 2.69823 23.9432 2.79523 23.9207 2.88708C23.8982 2.97894 23.8411 3.05855 23.7612 3.10928L21.0156 4.69328C20.9382 4.73923 20.8465 4.75504 20.7581 4.73771C20.6697 4.72038 20.5908 4.67111 20.5364 4.59931C20.482 4.52751 20.4559 4.43819 20.4631 4.3484C20.4704 4.25862 20.5104 4.17464 20.5756 4.11248L21.196 3.51115L19.1493 4.69328C19.0688 4.73952 18.9737 4.75347 18.8832 4.7323C18.7928 4.71114 18.7138 4.65645 18.6621 4.57927C18.6104 4.50209 18.59 4.40817 18.6049 4.3165C18.6197 4.22482 18.6689 4.14221 18.7423 4.08535L18.9821 3.90055L17.6086 4.69328C17.5298 4.7377 17.4373 4.75141 17.349 4.7318C17.2607 4.71218 17.1828 4.66061 17.1302 4.58701C17.0776 4.51341 17.0541 4.42297 17.0642 4.33307C17.0742 4.24318 17.1172 4.16017 17.1847 4.10002L18.5113 2.94428L15.4797 4.69328C15.4243 4.72647 15.361 4.74419 15.2964 4.74462V4.74462Z" fill="#E0EEFE"/>
<path d="M21.4579 16.8841C21.3894 16.8839 21.3224 16.8645 21.2643 16.8282C21.2063 16.7918 21.1596 16.74 21.1295 16.6784C21.0995 16.6169 21.0872 16.5482 21.0942 16.4801C21.1012 16.412 21.1271 16.3472 21.169 16.293L21.8114 15.4651C21.7733 15.4362 21.7416 15.3997 21.7182 15.358C21.6698 15.274 21.6566 15.1741 21.6816 15.0804C21.7067 14.9866 21.7678 14.9066 21.8517 14.8579L22.695 14.3717C22.7686 14.3298 22.8544 14.3146 22.9379 14.3288C23.0213 14.343 23.0973 14.3856 23.1529 14.4494C23.2085 14.5132 23.2404 14.5943 23.243 14.6789C23.2456 14.7636 23.2189 14.8465 23.1673 14.9136L22.8945 15.2649L24.4433 14.3731C24.485 14.3466 24.5317 14.3288 24.5805 14.3208C24.6293 14.3128 24.6792 14.3147 24.7273 14.3264C24.7753 14.3382 24.8204 14.3596 24.86 14.3892C24.8996 14.4189 24.9327 14.4563 24.9575 14.4991C24.9822 14.5419 24.998 14.5893 25.004 14.6384C25.01 14.6875 25.0059 14.7373 24.9922 14.7847C24.9784 14.8322 24.9551 14.8765 24.9238 14.9147C24.8925 14.953 24.8538 14.9846 24.81 15.0075L21.6412 16.8364C21.5855 16.8684 21.5222 16.8849 21.4579 16.8841Z" fill="#CAB5CF"/>
<path d="M10.9766 30.4288C10.8978 30.4286 10.8212 30.4031 10.7581 30.3561C10.6949 30.309 10.6486 30.2429 10.626 30.1674C10.6034 30.092 10.6056 30.0113 10.6325 29.9372C10.6593 29.8632 10.7092 29.7998 10.7749 29.7563L14.7136 27.1537L10.3004 29.6998C10.2183 29.7475 10.1208 29.7615 10.0286 29.7387C9.93635 29.716 9.85655 29.6583 9.80598 29.5779C9.75541 29.4975 9.73803 29.4006 9.75748 29.3076C9.77694 29.2146 9.83172 29.1328 9.91029 29.0794L17.0449 24.2116L10.1002 28.22C10.0178 28.2661 9.92065 28.2786 9.82918 28.2549C9.73771 28.2312 9.65893 28.173 9.60927 28.0926C9.55962 28.0122 9.54292 27.9158 9.56266 27.8234C9.5824 27.731 9.63705 27.6497 9.71522 27.5966L14.3638 24.5518L9.94769 27.1016C9.90652 27.1266 9.86083 27.1433 9.81323 27.1506C9.76564 27.1579 9.71706 27.1558 9.67028 27.1444C9.62349 27.1329 9.57942 27.1124 9.54058 27.0839C9.50174 27.0555 9.46888 27.0196 9.44389 26.9784C9.4189 26.9373 9.40226 26.8916 9.39493 26.844C9.3876 26.7964 9.38971 26.7478 9.40115 26.701C9.41259 26.6542 9.43313 26.6102 9.46161 26.5713C9.49008 26.5325 9.52592 26.4996 9.56709 26.4746L11.0147 25.5543L9.83036 26.2378C9.74754 26.2849 9.64963 26.298 9.55737 26.2742C9.4651 26.2504 9.38572 26.1916 9.33605 26.1102C9.28638 26.0289 9.27032 25.9315 9.29127 25.8385C9.31222 25.7455 9.36854 25.6644 9.44829 25.6122L12.455 23.6836L9.70056 25.2734C9.62027 25.3197 9.52545 25.3338 9.43517 25.313C9.34489 25.2922 9.26584 25.2379 9.21392 25.1612C9.16199 25.0845 9.14103 24.9909 9.15526 24.8994C9.16949 24.8078 9.21785 24.7251 9.29062 24.6677L12.7087 21.9852L9.50329 23.8332C9.42329 23.8786 9.32913 23.8923 9.2395 23.8715C9.14987 23.8508 9.07132 23.7971 9.01944 23.7211C8.96756 23.6451 8.94613 23.5524 8.95942 23.4614C8.9727 23.3703 9.01973 23.2876 9.09116 23.2296L11.2142 21.5283L9.33756 22.6122C9.25947 22.6569 9.16766 22.6713 9.07962 22.6527C8.99157 22.6342 8.91344 22.5838 8.86009 22.5114C8.80674 22.4389 8.7819 22.3494 8.79029 22.2598C8.79869 22.1702 8.83974 22.0868 8.90562 22.0255L11.1144 19.992L9.13442 21.133C9.05503 21.1778 8.96182 21.1914 8.87295 21.1712C8.78408 21.151 8.70593 21.0983 8.65373 21.0236C8.60154 20.9489 8.57904 20.8574 8.59063 20.767C8.60223 20.6766 8.64707 20.5938 8.71642 20.5346L9.61769 19.7822L8.99949 20.1386C8.92146 20.1816 8.83047 20.1946 8.74351 20.1754C8.65655 20.1562 8.57957 20.1059 8.52694 20.0341C8.47431 19.9622 8.44963 19.8737 8.45751 19.785C8.46539 19.6962 8.50529 19.6134 8.56976 19.552L9.72182 18.5077L8.84622 19.0137C8.76738 19.0595 8.6743 19.0743 8.58514 19.0552C8.49599 19.0361 8.41715 18.9844 8.36402 18.9103C8.31089 18.8362 8.28728 18.745 8.29779 18.6544C8.30831 18.5638 8.3522 18.4804 8.42089 18.4204L9.09776 17.8272L8.71496 18.0472C8.63697 18.089 8.54648 18.1013 8.46019 18.0816C8.37389 18.062 8.29762 18.0118 8.24543 17.9403C8.19325 17.8688 8.16868 17.7809 8.17627 17.6927C8.18385 17.6045 8.22307 17.522 8.28669 17.4605L8.88582 16.9215L8.58516 17.0953C8.52057 17.1325 8.44618 17.1491 8.37191 17.143C8.29763 17.1368 8.22699 17.1082 8.1694 17.0609C8.11181 17.0136 8.07001 16.9498 8.04957 16.8782C8.02912 16.8065 8.031 16.7303 8.05496 16.6597L8.45169 15.4959L8.43996 15.5033C8.39821 15.5273 8.35213 15.5429 8.30435 15.5492C8.25656 15.5555 8.20802 15.5523 8.16147 15.5398C8.11493 15.5273 8.0713 15.5057 8.03308 15.4764C7.99486 15.447 7.9628 15.4104 7.93872 15.3687C7.91465 15.3269 7.89903 15.2809 7.89276 15.2331C7.8865 15.1853 7.8897 15.1367 7.9022 15.0902C7.91469 15.0437 7.93624 15 7.96559 14.9618C7.99495 14.9236 8.03154 14.8915 8.07329 14.8675L8.93349 14.3732C8.99809 14.3357 9.07258 14.3189 9.14701 14.3249C9.22143 14.331 9.29224 14.3596 9.34997 14.4069C9.40769 14.4543 9.44958 14.5181 9.47004 14.59C9.49049 14.6618 9.48853 14.7381 9.46443 14.8088L9.06842 15.9711L11.5618 14.5316C11.6397 14.4897 11.7302 14.4775 11.8165 14.4972C11.9028 14.5168 11.9791 14.567 12.0313 14.6385C12.0835 14.71 12.108 14.7979 12.1004 14.8861C12.0929 14.9743 12.0536 15.0567 11.99 15.1183L11.3902 15.658L11.9519 15.3331C12.0307 15.2873 12.1238 15.2725 12.213 15.2916C12.3021 15.3108 12.381 15.3624 12.4341 15.4365C12.4872 15.5106 12.5108 15.6019 12.5003 15.6924C12.4898 15.783 12.4459 15.8664 12.3772 15.9264L11.7018 16.5197L12.3376 16.153C12.4157 16.1101 12.5066 16.097 12.5936 16.1162C12.6806 16.1355 12.7575 16.1857 12.8102 16.2576C12.8628 16.3294 12.8875 16.418 12.8796 16.5067C12.8717 16.5954 12.8318 16.6782 12.7674 16.7396L11.6138 17.7846L12.9338 17.0235C13.0132 16.9779 13.1068 16.9638 13.1961 16.9837C13.2855 17.0037 13.3641 17.0564 13.4166 17.1314C13.469 17.2063 13.4916 17.2983 13.4797 17.389C13.4679 17.4798 13.4225 17.5628 13.3526 17.6218L12.4513 18.375L13.6166 17.7025C13.6946 17.6578 13.7865 17.6434 13.8745 17.662C13.9625 17.6805 14.0407 17.7309 14.094 17.8033C14.1474 17.8758 14.1722 17.9653 14.1638 18.0549C14.1554 18.1445 14.1144 18.2279 14.0485 18.2892L11.8404 20.3227L15.0202 18.4864C15.1002 18.441 15.1943 18.4273 15.2839 18.4481C15.3736 18.4689 15.4521 18.5225 15.504 18.5985C15.5559 18.6745 15.5773 18.7672 15.564 18.8582C15.5507 18.9493 15.5037 19.032 15.4323 19.09L13.31 20.7906L16.808 18.771C16.8883 18.7247 16.9831 18.7106 17.0734 18.7314C17.1637 18.7523 17.2427 18.8065 17.2947 18.8832C17.3466 18.96 17.3675 19.0535 17.3533 19.145C17.3391 19.2366 17.2907 19.3194 17.218 19.3767L13.8006 22.0585L25.5802 15.2613C25.663 15.2141 25.7609 15.2011 25.8531 15.2249C25.9454 15.2487 26.0248 15.3075 26.0745 15.3888C26.1241 15.4701 26.1402 15.5676 26.1192 15.6605C26.0983 15.7535 26.042 15.8346 25.9622 15.8868L22.9556 17.8154L25.4269 16.3891C25.5098 16.3428 25.6074 16.3304 25.6992 16.3546C25.791 16.3788 25.8698 16.4376 25.9191 16.5188C25.9684 16.5999 25.9844 16.697 25.9635 16.7896C25.9427 16.8822 25.8868 16.9632 25.8075 17.0154L24.3526 17.9408L25.2912 17.3996C25.3736 17.3548 25.4701 17.3433 25.5607 17.3674C25.6514 17.3915 25.7294 17.4494 25.7786 17.5293C25.8278 17.6092 25.8446 17.7049 25.8254 17.7967C25.8062 17.8885 25.7526 17.9695 25.6755 18.023L21.0298 21.0663L25.1152 18.7072C25.1973 18.6603 25.2942 18.6469 25.3859 18.6697C25.4776 18.6926 25.5569 18.75 25.6073 18.8299C25.6577 18.9098 25.6753 19.0061 25.6565 19.0987C25.6376 19.1913 25.5837 19.273 25.5061 19.3268L18.3708 24.1962L24.882 20.4371C24.9645 20.391 25.0616 20.3785 25.1531 20.4022C25.2445 20.4259 25.3233 20.484 25.373 20.5644C25.4226 20.6448 25.4393 20.7413 25.4196 20.8337C25.3999 20.9261 25.3452 21.0074 25.267 21.0604L21.3268 23.6638L24.7104 21.7102C24.7925 21.664 24.8892 21.6512 24.9805 21.6744C25.0718 21.6976 25.1506 21.7551 25.2007 21.8348C25.2508 21.9146 25.2682 22.0106 25.2495 22.1029C25.2307 22.1952 25.1771 22.2767 25.0998 22.3306L21.4163 24.8422L24.5308 23.0448C24.6128 22.9999 24.7089 22.988 24.7994 23.0115C24.89 23.0351 24.9681 23.0924 25.0177 23.1717C25.0674 23.251 25.0849 23.3463 25.0666 23.438C25.0483 23.5298 24.9957 23.611 24.9194 23.6652L23.5708 24.5775L24.3878 24.106C24.468 24.0597 24.5629 24.0456 24.6531 24.0664C24.7434 24.0873 24.8225 24.1415 24.8744 24.2182C24.9263 24.2949 24.9473 24.3885 24.9331 24.48C24.9188 24.5716 24.8705 24.6544 24.7977 24.7117L21.6876 27.1515L24.1707 25.7178C24.2494 25.6723 24.3421 25.6577 24.431 25.6767C24.5199 25.6957 24.5985 25.747 24.6517 25.8207C24.7049 25.8945 24.7288 25.9853 24.7187 26.0756C24.7087 26.166 24.6655 26.2494 24.5975 26.3096L22.7781 27.923L23.9661 27.238C24.0414 27.1949 24.1295 27.1798 24.2148 27.1955C24.3001 27.2112 24.3771 27.2567 24.4321 27.3238C24.4871 27.3909 24.5165 27.4753 24.5151 27.5621C24.5137 27.6488 24.4816 27.7323 24.4244 27.7976L23.7094 28.6079L23.7879 28.5624C23.855 28.5237 23.9328 28.5072 24.0099 28.5154C24.087 28.5236 24.1595 28.556 24.217 28.608C24.2745 28.66 24.3141 28.7288 24.33 28.8047C24.346 28.8806 24.3374 28.9596 24.3056 29.0303L24.079 29.5326C24.1124 29.5606 24.1407 29.5941 24.1626 29.6316C24.2112 29.7159 24.2244 29.8159 24.1993 29.9099C24.1741 30.0038 24.1126 30.0839 24.0284 30.1325L23.6302 30.362C23.5631 30.4006 23.4856 30.417 23.4086 30.4088C23.3316 30.4006 23.2592 30.3683 23.2018 30.3164C23.1443 30.2646 23.1047 30.1959 23.0887 30.1202C23.0726 30.0445 23.081 29.9656 23.1125 29.8949L23.1704 29.7658L22.1335 30.3642C22.0582 30.4074 21.9701 30.4225 21.8848 30.4068C21.7994 30.3911 21.7224 30.3456 21.6675 30.2785C21.6125 30.2114 21.5831 30.1269 21.5845 30.0402C21.5859 29.9534 21.618 29.87 21.6752 29.8047L22.3909 28.9936L20.0068 30.3672C19.9283 30.4119 19.8359 30.426 19.7476 30.4068C19.6593 30.3876 19.5811 30.3364 19.5282 30.2631C19.4753 30.1898 19.4513 30.0996 19.4609 30.0097C19.4704 29.9198 19.5129 29.8366 19.58 29.7761L21.4002 28.1598L17.5744 30.3686C17.4941 30.414 17.3997 30.4274 17.31 30.4063C17.2202 30.3852 17.1418 30.331 17.0902 30.2547C17.0386 30.1783 17.0176 30.0852 17.0315 29.9941C17.0454 29.903 17.0931 29.8204 17.1652 29.7629L20.2745 27.3238L14.9945 30.3723C14.9122 30.4211 14.8141 30.4357 14.7212 30.4132C14.6282 30.3906 14.5477 30.3327 14.4969 30.2516C14.4461 30.1706 14.429 30.0729 14.4492 29.9794C14.4694 29.8859 14.5253 29.804 14.6051 29.7512L15.9537 28.8396L13.2946 30.3745C13.2125 30.4207 13.1158 30.4335 13.0245 30.4103C12.9333 30.3871 12.8544 30.3296 12.8043 30.2498C12.7543 30.1701 12.7368 30.0741 12.7556 29.9818C12.7744 29.8895 12.828 29.808 12.9052 29.7541L16.5895 27.2417L11.1584 30.3774C11.1034 30.4103 11.0407 30.4281 10.9766 30.4288V30.4288Z" fill="#CAB5CF"/>
<path d="M16.0173 43.4602C15.9386 43.4601 15.862 43.4347 15.7989 43.3878C15.7357 43.3409 15.6893 43.2749 15.6666 43.1996C15.6438 43.1243 15.6459 43.0437 15.6724 42.9697C15.699 42.8956 15.7487 42.8321 15.8141 42.7884L23.4789 37.6698L14.8579 42.6469C14.7753 42.6917 14.6786 42.7031 14.5879 42.6788C14.4971 42.6544 14.4192 42.5961 14.3701 42.5159C14.3211 42.4358 14.3047 42.3398 14.3244 42.2479C14.3441 42.156 14.3983 42.0752 14.4758 42.0221L20.1034 38.3833L13.9067 41.9605C13.8243 42.0066 13.7272 42.0191 13.6357 41.9954C13.5442 41.9717 13.4654 41.9136 13.4158 41.8332C13.3661 41.7528 13.3494 41.6563 13.3692 41.5639C13.3889 41.4715 13.4436 41.3903 13.5217 41.3372L20.7883 36.539L12.795 41.159C12.7128 41.2066 12.6154 41.2206 12.5231 41.1978C12.4309 41.1751 12.3511 41.1174 12.3005 41.037C12.25 40.9566 12.2326 40.8597 12.252 40.7667C12.2715 40.6737 12.3263 40.5919 12.4049 40.5386L20.0799 35.3033L10.8517 40.6266C10.7692 40.6708 10.6729 40.6819 10.5826 40.6575C10.4922 40.633 10.4146 40.575 10.3657 40.4952C10.3168 40.4154 10.3002 40.32 10.3194 40.2284C10.3385 40.1367 10.392 40.0559 10.4689 40.0025L14.6965 37.2532L8.84599 40.6266C8.76352 40.6727 8.66642 40.6852 8.57495 40.6615C8.48347 40.6378 8.40469 40.5796 8.35504 40.4992C8.30538 40.4188 8.28868 40.3224 8.30842 40.23C8.32816 40.1375 8.38282 40.0563 8.46099 40.0032L13.5276 36.6688L6.67092 40.6288C6.58827 40.673 6.49181 40.6839 6.40136 40.6592C6.31091 40.6346 6.23335 40.5762 6.18462 40.4961C6.13589 40.416 6.11969 40.3203 6.13935 40.2286C6.15901 40.1369 6.21303 40.0563 6.29032 40.0032L8.94059 38.3034L4.91312 40.6266C4.83057 40.6744 4.73261 40.6882 4.64005 40.665C4.54749 40.6418 4.46762 40.5834 4.41741 40.5023C4.3672 40.4212 4.35059 40.3236 4.37113 40.2304C4.39166 40.1373 4.44772 40.0557 4.52739 40.0032L9.67759 36.6101L2.80625 40.5767C2.72422 40.6266 2.62588 40.6424 2.53236 40.6205C2.43884 40.5987 2.35762 40.5411 2.30613 40.46C2.25465 40.379 2.23703 40.2809 2.25705 40.187C2.27706 40.0931 2.33313 40.0108 2.41319 39.9578L9.76266 34.8692L1.45325 39.6688C1.37028 39.7175 1.27152 39.7315 1.17826 39.708C1.085 39.6845 1.00471 39.6253 0.954687 39.5432C0.904668 39.461 0.888927 39.3625 0.910856 39.2689C0.932786 39.1752 0.990629 39.094 1.07192 39.0426L1.79792 38.5791L1.13792 38.9597C1.05557 39.0074 0.957882 39.0213 0.865515 38.9983C0.773148 38.9753 0.69334 38.9173 0.642961 38.8365C0.592582 38.7558 0.575582 38.6586 0.595555 38.5655C0.615527 38.4725 0.670907 38.3908 0.749987 38.3378L4.61612 35.736L1.07192 37.7812C0.990998 37.8279 0.895299 37.842 0.804369 37.8205C0.713438 37.799 0.634135 37.7437 0.582654 37.6657C0.531174 37.5877 0.5114 37.493 0.52737 37.401C0.543341 37.3089 0.593852 37.2264 0.668587 37.1704L5.58192 33.4993L1.07192 36.1012C0.989887 36.148 0.892919 36.1615 0.801237 36.1386C0.709556 36.1157 0.630239 36.0584 0.579829 35.9784C0.529419 35.8985 0.511807 35.8022 0.530666 35.7096C0.549525 35.6171 0.603399 35.5353 0.681054 35.4815L1.25232 35.0892L1.07192 35.1926C0.991692 35.2371 0.897684 35.2499 0.808456 35.2285C0.719228 35.2071 0.641267 35.153 0.589965 35.077C0.538664 35.0009 0.517751 34.9083 0.531357 34.8176C0.544962 34.7269 0.592097 34.6445 0.663453 34.5868L2.66839 33.0182L1.07192 33.9393C0.991945 33.9839 0.898162 33.997 0.809024 33.976C0.719885 33.9549 0.641846 33.9013 0.590261 33.8256C0.538675 33.75 0.517279 33.6577 0.530281 33.567C0.543284 33.4764 0.589744 33.3939 0.66052 33.3358L1.26845 32.8503L1.07192 32.9632C0.998623 33.0053 0.913025 33.0208 0.829614 33.0071C0.746204 32.9933 0.670105 32.9512 0.6142 32.8878C0.558295 32.8244 0.526018 32.7436 0.522833 32.6591C0.519647 32.5746 0.545749 32.4917 0.59672 32.4242L1.43639 31.3205C1.35599 31.3478 1.26861 31.3464 1.18917 31.3164C1.10973 31.2865 1.04315 31.2299 1.00079 31.1563C0.952337 31.0722 0.93918 30.9724 0.964196 30.8786C0.989212 30.7849 1.05036 30.7049 1.13425 30.6562L2.63759 29.7879C2.71088 29.7458 2.79648 29.7303 2.87989 29.744C2.9633 29.7578 3.0394 29.7999 3.09531 29.8633C3.15121 29.9267 3.18349 30.0075 3.18667 30.092C3.18986 30.1765 3.16376 30.2594 3.11279 30.3269L2.28412 31.4173L5.13459 29.7732C5.21459 29.7278 5.30875 29.7141 5.39838 29.7349C5.48801 29.7556 5.56656 29.8093 5.61844 29.8853C5.67032 29.9613 5.69174 30.054 5.67846 30.145C5.66517 30.236 5.61815 30.3188 5.54672 30.3767L4.93805 30.8622L6.82565 29.7732C6.90591 29.7279 7.00031 29.7144 7.09004 29.7355C7.17977 29.7567 7.25826 29.8108 7.30986 29.8872C7.36146 29.9636 7.3824 30.0566 7.3685 30.1477C7.3546 30.2389 7.30688 30.3214 7.23485 30.3789L5.22845 31.9475L8.99706 29.7732C9.07891 29.7281 9.17489 29.716 9.26539 29.7393C9.35589 29.7626 9.43407 29.8196 9.48397 29.8986C9.53387 29.9776 9.55172 30.0727 9.53387 30.1644C9.51601 30.2562 9.46381 30.3376 9.38792 30.3921L8.82106 30.7823L10.5686 29.7732C10.6495 29.7265 10.7452 29.7125 10.8361 29.7339C10.9271 29.7554 11.0064 29.8108 11.0579 29.8888C11.1093 29.9667 11.1291 30.0614 11.1131 30.1535C11.0972 30.2455 11.0467 30.328 10.9719 30.3841L6.05859 34.0559L13.4799 29.7732C13.5621 29.7264 13.6593 29.7131 13.7511 29.7362C13.8428 29.7593 13.9221 29.8171 13.9723 29.8973C14.0225 29.9775 14.0397 30.074 14.0204 30.1667C14.0011 30.2593 13.9467 30.3409 13.8686 30.3943L10.0017 32.9962L15.5853 29.7695C15.6681 29.7241 15.7651 29.7122 15.8564 29.7365C15.9476 29.7608 16.026 29.8194 16.0751 29.9C16.1242 29.9806 16.1404 30.0771 16.1202 30.1693C16.1 30.2615 16.045 30.3424 15.9667 30.3951L15.2451 30.8556L17.1275 29.7732C17.2093 29.7275 17.3055 29.7149 17.3963 29.7378C17.4872 29.7608 17.5658 29.8177 17.616 29.8968C17.6662 29.9759 17.6842 30.0713 17.6663 30.1632C17.6484 30.2552 17.596 30.3369 17.5199 30.3914L10.1675 35.4822L20.0594 29.7732C20.1419 29.7271 20.239 29.7146 20.3304 29.7383C20.4219 29.762 20.5007 29.8201 20.5503 29.9005C20.6 29.9809 20.6167 30.0774 20.597 30.1698C20.5772 30.2622 20.5226 30.3435 20.4444 30.3965L15.2986 33.786L22.2521 29.7732C22.3348 29.7277 22.4319 29.7159 22.5231 29.7402C22.6143 29.7645 22.6927 29.823 22.7418 29.9036C22.791 29.9843 22.8071 30.0807 22.7869 30.1729C22.7667 30.2652 22.7117 30.3461 22.6334 30.3987L19.978 32.1008L24.0113 29.7732C24.0937 29.7284 24.1902 29.7168 24.2808 29.7409C24.3715 29.7651 24.4495 29.823 24.4987 29.9029C24.5479 29.9827 24.5647 30.0784 24.5455 30.1703C24.5263 30.2621 24.4727 30.3431 24.3956 30.3965L19.3297 33.7332L26.1857 29.7732C26.2682 29.7278 26.3651 29.7158 26.4562 29.7399C26.5473 29.7639 26.6256 29.8221 26.6749 29.9024C26.7243 29.9827 26.7408 30.0789 26.7211 30.171C26.7014 30.2632 26.647 30.3442 26.5692 30.3973L22.3445 33.1466L28.1913 29.7732C28.2732 29.7287 28.369 29.7171 28.4592 29.7407C28.5494 29.7643 28.6272 29.8214 28.6768 29.9003C28.7264 29.9792 28.7441 30.0741 28.7262 30.1656C28.7084 30.2571 28.6564 30.3384 28.5807 30.3929L20.9093 35.6223L31.0139 29.7886C31.0965 29.7408 31.1944 29.727 31.287 29.7502C31.3796 29.7734 31.4594 29.8317 31.5096 29.9129C31.5599 29.994 31.5765 30.0915 31.5559 30.1847C31.5354 30.2779 31.4793 30.3594 31.3997 30.4119L24.1301 35.2124L32.3435 30.4706C32.4261 30.4258 32.5227 30.4144 32.6135 30.4388C32.7042 30.4631 32.7822 30.5214 32.8312 30.6016C32.8802 30.6818 32.8966 30.7777 32.8769 30.8696C32.8573 30.9615 32.8031 31.0423 32.7255 31.0954L27.1016 34.7313L32.8583 31.4086C32.9407 31.3617 33.038 31.3485 33.1299 31.3719C33.2218 31.3953 33.3011 31.4533 33.3511 31.5339C33.4011 31.6144 33.4179 31.7112 33.3981 31.804C33.3783 31.8967 33.3233 31.9781 33.2447 32.0312L25.5799 37.1491L32.9279 32.9068C33.0095 32.8602 33.1058 32.8468 33.197 32.8691C33.2881 32.8915 33.3673 32.948 33.418 33.027C33.4688 33.1059 33.4874 33.2014 33.4698 33.2936C33.4523 33.3859 33.4001 33.4679 33.3239 33.5228L29.6866 36.11L32.9309 34.2378C33.0117 34.1921 33.107 34.1788 33.1972 34.2006C33.2875 34.2224 33.3662 34.2777 33.4173 34.3553C33.4684 34.4328 33.4882 34.5269 33.4726 34.6185C33.4571 34.71 33.4073 34.7923 33.3335 34.8486L30.6634 36.8345L32.9309 35.5255C33.0112 35.4789 33.1063 35.4646 33.1968 35.4855C33.2874 35.5063 33.3666 35.5607 33.4186 35.6377C33.4705 35.7147 33.4913 35.8086 33.4767 35.9003C33.4622 35.992 33.4133 36.0748 33.3401 36.132L31.6923 37.427L32.9309 36.7128C33.0077 36.671 33.0969 36.6581 33.1824 36.6763C33.268 36.6946 33.3442 36.7428 33.3973 36.8123C33.4504 36.8817 33.4769 36.9679 33.472 37.0552C33.4672 37.1425 33.4313 37.2252 33.3709 37.2884L32.0509 38.6084L32.9037 38.1164C32.9879 38.0685 33.0876 38.0559 33.181 38.0813C33.2745 38.1066 33.3541 38.1679 33.4025 38.2518C33.4509 38.3356 33.4642 38.4352 33.4394 38.5288C33.4147 38.6224 33.3539 38.7025 33.2704 38.7514L30.0261 40.6266C29.9493 40.6683 29.8601 40.6812 29.7745 40.663C29.689 40.6447 29.6128 40.5965 29.5597 40.5271C29.5066 40.4576 29.4801 40.3714 29.4849 40.2841C29.4898 40.1968 29.5257 40.1141 29.5861 40.0509L30.9061 38.7309L27.6113 40.6266C27.531 40.6728 27.4362 40.6869 27.3459 40.6661C27.2556 40.6453 27.1765 40.591 27.1246 40.5143C27.0727 40.4376 27.0517 40.344 27.066 40.2525C27.0802 40.1609 27.1286 40.0782 27.2013 40.0208L28.8506 38.725L25.555 40.6266C25.474 40.6737 25.378 40.688 25.2867 40.6666C25.1954 40.6451 25.1159 40.5895 25.0643 40.5112C25.0128 40.4329 24.9932 40.3379 25.0096 40.2456C25.0259 40.1533 25.0771 40.0707 25.1524 40.015L27.8225 38.0298L23.3235 40.6266C23.2421 40.6715 23.1466 40.6839 23.0564 40.6612C22.9663 40.6384 22.8881 40.5823 22.8378 40.5041C22.7874 40.4259 22.7687 40.3315 22.7854 40.24C22.802 40.1485 22.8528 40.0667 22.9275 40.0113L26.5655 37.4248L16.2006 43.4132C16.1446 43.4446 16.0814 43.4608 16.0173 43.4602V43.4602Z" fill="#D3B571"/>
<path d="M14.2542 37.7093C14.1905 37.7093 14.1279 37.6928 14.0726 37.6613C14.0172 37.6298 13.971 37.5845 13.9386 37.5297C13.9061 37.4749 13.8884 37.4127 13.8873 37.349C13.8862 37.2853 13.9017 37.2225 13.9322 37.1666L13.9828 37.0742L13.3514 37.4409C13.276 37.4845 13.1875 37.4998 13.1018 37.4841C13.0162 37.4684 12.9389 37.4227 12.8838 37.3552C12.8287 37.2877 12.7995 37.2028 12.8013 37.1157C12.8032 37.0286 12.836 36.945 12.8938 36.8799L13.6572 36.0197L11.9332 37.0148C11.855 37.0623 11.762 37.0789 11.6722 37.0614C11.5825 37.0438 11.5025 36.9933 11.4481 36.9199C11.3936 36.8464 11.3686 36.7553 11.3779 36.6643C11.3872 36.5733 11.4301 36.4891 11.4983 36.4282L11.9918 35.9618L11.8063 36.0688C11.734 36.1104 11.6497 36.1261 11.5673 36.1133C11.4849 36.1005 11.4093 36.06 11.353 35.9985C11.2967 35.937 11.2631 35.8582 11.2576 35.7749C11.2522 35.6917 11.2752 35.6092 11.323 35.5408L12.5264 33.8314C12.4752 33.7997 12.4328 33.7556 12.4032 33.7031C12.3546 33.619 12.3413 33.5189 12.3663 33.425C12.3913 33.3311 12.4526 33.251 12.5367 33.2022L13.3331 32.7417C13.4054 32.7001 13.4897 32.6844 13.5721 32.6972C13.6545 32.71 13.7301 32.7505 13.7864 32.812C13.8427 32.8735 13.8763 32.9524 13.8818 33.0356C13.8872 33.1188 13.8642 33.2014 13.8164 33.2697L12.8792 34.6044L14.3378 33.7625C14.4159 33.715 14.509 33.6984 14.5987 33.7159C14.6885 33.7335 14.7684 33.784 14.8228 33.8574C14.8773 33.9309 14.9023 34.0221 14.8931 34.113C14.8838 34.204 14.8408 34.2882 14.7726 34.3492L14.2791 34.8156L15.2486 34.256C15.324 34.2124 15.4125 34.1971 15.4982 34.2128C15.5839 34.2285 15.6612 34.2742 15.7162 34.3417C15.7713 34.4092 15.8005 34.4941 15.7987 34.5812C15.7968 34.6683 15.764 34.7519 15.7062 34.817L14.8863 35.741C14.9536 35.7318 15.0221 35.7415 15.0842 35.769C15.1464 35.7964 15.1996 35.8406 15.2381 35.8966C15.2766 35.9526 15.2988 36.0181 15.3022 36.0859C15.3056 36.1538 15.2901 36.2212 15.2574 36.2808L15.0601 36.6416C15.127 36.6729 15.1826 36.7241 15.2192 36.7882C15.2679 36.8724 15.2812 36.9724 15.2562 37.0663C15.2312 37.1602 15.1699 37.2403 15.0858 37.2891L14.439 37.6616C14.3828 37.6939 14.3189 37.7104 14.2542 37.7093V37.7093Z" fill="#F2CF7E"/>
<path d="M28.5784 37.609C28.5118 37.6089 28.4465 37.5907 28.3894 37.5563C28.3324 37.5219 28.2858 37.4726 28.2547 37.4137C28.2235 37.3548 28.209 37.2886 28.2127 37.2221C28.2164 37.1556 28.2381 37.0913 28.2755 37.0362L28.9656 36.0228L26.6299 37.3714C26.5536 37.415 26.464 37.4297 26.3777 37.4128C26.2914 37.3959 26.214 37.3486 26.1597 37.2794C26.1054 37.2103 26.0777 37.1239 26.0818 37.036C26.0859 36.9481 26.1214 36.8647 26.1819 36.8008L27.2269 35.7082L26.5038 36.1254C26.432 36.1668 26.3482 36.1826 26.2663 36.1703C26.1843 36.158 26.1089 36.1182 26.0524 36.0576C25.9959 35.9969 25.9617 35.9189 25.9552 35.8363C25.9488 35.7536 25.9705 35.6713 26.0169 35.6026L27.2093 33.8426C27.1501 33.8104 27.1011 33.7624 27.0677 33.704C27.0191 33.6198 27.0058 33.5198 27.0308 33.4259C27.0558 33.332 27.1171 33.2518 27.2012 33.2031L27.9998 32.7418C28.0716 32.7004 28.1554 32.6846 28.2373 32.6969C28.3193 32.7093 28.3947 32.749 28.4512 32.8096C28.5076 32.8703 28.5419 32.9483 28.5484 33.031C28.5548 33.1136 28.5331 33.196 28.4867 33.2647L27.5202 34.6932L29.0837 33.7905C29.16 33.7469 29.2496 33.7321 29.3359 33.749C29.4222 33.7659 29.4996 33.8132 29.5539 33.8824C29.6082 33.9516 29.6359 34.038 29.6318 34.1258C29.6277 34.2137 29.5922 34.2972 29.5317 34.361L28.486 35.4537L29.9923 34.5847C30.0642 34.5434 30.1479 34.5277 30.2299 34.5401C30.3119 34.5525 30.3872 34.5924 30.4436 34.6531C30.5 34.7139 30.5342 34.792 30.5405 34.8746C30.5468 34.9573 30.525 35.0396 30.4785 35.1083L29.6637 36.3044C29.7362 36.32 29.8021 36.3572 29.853 36.4111C29.9038 36.465 29.9372 36.533 29.9486 36.6062C29.96 36.6794 29.949 36.7543 29.917 36.8211C29.885 36.888 29.8335 36.9435 29.7693 36.9805L28.7632 37.5606C28.707 37.5927 28.6432 37.6094 28.5784 37.609Z" fill="#F2CF7E"/>
<path d="M6.09606 37.4735C6.02796 37.4735 5.96121 37.4545 5.90329 37.4187C5.84536 37.3829 5.79855 37.3317 5.7681 37.2708C5.73765 37.2099 5.72476 37.1417 5.73087 37.0739C5.73699 37.006 5.76187 36.9413 5.80272 36.8868L6.69152 35.6929L4.59786 36.9007C4.5228 36.9439 4.43488 36.9592 4.34965 36.9438C4.26443 36.9284 4.18741 36.8833 4.13225 36.8165C4.07708 36.7498 4.04733 36.6656 4.04826 36.579C4.04919 36.4924 4.08074 36.4089 4.13733 36.3434L5.12586 35.2038L4.23706 35.7171C4.16135 35.7607 4.07257 35.7758 3.98671 35.7597C3.90085 35.7437 3.82355 35.6975 3.76872 35.6295C3.71389 35.5615 3.68514 35.4761 3.68765 35.3888C3.69016 35.3015 3.72375 35.2179 3.78239 35.1532L5.08259 33.7217C5.0775 33.7148 5.07308 33.7075 5.06939 33.6997C5.02071 33.6156 5.00742 33.5156 5.03245 33.4217C5.05747 33.3277 5.11877 33.2476 5.20286 33.1989L5.99999 32.742C6.0757 32.6984 6.16448 32.6833 6.25034 32.6994C6.3362 32.7154 6.4135 32.7616 6.46833 32.8296C6.52315 32.8976 6.5519 32.983 6.5494 33.0703C6.54689 33.1576 6.51329 33.2412 6.45465 33.3059L5.90466 33.9109L6.64899 33.4819C6.72404 33.4387 6.81197 33.4235 6.89719 33.4389C6.98241 33.4543 7.05943 33.4994 7.1146 33.5661C7.16976 33.6329 7.19952 33.717 7.19859 33.8036C7.19766 33.8902 7.16611 33.9737 7.10952 34.0393L6.12026 35.1803L7.86119 34.1757C7.93421 34.1337 8.01946 34.1181 8.10259 34.1316C8.18573 34.1451 8.26169 34.1868 8.3177 34.2497C8.37371 34.3126 8.40637 34.3929 8.41017 34.477C8.41397 34.5611 8.38869 34.644 8.33858 34.7117L7.44832 35.9093C7.53375 35.8724 7.62997 35.8695 7.7175 35.9009C7.80504 35.9324 7.87734 35.996 7.91975 36.0788C7.96217 36.1616 7.97154 36.2574 7.94596 36.3468C7.92038 36.4362 7.86177 36.5126 7.78199 36.5605L6.28086 37.4273C6.22455 37.459 6.16069 37.475 6.09606 37.4735V37.4735Z" fill="#F2CF7E"/>
<path d="M21.5271 37.6932C21.4629 37.6932 21.3999 37.6764 21.3442 37.6444C21.2886 37.6125 21.2423 37.5665 21.21 37.511C21.1777 37.4556 21.1606 37.3926 21.1602 37.3285C21.1599 37.2643 21.1764 37.2012 21.2081 37.1454L21.6701 36.3343L19.4701 37.6044C19.391 37.6493 19.2981 37.6631 19.2094 37.6434C19.1207 37.6236 19.0425 37.5716 18.99 37.4974C18.9375 37.4232 18.9144 37.3322 18.9252 37.2419C18.936 37.1517 18.9799 37.0687 19.0484 37.009L19.3894 36.7156L19.2604 36.789C19.1838 36.8327 19.094 36.8473 19.0075 36.8301C18.921 36.813 18.8436 36.7653 18.7894 36.6957C18.7352 36.6261 18.7079 36.5393 18.7126 36.4513C18.7172 36.3632 18.7534 36.2798 18.8145 36.2162L19.4745 35.5364L18.9744 35.8254C18.8997 35.8679 18.8126 35.8828 18.7281 35.8676C18.6436 35.8524 18.5671 35.8081 18.5119 35.7423C18.4568 35.6765 18.4265 35.5934 18.4263 35.5075C18.4261 35.4217 18.456 35.3385 18.5109 35.2724L19.7781 33.7632C19.7617 33.7449 19.7474 33.7247 19.7356 33.7031C19.6869 33.619 19.6736 33.519 19.6986 33.425C19.7236 33.3311 19.7849 33.251 19.869 33.2022L20.6669 32.7417C20.7415 32.6988 20.8289 32.6835 20.9136 32.6985C20.9984 32.7135 21.0752 32.7578 21.1305 32.8238C21.1859 32.8897 21.2163 32.973 21.2164 33.0591C21.2165 33.1452 21.1863 33.2286 21.1311 33.2946L20.4139 34.1475L21.3958 33.5814C21.4724 33.5372 21.5624 33.5221 21.6493 33.539C21.7361 33.556 21.8139 33.6037 21.8683 33.6735C21.9226 33.7432 21.95 33.8303 21.9452 33.9186C21.9405 34.0069 21.904 34.0906 21.8424 34.1541L21.1824 34.8339L22.4584 34.1006C22.5376 34.0541 22.6314 34.0389 22.7212 34.0582C22.811 34.0775 22.8902 34.1298 22.9433 34.2048C22.9964 34.2797 23.0195 34.3718 23.0079 34.4629C22.9963 34.554 22.951 34.6375 22.8808 34.6968L22.5252 35.0011C22.5957 34.973 22.6732 34.9675 22.747 34.9854C22.8208 35.0032 22.8873 35.0435 22.9372 35.1008C22.9871 35.158 23.018 35.2293 23.0256 35.3048C23.0333 35.3804 23.0173 35.4564 22.9798 35.5225L22.3822 36.5726C22.4466 36.5979 22.5026 36.6409 22.5436 36.6966C22.5847 36.7524 22.6091 36.8186 22.6141 36.8876C22.6191 36.9566 22.6044 37.0257 22.5718 37.0867C22.5392 37.1478 22.49 37.1984 22.4298 37.2326L21.7134 37.6462C21.6567 37.6785 21.5923 37.6948 21.5271 37.6932V37.6932Z" fill="#F2CF7E"/>
<path d="M33.6657 32.2093C33.6657 32.1932 33.6562 32.1844 33.654 32.1704C33.6518 32.1565 33.6657 32.1433 33.6643 32.1279C33.5484 29.9675 31.7107 29.7365 29.9976 29.7343V4.21797C30.0247 3.6623 30.0203 3.10554 29.9844 2.55037C29.8077 1.02063 28.4283 0.4545 27.0753 0.4545H8.27333C7.45621 0.381396 6.63262 0.448107 5.83792 0.651767C5.26904 0.847516 4.78082 1.22583 4.44924 1.72783C4.11767 2.22984 3.96134 2.82737 4.00459 3.42743C3.99946 5.91123 4.00459 8.39503 4.00459 10.8788V29.7394C3.77286 29.7394 3.54186 29.7394 3.31012 29.7475C2.56548 29.7087 1.8356 29.9652 1.27888 30.4613C0.722162 30.9573 0.383523 31.6529 0.336455 32.397C0.283655 33.8974 0.336455 35.4081 0.336455 36.9092C0.336455 38.384 0.336455 39.9804 2.05172 40.5238C3.11726 40.8604 8.77859 40.6522 10.3787 40.6522C10.9611 40.6003 11.5451 40.7324 12.0485 41.0298C12.644 41.4097 13.2035 41.8636 13.7763 42.2765C14.3297 42.7415 14.9522 43.1176 15.6213 43.3912C16.1847 43.5667 16.7789 43.6208 17.3647 43.5498C17.9505 43.4787 18.5145 43.2842 19.0196 42.979C19.5872 42.6366 20.1115 42.2061 20.6483 41.8189C21.2116 41.2772 21.8955 40.8771 22.6437 40.6514C23.8053 40.5143 29.1301 40.6705 30.5777 40.6514C32.1617 40.6302 33.6085 39.7047 33.6679 38.0019C33.7193 36.5272 33.6679 35.0422 33.6679 33.5674L33.6657 32.2093ZM22.3533 4.13657H13.5189C12.8944 4.22655 12.2581 4.18559 11.6503 4.0163C10.708 3.5455 10.862 2.0407 10.917 1.00963H23.072C23.1057 1.8273 23.3573 4.07863 22.3533 4.13657V4.13657ZM5.06499 2.86937C5.03464 2.43358 5.16743 2.00208 5.43756 1.65876C5.70768 1.31545 6.09583 1.08486 6.52652 1.01183C6.72049 1.00193 6.91483 1.00193 7.10879 1.01183H9.86906V2.3465C9.79796 2.87282 9.88341 3.40842 10.1147 3.8865C10.6281 4.69757 11.5352 4.6609 12.3741 4.6609H21.9133C23.0317 4.59637 24.0957 3.97157 24.128 2.75423C24.1434 2.1749 24.1353 1.59337 24.128 1.01257H25.5272C26.3339 1.01257 27.3693 0.8615 28.066 1.3587C28.946 1.98717 28.9299 2.93903 28.9299 3.88283V22.7376C28.9299 25.0674 28.8411 27.417 28.9299 29.7453H28.6981H24.3803L25.7047 20.0066C25.9034 18.5451 26.1652 17.0733 26.3023 15.6066C26.3896 14.6724 25.6863 14.3651 24.8518 14.2866V11.6166C24.8518 11.167 24.8555 10.7175 24.8518 10.268C24.8542 10.1206 24.8255 9.97439 24.7676 9.83886C24.7097 9.70334 24.6238 9.58154 24.5157 9.48141C24.4075 9.38129 24.2795 9.30509 24.1399 9.25778C24.0003 9.21046 23.8523 9.1931 23.7056 9.20683C22.7046 9.19216 20.8661 8.99783 20.8522 10.4447V11.4061H19.0005V10.004C19.0691 9.60345 18.9926 9.19161 18.7849 8.84236C18.6119 8.68526 18.4053 8.56961 18.1809 8.50418C17.9566 8.43875 17.7202 8.42525 17.4899 8.4647C16.5923 8.4647 15.0897 8.34003 14.9965 9.59476C14.9518 10.2152 14.9489 10.8414 14.9562 11.4743H13.139V10.5532C13.1753 10.3316 13.1534 10.1043 13.0753 9.89374C12.9973 9.68315 12.8658 9.49647 12.6939 9.35203C12.1105 9.10673 11.4698 9.03049 10.8451 9.13203C10.5874 9.11491 10.3285 9.13516 10.0766 9.19216C9.8384 9.25389 9.62292 9.38268 9.45576 9.56323C9.28859 9.74379 9.17675 9.96853 9.13353 10.2108C9.10973 10.5525 9.10777 10.8954 9.12766 11.2374V14.36C8.46766 14.4091 7.80766 14.599 7.67713 15.3412C7.66079 15.7128 7.69734 16.0849 7.78566 16.4463L8.09806 18.7424L9.58746 29.6984C8.07924 29.6944 6.57175 29.7023 5.06499 29.7218V4.88603C5.06499 4.21577 5.03712 3.5389 5.06499 2.86937V2.86937ZM19.3936 29.7475C16.4947 29.7475 13.5915 29.7167 10.6889 29.705C10.2792 26.6934 9.86979 23.6818 9.46059 20.6703C9.28606 18.9228 8.88713 17.1914 8.74999 15.4409C8.70966 14.9334 9.08293 14.9782 9.46793 14.9774C10.0443 14.9774 11.0145 14.7501 11.4061 15.3118C11.9481 16.0892 12.1827 17.0755 12.8354 17.7714C14.4898 19.5358 17.3183 19.7808 19.4515 18.8142C20.9145 18.1542 21.8429 16.6766 22.5543 15.0669C22.709 14.7164 23.8347 14.9818 24.1573 14.9826C24.6472 14.9826 25.2375 14.987 25.2507 15.6301C25.1747 16.8772 25.0063 18.117 24.7469 19.3393C24.2747 22.8104 23.8029 26.2798 23.3316 29.7475H19.3936ZM12.0603 10.1829C12.0603 10.5598 12.0537 13.6244 12.0537 14.4986C11.4596 14.2958 10.8257 14.2385 10.2049 14.3314C10.2049 13.546 10.1998 10.3105 10.2049 10.2291C10.2196 9.9783 10.2783 9.93576 10.4902 9.93576H11.3247C11.4465 9.93283 12.061 9.89983 12.061 10.1829H12.0603ZM22.9202 9.8595C23.3397 9.8595 23.7503 9.8353 23.7848 10.386C23.8097 10.7886 23.7848 11.2008 23.7848 11.6041V14.2859C23.4599 14.3042 23.1556 14.3321 22.9143 14.3468C22.5669 14.3564 22.2282 14.4576 21.9324 14.6401C21.9331 10.0978 21.4271 9.8595 22.9209 9.8595H22.9202ZM20.8515 16.6355C20.4136 17.3773 19.7706 17.9765 18.9998 18.361V12.0602H20.8515C20.8537 12.5714 20.8522 15.6198 20.8522 16.6355H20.8515ZM17.9321 10.2504V18.6837C17.3118 18.7832 16.678 18.7605 16.0665 18.617C16.0665 15.743 15.5979 9.93063 16.0665 9.13496C16.2285 8.86143 17.3909 9.01836 17.6849 9.17676C18.0333 9.36303 17.9328 9.93283 17.9328 10.2504H17.9321ZM14.9877 18.2166C14.5517 17.9936 14.1565 17.6986 13.8188 17.3439C13.5592 17.0589 13.3313 16.7467 13.139 16.4126V11.992H14.965C14.9723 12.355 14.9877 18.1909 14.9877 18.2166ZM31.2406 40.0068C30.2264 40.1535 25.107 40.0142 23.6235 40.0142C22.5577 39.9875 21.5147 40.325 20.6667 40.9712C20.0514 41.4156 19.4391 41.8644 18.8209 42.3036C18.354 42.6808 17.7756 42.8931 17.1757 42.9076C16.5757 42.9221 15.9877 42.7378 15.5033 42.3836C14.5338 41.7375 13.6545 40.8832 12.6279 40.3302C11.6819 39.822 10.3545 40.0134 9.31833 40.0134C7.73506 40.0134 3.73106 40.0318 3.31599 40.0134C2.80741 39.9942 2.32545 39.7811 1.969 39.4179C1.61255 39.0546 1.40862 38.5687 1.39906 38.0598C1.31986 36.7956 1.39906 35.502 1.39906 34.2355C1.39906 32.9507 1.03239 30.5688 2.86572 30.3848C3.28152 30.343 29.1843 30.3114 30.7163 30.3848C31.2292 30.4143 31.711 30.6402 32.0618 31.0156C32.4126 31.3909 32.6054 31.887 32.6002 32.4007V35.986C32.6009 37.2356 32.9999 39.7509 31.2406 40.0068V40.0068Z" fill="#2A2A38"/>
<path d="M15.3917 33.9407C15.1113 33.8516 14.8409 33.7333 14.5851 33.588C14.2485 33.3078 14.1333 32.815 13.6831 32.6735C13.4761 32.6324 13.2616 32.6521 13.0655 32.7302C12.8694 32.8083 12.7001 32.9414 12.5779 33.1135C12.4459 33.266 12.3425 33.4802 12.19 33.6268C11.9861 33.8219 11.7287 33.8256 11.4831 33.9378C11.3372 33.9907 11.2041 34.074 11.0927 34.1821C10.9813 34.2901 10.894 34.4206 10.8366 34.5648C10.7792 34.709 10.7529 34.8637 10.7596 35.0188C10.7662 35.1739 10.8056 35.3258 10.8751 35.4646C10.9771 35.6662 11.1758 35.8393 11.2638 36.0586C11.3286 36.3471 11.3508 36.6436 11.3298 36.9386C11.3264 37.0658 11.3528 37.192 11.407 37.3071C11.4611 37.4223 11.5415 37.5231 11.6417 37.6015C11.7419 37.68 11.8591 37.7338 11.9838 37.7588C12.1086 37.7837 12.2375 37.7791 12.3601 37.7452C12.6087 37.702 12.8485 37.5568 13.0993 37.5252C13.3989 37.5347 13.6946 37.5957 13.9735 37.7056C14.2276 37.7911 14.5049 37.7759 14.7482 37.6632C14.9915 37.5506 15.1825 37.349 15.2817 37.0999C15.457 36.6115 15.2597 36.1282 15.5406 35.6677C15.9073 35.0649 16.1889 34.3638 15.3917 33.9407V33.9407ZM14.8417 35.4807C14.5396 35.9486 14.6679 36.2522 14.5367 36.7472C14.456 37.0515 14.5653 36.9672 14.2433 36.94C14.0233 36.9195 13.8114 36.789 13.587 36.764C13.0935 36.7098 12.3499 37.2693 12.1321 36.6907C11.9803 36.2859 12.1592 35.8921 11.9385 35.4756C11.7977 35.2101 11.4119 34.8662 11.7031 34.575C11.8226 34.4548 12.1247 34.4474 12.2787 34.3682C12.4757 34.264 12.6488 34.1199 12.7869 33.9451C12.9593 33.7449 13.1221 33.3027 13.3963 33.4934C13.6082 33.8507 13.8967 34.1565 14.2411 34.3888C14.4311 34.487 14.6811 34.498 14.8586 34.6132C15.2825 34.8874 15.0397 35.1756 14.8417 35.4822V35.4807Z" fill="#2A2A38"/>
<path d="M29.8906 33.8959C29.6195 33.8101 29.357 33.6992 29.1066 33.5645C28.8243 33.3357 28.7165 32.9587 28.4188 32.7578C28.3279 32.6916 28.2243 32.6449 28.1145 32.6208C28.0047 32.5966 27.8911 32.5955 27.7808 32.6175C27.6706 32.6395 27.5661 32.6841 27.4739 32.7485C27.3818 32.8129 27.304 32.8957 27.2455 32.9917C27.0911 33.2345 26.8995 33.4515 26.6779 33.6349C26.4425 33.7815 26.1374 33.7896 25.902 33.9473C25.671 34.1241 25.5186 34.3844 25.4775 34.6723C25.4363 34.9603 25.5098 35.2529 25.682 35.4873C25.8156 35.6588 25.932 35.843 26.0296 36.0373C26.0711 36.2902 26.0822 36.5473 26.0626 36.8029C26.1227 37.4255 26.5165 37.9029 27.1809 37.7892C27.431 37.7467 27.6686 37.6044 27.9201 37.5729C28.2267 37.577 28.53 37.6374 28.8148 37.7511C28.9378 37.801 29.071 37.8204 29.2031 37.8076C29.3352 37.7948 29.4622 37.7502 29.5733 37.6776C29.6844 37.6051 29.7763 37.5067 29.8412 37.3909C29.906 37.2751 29.9418 37.1453 29.9456 37.0126C29.98 36.7545 29.9192 36.4817 29.9771 36.2272C30.0564 36.0094 30.17 35.8056 30.3137 35.6237C30.4104 35.4858 30.4765 35.3288 30.5076 35.1632C30.5387 34.9977 30.534 34.8274 30.494 34.6638C30.4539 34.5002 30.3793 34.3471 30.2753 34.2147C30.1712 34.0822 30.0401 33.9736 29.8906 33.8959V33.8959ZM29.4601 35.4359C29.2401 35.8488 29.4271 36.2822 29.2599 36.6709C29.0304 37.204 28.2332 36.6474 27.7485 36.7149C27.4985 36.7493 27.1677 36.9737 26.925 36.9525C26.7497 36.9371 26.7703 36.8747 26.7336 36.6833C26.7313 36.2467 26.634 35.8158 26.4483 35.4205C26.2657 35.1272 25.9856 34.9871 26.3955 34.6711C26.5517 34.5508 26.8187 34.5486 26.9947 34.4555C27.2499 34.3205 27.956 33.2821 28.1944 33.4926C28.4178 33.8666 28.7198 34.1877 29.0795 34.4335C29.246 34.52 29.5848 34.5288 29.6977 34.6615C29.9602 34.971 29.598 35.1815 29.4601 35.4389V35.4359Z" fill="#2A2A38"/>
<path d="M8.20594 34.108C7.94341 33.9217 7.57234 33.9232 7.32007 33.7413C6.94827 33.47 6.84561 32.9918 6.41294 32.788C6.21814 32.6946 5.9987 32.6657 5.78634 32.7052C5.57398 32.7448 5.37969 32.8508 5.23154 33.008C5.05261 33.1906 4.94554 33.459 4.75341 33.6276C4.54187 33.7711 4.30862 33.8796 4.06261 33.9488C3.92165 33.9915 3.79243 34.0661 3.685 34.1668C3.57756 34.2676 3.4948 34.3917 3.44315 34.5296C3.3915 34.6676 3.37236 34.8155 3.3872 34.962C3.40205 35.1086 3.45048 35.2497 3.52874 35.3745C3.67335 35.5636 3.80188 35.7645 3.91301 35.9751C3.95858 36.2643 3.97577 36.5573 3.96434 36.8499C3.97485 36.9849 4.01398 37.1161 4.07913 37.2347C4.14427 37.3534 4.23394 37.4568 4.34217 37.5381C4.4504 37.6194 4.5747 37.6767 4.70681 37.7063C4.83891 37.7358 4.97579 37.7369 5.10834 37.7094C5.36061 37.6764 5.59381 37.5429 5.84167 37.5055C6.08361 37.4801 6.32811 37.5143 6.55374 37.6053C7.05901 37.7475 7.69921 37.8157 7.96834 37.2386C8.17661 36.7935 7.95074 36.2721 8.18834 35.8277C8.50514 35.2359 8.95248 34.6382 8.20594 34.108V34.108ZM7.39928 35.5013C7.12721 35.9516 7.28267 36.3021 7.16167 36.7832C7.07881 37.1139 7.03261 37.0516 6.71067 36.957C6.50245 36.8851 6.28707 36.8359 6.06827 36.8103C5.81584 36.8025 5.56424 36.8429 5.32687 36.9291C4.97927 37.0311 4.94261 37.1396 4.83114 36.8419C4.65734 36.3784 4.86781 35.9861 4.58181 35.5219C4.38601 35.2036 4.03181 34.9161 4.51287 34.5407C4.66981 34.4175 4.94481 34.4101 5.12521 34.3141C5.28067 34.2312 6.00887 33.3908 6.04554 33.3886C6.24874 33.7287 6.51448 34.0273 6.82874 34.2686C7.01574 34.3815 7.28414 34.3903 7.45574 34.515C7.95074 34.8685 7.60534 35.1662 7.40221 35.5021L7.39928 35.5013Z" fill="#2A2A38"/>
<path d="M22.5543 33.8951C22.2833 33.8095 22.021 33.6983 21.7711 33.5629C21.4888 33.3327 21.3839 32.9587 21.0832 32.7563C20.9921 32.6904 20.8882 32.6442 20.7783 32.6204C20.6684 32.5967 20.5548 32.5959 20.4446 32.6183C20.3343 32.6406 20.2299 32.6855 20.1379 32.7501C20.0459 32.8148 19.9683 32.8977 19.9099 32.9939C19.7554 33.2368 19.5633 33.4536 19.3408 33.6363C19.1054 33.7829 18.8004 33.7903 18.5657 33.9479C18.3335 34.1248 18.1802 34.386 18.139 34.675C18.0979 34.964 18.1721 35.2576 18.3457 35.4923C18.4805 35.6622 18.5991 35.8444 18.6999 36.0365C18.7285 36.2926 18.7361 36.5506 18.7226 36.8079C18.7842 37.432 19.1832 37.9079 19.8454 37.7913C20.0954 37.7481 20.3338 37.6058 20.5846 37.5713C20.8914 37.5762 21.1948 37.6368 21.48 37.7503C21.603 37.7998 21.7362 37.8188 21.8682 37.8057C22.0002 37.7925 22.1271 37.7476 22.2379 37.6747C22.3488 37.6018 22.4403 37.5032 22.5047 37.3873C22.5691 37.2713 22.6045 37.1415 22.6078 37.0089C22.6408 36.7639 22.5807 36.4955 22.6306 36.2565C22.7076 36.0257 22.825 35.8104 22.9774 35.6207C23.0737 35.4828 23.1395 35.326 23.1704 35.1607C23.2013 34.9954 23.1965 34.8254 23.1565 34.6621C23.1164 34.4988 23.042 34.3459 22.9382 34.2136C22.8343 34.0814 22.7034 33.9728 22.5543 33.8951V33.8951ZM22.159 35.3904C21.8906 35.8363 22.0945 36.2374 21.9258 36.6767C21.7161 37.2208 20.9182 36.6576 20.4592 36.7104C20.2641 36.7476 20.0723 36.8003 19.8857 36.8681C19.7346 36.922 19.5754 36.9498 19.4149 36.9502C19.3632 36.4709 19.2868 35.9946 19.1861 35.5231C19.016 35.2159 18.6918 34.9717 19.0922 34.6644C19.2433 34.5485 19.4985 34.5471 19.6679 34.4576C19.929 34.3197 20.6212 33.2843 20.8669 33.4969C21.0897 33.8715 21.3921 34.1924 21.7528 34.4371C21.9119 34.5192 22.2617 34.5346 22.3717 34.6644C22.5983 34.9365 22.2954 35.1638 22.159 35.3904V35.3904Z" fill="#2A2A38"/>
<path d="M27.0643 3.78093C27.0643 3.4873 26.8264 3.24927 26.533 3.24927C26.2396 3.24927 26.0017 3.4873 26.0017 3.78093V4.2862C26.0017 4.57983 26.2396 4.81787 26.533 4.81787C26.8264 4.81787 27.0643 4.57983 27.0643 4.2862V3.78093Z" fill="#2A2A38"/>
<path d="M7.99766 3.78093C7.99766 3.4873 7.75979 3.24927 7.46636 3.24927C7.17293 3.24927 6.93506 3.4873 6.93506 3.78093V4.2862C6.93506 4.57983 7.17293 4.81787 7.46636 4.81787C7.75979 4.81787 7.99766 4.57983 7.99766 4.2862V3.78093Z" fill="#2A2A38"/>
</svg>
