<svg width="252" height="386" viewBox="0 0 252 386" fill="none" xmlns="http://www.w3.org/2000/svg">
<path fill-rule="evenodd" clip-rule="evenodd" d="M6.09847 144.954C30.903 43.491 130.445 -19.2667 227.775 5.40391C328.649 31.0679 389.043 138.278 361.997 242.466C340.478 326.471 268.889 382.533 189.761 385.069C189.189 361.81 203.131 340.756 224.333 333.535C237.843 329 249.949 323.452 260.224 317.639L257.179 325.354C255.438 329.834 257.02 335.245 261.133 337.266C265.548 339.497 270.729 337.348 272.64 332.668L285.887 299.497C291.307 294.558 295.25 289.827 297.656 285.533C301.409 278.762 300.07 273.791 297.511 270.342L303.741 254.826L304.776 254.495C315.543 250.931 324.299 242.705 328.648 231.754L340.542 192.739C341.336 190.106 339.795 187.314 337.077 186.801C334.942 186.327 332.917 187.746 332.131 189.885L319.118 225.854C318.392 227.761 316.404 228.57 314.58 227.811C312.756 227.051 311.983 224.972 312.709 223.064L326.446 187.05C327.261 184.795 326.274 182.159 324.037 181.159L323.705 181.066L323.373 180.973C321.135 179.973 318.615 181.006 317.659 183.346L302.955 218.964C302.229 220.872 300.241 221.681 298.417 220.921C296.593 220.162 295.82 218.082 296.546 216.174L311.856 180.974C312.982 178.433 311.803 175.619 309.314 174.673C307.158 173.821 304.83 175.031 303.823 177.108L285.912 213.194C281.592 224.03 282.088 236.463 287.373 246.886L287.94 247.914L278.635 271.261C276.811 270.502 274.942 270.847 273.203 273.464C271.863 275.448 271.675 278.5 271.768 281.383C248.111 302.819 214.801 310.496 192.835 313.281C190.02 313.61 187.636 311.328 187.544 308.445C187.443 306.057 189.034 304.02 191.184 303.505C226.615 295.428 258.559 262.033 270.403 215.802C286.134 154.392 260.318 93.8802 212.796 80.5612C165.274 67.2421 113.99 106.145 98.2591 167.555C86.4457 213.671 98.2278 259.445 124.941 284.939C126.557 286.509 126.96 289.106 125.732 291.121C124.273 293.569 121.148 294.183 118.867 292.426C100.792 278.17 75.1788 253.481 65.3677 221.796C66.4559 219.866 67.2711 217.611 67.0516 215.686C66.7156 212.363 65.1213 211.171 63.0383 210.96L66.4211 185.705L77.9899 179.012C77.9899 179.012 84.1977 151.071 81.0962 124.247C79.9477 114.363 76.006 105.186 70.1789 97.3434C68.5195 95.0155 64.9429 96 64.452 98.8429L49.7138 183.257L47.2771 201.575C44.1574 203.557 41.6785 207.209 41.767 213.816C41.7627 217.54 42.4962 222.092 43.8053 227.178L38.5224 266.803C37.8593 271.709 40.9864 276.187 45.6766 276.881C50.3667 277.574 54.6477 274.303 55.3108 269.397L56.8607 257.786C63.1345 268.982 71.4239 281.116 81.7747 293.083C96.7657 310.572 99.2185 336.221 87.4349 356.266C20.8358 313.135 -14.2973 228.28 6.09847 144.954ZM152.897 264.654C152.897 264.654 181.464 208.822 120.576 182.562C120.604 182.447 88.8009 244.942 152.897 264.654ZM177.936 270.986C177.936 270.986 179.396 207.18 244.189 217.885C244.186 217.88 244.181 217.968 244.171 218.141C243.903 222.77 240.108 288.443 177.936 270.986Z" fill="#220F58"/>
</svg>
