<svg width="14" height="16" viewBox="0 0 14 16" fill="none" xmlns="http://www.w3.org/2000/svg">
<path d="M13.0323 10.9416C12.1314 10.6009 11.5288 9.78285 11.4608 8.80725C11.3942 7.85657 11.8601 7.01227 12.7071 6.54837L13.4113 6.16258L12.9084 5.53642C12.0634 4.48407 10.8542 3.85522 9.67391 3.85522C8.85586 3.85522 8.28828 4.06933 7.83247 4.24169C7.51064 4.36356 7.25681 4.45916 6.97807 4.45916C6.66028 4.45916 6.34652 4.3474 5.98295 4.21813C5.50626 4.04846 4.96628 3.8559 4.2728 3.8559C2.93296 3.8559 1.58167 4.65576 0.746792 5.94174C-0.499462 7.85994 -0.157433 11.1489 1.56012 13.7626C2.24082 14.7982 3.19487 15.9879 4.54615 16C4.55491 16 4.56366 16 4.57241 16C5.67862 16 5.92101 15.4102 6.9949 15.4034C8.16777 15.4587 8.31589 16.0047 9.41133 15.9973C10.7316 15.9852 11.6837 14.8049 12.4404 13.6516C12.8875 12.9736 13.0605 12.6187 13.4086 11.8485L13.7035 11.1954L13.0323 10.9416Z" fill="#3B2186"/>
<path d="M8.82152 2.16395C9.25916 1.60242 9.59109 0.809965 9.47057 0C8.75554 0.04915 7.92067 0.503619 7.43253 1.09611C6.98951 1.63407 6.62391 2.43124 6.76598 3.20687C7.54564 3.23111 8.35292 2.76519 8.82152 2.16395Z" fill="#3B2186"/>
</svg>
